<?xml version="1.0" standalone="no"?>
<!DOCTYPE svg PUBLIC "-//W3C//DTD SVG 1.1//EN" "http://www.w3.org/Graphics/SVG/1.1/DTD/svg11.dtd" >
<svg>
<metadata>
Created by FontForge 20090914 at Tue Apr 25 09:41:35 2017
 By www-data
Samsung Sharp Sans is a customized version of Sharp Sans, which is copyright (c) 2015 by Lucas Sharp. All rights reserved.
</metadata>
<defs>
<font id="iCielSamsungSharpSans-Bold" horiz-adv-x="646" >
  <font-face 
    font-family="iCiel Samsung Sharp Sans Bold"
    font-weight="700"
    font-stretch="normal"
    units-per-em="1000"
    panose-1="0 0 0 0 0 0 0 0 0 0"
    ascent="800"
    descent="-200"
    x-height="585"
    cap-height="730"
    bbox="-371 -283 1414 1130"
    underline-thickness="50"
    underline-position="-50"
    unicode-range="U+0020-U+FB79"
  />
<missing-glyph horiz-adv-x="926" 
d="M100 730h726v-730h-726v730zM236 130h454v470h-454v-470zM260 240l123 127l-124 129l80 78l122 -126l124 127l80 -78l-126 -130l125 -128l-80 -78l-123 126l-121 -125z" />
    <glyph glyph-name="uni203D" unicode="&#x21;&#x3f;" horiz-adv-x="517" 
d="M197 187l-4.50098 98.5029c-1.66699 35.667 -3 72.167 -4 109.5s-1.83301 74.666 -2.5 111.999s-1 72.666 -1 105.999v2c-16 -8 -28.833 -19 -38.5 -33s-16.5 -29.333 -20.5 -46l-126 43c12.667 48 39.5 86.833 80.5 116.5s93.5 44.5 157.5 44.5
c36.667 0 70.167 -5 100.5 -15s56.166 -24.167 77.499 -42.5s38 -40.333 50 -66s18 -54.167 18 -85.5s-4.66699 -56.833 -14 -76.5s-21.166 -36.334 -35.499 -50.001s-29.833 -26 -46.5 -37s-32.167 -23.5 -46.5 -37.5s-26.166 -31.167 -35.499 -51.5s-14 -46.833 -14 -79.5
v-12h-95zM162.999 69.0029c0 24.667 7.33301 44.5 22 59.5s34.667 22.5 60 22.5s45.166 -7.5 59.499 -22.5s21.5 -34.833 21.5 -59.5c0 -24 -7.33301 -43.5 -22 -58.5s-34.667 -22.5 -60 -22.5s-45.166 7.5 -59.499 22.5s-21.5 34.5 -21.5 58.5zM347.999 533.003
c0 17.333 -4 32.8311 -12 46.498s-20.333 24.834 -37 33.501c0 -61.333 -2 -124.666 -6 -189.999c14.667 16 27.5 31.667 38.5 47s16.5 36.333 16.5 63z" />
    <glyph glyph-name="interrobangdown" unicode="&#xa1;&#xbf;" horiz-adv-x="517" 
d="M279 -240c-36.667 0 -70.166 4.99805 -100.499 14.998s-56.333 24.167 -78 42.5s-38.5 40.333 -50.5 66s-18 54.167 -18 85.5c0 32 4.83301 57.667 14.5 77s21.5 35.833 35.5 49.5s29.5 26 46.5 37s32.5 23.5 46.5 37.5s25.833 31.167 35.5 51.5s14.5 46.833 14.5 79.5
v12h95c1.33301 -30 2.66602 -62.833 3.99902 -98.5l4 -109.5c1.33301 -37.333 2.33301 -74.666 3 -111.999s1 -72.666 1 -105.999v-2c15.333 8 28 19 38 33s17 29.333 21 46l126 -43c-12.667 -48 -39.5 -86.833 -80.5 -116.5s-93.5 -44.5 -157.5 -44.5zM194.001 430.998
c0 24.667 7.33301 44.5 22 59.5s34.667 22.5 60 22.5s45.166 -7.5 59.499 -22.5s21.5 -34.833 21.5 -59.5c0 -24 -7.33301 -43.5 -22 -58.5s-34.667 -22.5 -60 -22.5s-45.166 7.5 -59.499 22.5s-21.5 34.5 -21.5 58.5zM168.001 -33.002
c0 -17.333 4.16699 -32.832 12.5 -46.499s20.833 -24.834 37.5 -33.501c0 30 0.333008 61 1 93s2 64.333 4 97c-14.667 -16 -27.5 -31.5 -38.5 -46.5s-16.5 -36.167 -16.5 -63.5z" />
    <glyph glyph-name="uniFB76" unicode="&#x683;" horiz-adv-x="493" arabic-form="isolated" 
d="M35 0v596h214c35.333 0 67 -5 95 -15s51.5 -24.167 70.5 -42.5s33.5 -40.333 43.5 -66s15 -54.167 15 -85.5c0 -34 -7.5 -66.167 -22.5 -96.5s-37.5 -54.5 -67.5 -72.5l107 -218h-147l-83 179h-89v-179h-136zM236 304c37.333 0 62.833 8.5 76.5 25.5s20.5 37.5 20.5 61.5
s-7.66699 43.167 -23 57.5s-40 21.5 -74 21.5h-65v-166h65z" />
    <glyph glyph-name="uniFB77" unicode="&#x683;" horiz-adv-x="493" arabic-form="final" 
d="M35 0v596h214c35.333 0 67 -5 95 -15s51.5 -24.167 70.5 -42.5s33.5 -40.333 43.5 -66s15 -54.167 15 -85.5c0 -34 -7.5 -66.167 -22.5 -96.5s-37.5 -54.5 -67.5 -72.5l107 -218h-147l-83 179h-89v-179h-136zM236 304c37.333 0 62.833 8.5 76.5 25.5s20.5 37.5 20.5 61.5
s-7.66699 43.167 -23 57.5s-40 21.5 -74 21.5h-65v-166h65zM286 816h126l-150 -170h-91z" />
    <glyph glyph-name="uniFB78" unicode="&#x683;" horiz-adv-x="493" arabic-form="initial" 
d="M35 0v596h214c35.333 0 67 -5 95 -15s51.5 -24.167 70.5 -42.5s33.5 -40.333 43.5 -66s15 -54.167 15 -85.5c0 -34 -7.5 -66.167 -22.5 -96.5s-37.5 -54.5 -67.5 -72.5l107 -218h-147l-83 179h-89v-179h-136zM76 816h102l59 -89l59 89h102l-119 -170h-84zM236 304
c37.333 0 62.833 8.5 76.5 25.5s20.5 37.5 20.5 61.5s-7.66699 43.167 -23 57.5s-40 21.5 -74 21.5h-65v-166h65z" />
    <glyph glyph-name="uniFB79" unicode="&#x683;" horiz-adv-x="493" arabic-form="medial" 
d="M35 0v596h214c35.333 0 67 -5 95 -15s51.5 -24.167 70.5 -42.5s33.5 -40.333 43.5 -66s15 -54.167 15 -85.5c0 -34 -7.5 -66.167 -22.5 -96.5s-37.5 -54.5 -67.5 -72.5l107 -218h-147l-83 179h-89v-179h-136zM236 304c37.333 0 62.833 8.5 76.5 25.5s20.5 37.5 20.5 61.5
s-7.66699 43.167 -23 57.5s-40 21.5 -74 21.5h-65v-166h65zM154 -252l34 204h119l-70 -204h-83z" />
    <glyph glyph-name=".notdef" horiz-adv-x="926" 
d="M100 730h726v-730h-726v730zM236 130h454v470h-454v-470zM260 240l123 127l-124 129l80 78l122 -126l124 127l80 -78l-126 -130l125 -128l-80 -78l-123 126l-121 -125z" />
    <glyph glyph-name=".null" horiz-adv-x="0" 
 />
    <glyph glyph-name=".null" horiz-adv-x="0" 
 />
    <glyph glyph-name="space" unicode=" " horiz-adv-x="245" 
 />
    <glyph glyph-name="exclam" unicode="!" horiz-adv-x="209" 
d="M68 198c-4.66699 30 -8.8291 62.167 -12.4961 96.5s-6.83398 69.5 -9.50098 105.5s-4.83398 72.167 -6.50098 108.5s-2.5 71.166 -2.5 104.499v117h134v-117c0 -33.333 -0.666992 -68.166 -2 -104.499s-3.33301 -72.5 -6 -108.5s-5.83398 -71.167 -9.50098 -105.5
s-7.83398 -66.5 -12.501 -96.5h-73zM22.0049 69c0 24.667 7.33301 44.5 22 59.5s34.667 22.5 60 22.5s45.166 -7.5 59.499 -22.5s21.5 -34.833 21.5 -59.5c0 -24 -7.33301 -43.5 -22 -58.5s-34.667 -22.5 -60 -22.5s-45.166 7.5 -59.499 22.5s-21.5 34.5 -21.5 58.5z" />
    <glyph glyph-name="quotedbl" unicode="&#x22;" horiz-adv-x="323" 
d="M70 500c-2.66699 6 -5.82812 15.501 -9.49512 28.501s-7.33398 26.833 -11.001 41.5s-6.83398 29 -9.50098 43s-4 25 -4 33v84h105v-84c0 -8.66699 -1.33301 -20 -4 -34s-5.83398 -28.333 -9.50098 -43s-7.33398 -28.334 -11.001 -41.001s-6.83398 -22 -9.50098 -28h-37z
M215.006 500.001c-2.66699 6 -5.83203 15.501 -9.49902 28.501s-7.16699 26.833 -10.5 41.5s-6.33301 29 -9 43s-4 25 -4 33v84h105v-84c0 -8.66699 -1.33301 -20 -4 -34s-5.83398 -28.333 -9.50098 -43s-7.5 -28.334 -11.5 -41.001s-7.33301 -22 -10 -28h-37z" />
    <glyph glyph-name="numbersign" unicode="#" horiz-adv-x="802" 
d="M484 155h-174v-155h-136v155h-148v130h148v170h-148v130h148v145h136v-145h174v145h136v-145h156v-130h-156v-170h156v-130h-156v-155h-136v155zM310 285h174v170h-174v-170z" />
    <glyph glyph-name="dollar" unicode="$" horiz-adv-x="588" 
d="M564 217c0 -24.667 -4.33301 -49.002 -13 -73.002s-21.334 -46 -38.001 -66s-37.167 -37.167 -61.5 -51.5s-52.166 -24.5 -83.499 -30.5v-116h-136v117c-48 8 -90 23.167 -126 45.5s-67 48.5 -93 78.5l124 97c11.333 -19.333 25.5 -36.166 42.5 -50.499
s35.5 -25.5 55.5 -33.5v193c-23.333 7.33301 -46.666 16.166 -69.999 26.499s-44.166 23.5 -62.499 39.5s-33.333 35.167 -45 57.5s-17.5 49.166 -17.5 80.499c0 25.333 4.66699 49.166 14 71.499s22.5 42.5 39.5 60.5s37.167 33.333 60.5 46s49.333 21.334 78 26.001v105
h136v-108c38 -7.33301 70.667 -19.666 98 -36.999s52.666 -37.666 75.999 -60.999l-113 -85c-16.667 24 -38.334 42 -65.001 54v-174c23.333 -8 47 -17.5 71 -28.5s45.5 -24.667 64.5 -41s34.5 -36.166 46.5 -59.499s18 -51 18 -83zM426 217.998
c0 17.333 -5.83301 31.498 -17.5 42.498s-26.5 20.5 -44.5 28.5v-159c19.333 8.66699 34.5 20.834 45.5 36.501s16.5 32.834 16.5 51.501zM176 535.996c0 -17.333 5.33301 -31 16 -41s25 -18.667 43 -26v141c-18.667 -6.66699 -33.167 -16.5 -43.5 -29.5
s-15.5 -27.833 -15.5 -44.5z" />
    <glyph glyph-name="percent" unicode="%" horiz-adv-x="825" 
d="M136 562c0 -18 6.5 -33.5 19.5 -46.5s28.167 -19.5 45.5 -19.5s32.5 6.5 45.5 19.5s19.5 28.5 19.5 46.5c0 17.333 -6.5 32.5 -19.5 45.5s-28.167 19.5 -45.5 19.5s-32.5 -6.5 -45.5 -19.5s-19.5 -28.167 -19.5 -45.5zM446 168c0 24.667 4.66699 47.834 14 69.501
s22.166 40.5 38.499 56.5s35.333 28.667 57 38s44.834 14 69.501 14s47.834 -4.66699 69.501 -14s40.5 -22 56.5 -38s28.667 -34.833 38 -56.5s14 -44.834 14 -69.501s-4.66699 -47.834 -14 -69.501s-22 -40.667 -38 -57s-34.833 -29.166 -56.5 -38.499
s-44.834 -14 -69.501 -14s-47.834 4.66699 -69.501 14s-40.667 22.166 -57 38.499s-29.166 35.333 -38.499 57s-14 44.834 -14 69.501zM640 730h172l-627 -730h-172zM560 168c0 -18 6.33301 -33.333 19 -46s28 -19 46 -19c17.333 0 32.333 6.33301 45 19s19 28 19 46
c0 17.333 -6.33301 32.5 -19 45.5s-27.667 19.5 -45 19.5c-18 0 -33.333 -6.5 -46 -19.5s-19 -28.167 -19 -45.5zM22 562c0 24.667 4.66699 47.834 14 69.501s22.166 40.5 38.499 56.5s35.333 28.667 57 38s44.834 14 69.501 14s47.834 -4.66699 69.501 -14
s40.5 -22 56.5 -38s28.667 -34.833 38 -56.5s14 -44.834 14 -69.501s-4.66699 -47.834 -14 -69.501s-22 -40.667 -38 -57s-34.833 -29.166 -56.5 -38.499s-44.834 -14 -69.501 -14s-47.834 4.66699 -69.501 14s-40.667 22.166 -57 38.499s-29.166 35.333 -38.499 57
s-14 44.834 -14 69.501z" />
    <glyph glyph-name="ampersand" unicode="&#x26;" horiz-adv-x="749" 
d="M506 56c-29.333 -20.667 -60.502 -37.0029 -93.502 -49.0029s-67.5 -18 -103.5 -18c-52.667 0 -97.334 7.16699 -134.001 21.5s-66.5 32.833 -89.5 55.5s-39.5 48.167 -49.5 76.5s-15 56.5 -15 84.5c0 46 11.833 86.333 35.5 121s53.834 62.667 90.501 84
c-11.333 18 -19.833 36.667 -25.5 56s-8.5 40.666 -8.5 63.999c0 26.667 5.16699 51.334 15.5 74.001s24.833 42.5 43.5 59.5s40.834 30.333 66.501 40s53.5 14.5 83.5 14.5c30.667 0 57.667 -3.66699 81 -11s43.666 -17.166 60.999 -29.499s31.833 -26.666 43.5 -42.999
s20.834 -33.833 27.501 -52.5l-132 -47c-5.33301 17.333 -14 32 -26 44s-28.667 18 -50 18c-20.667 0 -37.667 -6.33301 -51 -19s-20 -28.667 -20 -48c0 -14 1.83301 -26.667 5.5 -38s10 -23.333 19 -36s21.333 -27.167 37 -43.5l59.5 -60.5l139 -140
c14.667 20.667 26.834 42.334 36.501 65.001s17.167 45.667 22.5 69h-123v129h258v-63c0 -46 -9.66699 -94 -29 -144s-46 -97 -80 -141l148 -149h-186zM307.998 107.997c20 0 39.333 2.83008 58 8.49707s36.667 13.834 54 24.501l-155 156
c-14.667 14 -28.334 27.667 -41.001 41c-22 -13.333 -38.833 -28.666 -50.5 -45.999s-17.5 -38.666 -17.5 -63.999c0 -16 3.33301 -31.167 10 -45.5s16.334 -27 29.001 -38s28.5 -19.833 47.5 -26.5s40.833 -10 65.5 -10z" />
    <glyph glyph-name="quotesingle" unicode="'" horiz-adv-x="177" 
d="M70 500c-2.66699 6 -5.82812 15.501 -9.49512 28.501s-7.33398 26.833 -11.001 41.5s-6.83398 29 -9.50098 43s-4 25 -4 33v84h105v-84c0 -8.66699 -1.33301 -20 -4 -34s-5.83398 -28.333 -9.50098 -43s-7.33398 -28.334 -11.001 -41.001s-6.83398 -22 -9.50098 -28h-37z
" />
    <glyph glyph-name="parenleft" unicode="(" horiz-adv-x="388" 
d="M300 -254c-41.333 28 -79.002 59.334 -113.002 94.001s-63.333 72.834 -88 114.501s-43.667 87.167 -57 136.5s-20 102.333 -20 159c0 57.333 6.33301 109.833 19 157.5s30.667 91.5 54 131.5s51.5 76.833 84.5 110.5s69.5 65.167 109.5 94.5l91 -98
c-31.333 -20.667 -60.166 -44.334 -86.499 -71.001s-49.166 -56.334 -68.499 -89.001s-34.333 -68.5 -45 -107.5s-16 -81.833 -16 -128.5c0 -88 19 -164.333 57 -229s92.667 -119 164 -163z" />
    <glyph glyph-name="parenright" unicode=")" horiz-adv-x="388" 
d="M224 248c0 46.667 -5.33691 89.499 -16.0039 128.499s-25.667 74.833 -45 107.5s-42.166 62.334 -68.499 89.001s-55.166 50.334 -86.499 71.001l91 98c40.667 -29.333 77.5 -60.833 110.5 -94.5s61.167 -70.5 84.5 -110.5s41.333 -83.833 54 -131.5
s19 -100.167 19 -157.5c0 -56.667 -6.83301 -109.667 -20.5 -159s-32.667 -94.833 -57 -136.5s-53.666 -79.834 -87.999 -114.501s-72.166 -66 -113.499 -94l-84 112c71.333 44 125.833 98.333 163.5 163s56.5 141 56.5 229z" />
    <glyph glyph-name="asterisk" unicode="*" horiz-adv-x="405" 
d="M238 492l23 -115h-117l22 114l-89 -76l-57 102l110 37l-110 39l60 100l87 -76l-23 114h117l-24 -116l90 78l58 -102l-112 -38l112 -38l-60 -100z" />
    <glyph glyph-name="plus" unicode="+" horiz-adv-x="442" 
d="M36 422h129v127h113v-127h128v-115h-128v-128h-113v128h-129v115z" />
    <glyph glyph-name="comma" unicode="," horiz-adv-x="207" 
d="M56 87h119l-70 -204h-84z" />
    <glyph glyph-name="hyphen" unicode="-" horiz-adv-x="442" 
d="M36 312h370v-115h-370v115z" />
    <glyph glyph-name="period" unicode="." horiz-adv-x="207" 
d="M22 69c0 24.667 7.33301 44.5 22 59.5s34.667 22.5 60 22.5s45.166 -7.5 59.499 -22.5s21.5 -34.833 21.5 -59.5c0 -24 -7.33301 -43.5 -22 -58.5s-34.667 -22.5 -60 -22.5s-45.166 7.5 -59.499 22.5s-21.5 34.5 -21.5 58.5z" />
    <glyph glyph-name="slash" unicode="/" horiz-adv-x="511" 
d="M357 730h144l-346 -730h-144z" />
    <glyph glyph-name="zero" unicode="0" horiz-adv-x="588" 
d="M293 125c36.667 0 64.666 10.499 83.999 31.499s29 46.5 29 76.5v259c0 34.667 -9.5 62.334 -28.5 83.001s-46.5 31 -82.5 31c-36.667 0 -64.667 -11 -84 -33s-29 -49 -29 -81v-258c0 -32 9.33301 -58.167 28 -78.5s46.334 -30.5 83.001 -30.5zM293.999 -10.001
c-40 0 -75.334 5.83203 -106.001 17.499s-56.5 28 -77.5 49s-37 46.167 -48 75.5s-16.5 61.333 -16.5 96v268c0 34.667 6 66.834 18 96.501s29 55.5 51 77.5s48.167 39.167 78.5 51.5s63.833 18.5 100.5 18.5c38 0 72.167 -6.33301 102.5 -19s56.333 -30 78 -52
s38.334 -47.833 50.001 -77.5s17.5 -61.167 17.5 -94.5v-269c0 -36 -5.66699 -68.5 -17 -97.5s-27.5 -54 -48.5 -75s-46.833 -37.167 -77.5 -48.5s-65.667 -17 -105 -17z" />
    <glyph glyph-name="one" unicode="1" horiz-adv-x="331" 
d="M124 0v603h-89v127h225v-730h-136z" />
    <glyph glyph-name="two" unicode="2" horiz-adv-x="536" 
d="M36 128c0 31.333 5.66504 59.666 16.998 84.999s26.166 48.5 44.499 69.5s39 40.167 62 57.5s45.833 33.666 68.5 48.999l52 36.5c16.667 11.667 31.334 23.334 44.001 35.001s22.834 23.667 30.501 36s11.5 25.5 11.5 39.5c0 24 -8.5 44.5 -25.5 61.5
s-41.833 25.5 -74.5 25.5c-32 0 -58.167 -9.66699 -78.5 -29s-36.833 -44.333 -49.5 -75l-117 59c22.667 50 54.5 89.5 95.5 118.5s91.167 43.5 150.5 43.5c37.333 0 70.5 -5.33301 99.5 -16s53.833 -25.167 74.5 -43.5s36.334 -40 47.001 -65s16 -51.833 16 -80.5
s-5.33301 -54.5 -16 -77.5s-24.667 -44 -42 -63s-36.833 -36.5 -58.5 -52.5s-43.5 -31.333 -65.5 -46l-55 -37.5c-18 -12.333 -34 -25.166 -48 -38.499s-25.333 -27.333 -34 -42s-13 -30.667 -13 -48h329v-130h-465v128z" />
    <glyph glyph-name="three" unicode="3" horiz-adv-x="502" 
d="M237 -10c-46.667 0 -89.498 7.83008 -128.498 23.4971s-74.167 41.834 -105.5 78.501l118 88c15.333 -23.333 32.666 -40.166 51.999 -50.499s40.333 -15.5 63 -15.5c31.333 0 57.166 8.5 77.499 25.5s30.5 40.833 30.5 71.5s-11.5 55.167 -34.5 73.5
s-53.167 27.5 -90.5 27.5h-75v125h75c40 0 69.333 9.66699 88 29s28 42 28 68c0 26.667 -9.33301 48 -28 64s-43.667 24 -75 24c-28.667 0 -51.5 -6.33301 -68.5 -19s-31.167 -29.667 -42.5 -51l-116 60c21.333 40 52.166 71.333 92.499 94s84.5 34 132.5 34
c35.333 0 67.666 -4.83301 96.999 -14.5s54.333 -23.334 75 -41.001s36.667 -39.167 48 -64.5s17 -53.666 17 -84.999c0 -33.333 -7.33301 -63.166 -22 -89.499s-35 -48.833 -61 -67.5c30 -17.333 53.5 -40 70.5 -68s25.5 -61 25.5 -99c0 -31.333 -5.33301 -60.5 -16 -87.5
s-26.167 -50.333 -46.5 -70s-45.666 -35.167 -75.999 -46.5s-65.166 -17 -104.499 -17z" />
    <glyph glyph-name="four" unicode="4" horiz-adv-x="623" 
d="M348 168h-313v124l306 438h139v-438h107v-124h-107v-168h-132v168zM348 292v235l-166 -235h166z" />
    <glyph glyph-name="five" unicode="5" horiz-adv-x="541" 
d="M270 -10c-32 0 -61.1719 3.83398 -87.5049 11.501s-50 18 -71 31s-39 28 -54 45s-27.167 34.5 -36.5 52.5l126 73c10.667 -23.333 25.834 -43.833 45.501 -61.5s45.834 -26.5 78.501 -26.5c14.667 0 28.834 2.83301 42.501 8.5s25.667 13.5 36 23.5
s18.5 22.167 24.5 36.5s9 29.833 9 46.5c0 34 -10.167 62.667 -30.5 86s-48.5 35 -84.5 35c-28.667 0 -52.167 -7 -70.5 -21s-33.833 -31.667 -46.5 -53l-121 62l52 391h406v-127h-298l-21 -162c14 9.33301 30.667 17.333 50 24s40.666 10 63.999 10
c32.667 0 63.334 -5.33301 92.001 -16s53.834 -26.334 75.501 -47.001s38.667 -46.167 51 -76.5s18.5 -65.5 18.5 -105.5c0 -35.333 -6.16699 -67.833 -18.5 -97.5s-29.666 -55 -51.999 -76s-48.833 -37.333 -79.5 -49s-64 -17.5 -100 -17.5z" />
    <glyph glyph-name="six" unicode="6" horiz-adv-x="562" 
d="M282 -10c-38 0 -72.999 6.33496 -104.999 19.002s-59.5 30.167 -82.5 52.5s-41 48.666 -54 78.999s-19.5 62.833 -19.5 97.5c0 34 5 67.667 15 101s23.667 62.666 41 87.999l189 303h160l-160 -248c14 4 28.333 6 43 6c32 0 62 -6.16699 90 -18.5s52.5 -29.5 73.5 -51.5
s37.5 -48.167 49.5 -78.5s18 -63.833 18 -100.5s-6.5 -70.167 -19.5 -100.5s-31 -56.5 -54 -78.5s-50.333 -39.167 -82 -51.5s-65.834 -18.5 -102.501 -18.5zM279.001 113.002c17.333 0 33.666 3.33398 48.999 10.001s28.833 15.834 40.5 27.501
s20.834 25.334 27.501 41.001s10 32.5 10 50.5c0 17.333 -3.33301 33.833 -10 49.5s-15.834 29.167 -27.501 40.5s-25.167 20.333 -40.5 27s-31.666 10 -48.999 10s-33.5 -3.33301 -48.5 -10s-28.167 -15.834 -39.5 -27.501s-20.333 -25.167 -27 -40.5s-10 -32 -10 -50
c0 -17.333 3.33301 -33.833 10 -49.5s15.667 -29.334 27 -41.001s24.5 -20.834 39.5 -27.501s31.167 -10 48.5 -10z" />
    <glyph glyph-name="seven" unicode="7" horiz-adv-x="530" 
d="M353 600h-318v130h460v-118l-253 -612h-144z" />
    <glyph glyph-name="eight" unicode="8" horiz-adv-x="588" 
d="M293 -10c-83.333 0 -147.334 20.3311 -192.001 60.998s-67 96.334 -67 167.001c0 38 7.83301 71.167 23.5 99.5s37.834 52.166 66.501 71.499c-20.667 17.333 -36.667 37.833 -48 61.5s-17 50.834 -17 81.501c0 31.333 5.66699 59.833 17 85.5s27.5 47.5 48.5 65.5
s46.167 32 75.5 42s62 15 98 15c35.333 0 67.5 -5 96.5 -15s54 -24 75 -42s37.167 -39.833 48.5 -65.5s17 -54.167 17 -85.5s-6.16699 -58.833 -18.5 -82.5s-29.166 -44.167 -50.499 -61.5c28 -19.333 49.667 -43.166 65 -71.499s23 -61.166 23 -98.499
c0 -70.667 -22.833 -126.334 -68.5 -167.001s-109.834 -61 -192.501 -61zM292.999 109.998c43.333 0 76 10.5 98 31.5s33 46.5 33 76.5s-10.833 55.5 -32.5 76.5s-53.5 31.5 -95.5 31.5c-42.667 0 -75.167 -10.5 -97.5 -31.5s-33.5 -46.5 -33.5 -76.5s10.333 -55.5 31 -76.5
s53 -31.5 97 -31.5zM294.999 439.998c38 0 66.833 9 86.5 27s29.5 39.667 29.5 65s-9.66699 47.166 -29 65.499s-47 27.5 -83 27.5c-36.667 0 -65.167 -9.16699 -85.5 -27.5s-30.5 -40.166 -30.5 -65.499c0 -26 9.16699 -47.833 27.5 -65.5s46.5 -26.5 84.5 -26.5z" />
    <glyph glyph-name="nine" unicode="9" horiz-adv-x="562" 
d="M296 251c-14 -4 -28.001 -6.00293 -42.001 -6.00293c-32 0 -62.167 6 -90.5 18s-53.166 28.833 -74.499 50.5s-38.166 47.5 -50.499 77.5s-18.5 63.333 -18.5 100c0 37.333 6.66699 71.333 20 102s31.666 56.834 54.999 78.501s50.833 38.5 82.5 50.5s65.5 18 101.5 18
c38 0 72.833 -6.33301 104.5 -19s59 -30.167 82 -52.5s41 -48.666 54 -78.999s19.5 -62.833 19.5 -97.5c0 -34 -5 -67.667 -15 -101s-23.667 -62.666 -41 -87.999l-188 -303h-160zM280.999 361.997c17.333 0 33.666 3.33105 48.999 9.99805s28.666 15.834 39.999 27.501
s20.333 25.334 27 41.001s10 32.5 10 50.5c0 17.333 -3.33301 33.833 -10 49.5s-15.667 29.334 -27 41.001s-24.666 21 -39.999 28s-31.666 10.5 -48.999 10.5c-16.667 0 -32.834 -3.5 -48.501 -10.5s-29.167 -16.5 -40.5 -28.5s-20.5 -25.833 -27.5 -41.5
s-10.5 -32.167 -10.5 -49.5c0 -18 3.5 -34.667 10.5 -50s16.167 -28.833 27.5 -40.5s24.833 -20.834 40.5 -27.501s31.834 -10 48.501 -10z" />
    <glyph glyph-name="colon" unicode=":" horiz-adv-x="207" 
d="M22 69c0 24.667 7.33301 44.5 22 59.5s34.667 22.5 60 22.5s45.166 -7.5 59.499 -22.5s21.5 -34.833 21.5 -59.5c0 -24 -7.33301 -43.5 -22 -58.5s-34.667 -22.5 -60 -22.5s-45.166 7.5 -59.499 22.5s-21.5 34.5 -21.5 58.5zM22 430c0 24.667 7.33301 44.5 22 59.5
s34.667 22.5 60 22.5s45.166 -7.5 59.499 -22.5s21.5 -34.833 21.5 -59.5c0 -24 -7.33301 -43.5 -22 -58.5s-34.667 -22.5 -60 -22.5s-45.166 7.5 -59.499 22.5s-21.5 34.5 -21.5 58.5z" />
    <glyph glyph-name="semicolon" unicode=";" horiz-adv-x="207" 
d="M56 87h119l-70 -204h-84zM22 430c0 24.667 7.33301 44.5 22 59.5s34.667 22.5 60 22.5s45.166 -7.5 59.499 -22.5s21.5 -34.833 21.5 -59.5c0 -24 -7.33301 -43.5 -22 -58.5s-34.667 -22.5 -60 -22.5s-45.166 7.5 -59.499 22.5s-21.5 34.5 -21.5 58.5z" />
    <glyph glyph-name="less" unicode="&#x3c;" horiz-adv-x="442" 
d="M36 306v115l370 133v-118l-224 -73l224 -73v-118z" />
    <glyph glyph-name="equal" unicode="=" horiz-adv-x="442" 
d="M36 504h370v-115h-370v115zM36 337h370v-115h-370v115z" />
    <glyph glyph-name="greater" unicode="&#x3e;" horiz-adv-x="442" 
d="M36 290l223 73l-223 73v118l370 -133v-115l-370 -134v118z" />
    <glyph glyph-name="question" unicode="?" horiz-adv-x="517" 
d="M181 199c0 40.667 4.16797 74.3311 12.501 100.998s18.5 49 30.5 67s25.333 33 40 45s28 23.667 40 35s22.167 23.5 30.5 36.5s12.5 29.5 12.5 49.5c0 25.333 -8.66699 46.5 -26 63.5s-40.666 25.5 -69.999 25.5c-26.667 0 -48.5 -8.16699 -65.5 -24.5
s-28.5 -36.833 -34.5 -61.5l-126 43c12 48 37 86.833 75 116.5s89 44.5 153 44.5c34 0 65.167 -5 93.5 -15s52.666 -24.167 72.999 -42.5s36.166 -40.333 47.499 -66s17 -54.167 17 -85.5s-4.5 -57.166 -13.5 -77.499s-20.167 -37.666 -33.5 -51.999s-28 -27.333 -44 -39
s-30.667 -24.5 -44 -38.5s-24.5 -30.667 -33.5 -50s-13.5 -44.333 -13.5 -75v-11h-121v11zM159.001 68.9971c0 24.667 7.33301 44.5 22 59.5s34.667 22.5 60 22.5s45.166 -7.5 59.499 -22.5s21.5 -34.833 21.5 -59.5c0 -24 -7.33301 -43.5 -22 -58.5
s-34.667 -22.5 -60 -22.5s-45.166 7.5 -59.499 22.5s-21.5 34.5 -21.5 58.5z" />
    <glyph glyph-name="at" unicode="@" horiz-adv-x="789" 
d="M395 -125c-52 0 -100.666 9.82617 -145.999 29.4932s-84.833 46.334 -118.5 80.001s-60.167 73.334 -79.5 119.001s-29 94.5 -29 146.5s9.66699 100.667 29 146s45.833 85 79.5 119s73.167 60.833 118.5 80.5s94 29.5 146 29.5c57.333 0 108.833 -9.66699 154.5 -29
s84.834 -44.666 117.501 -75.999s57.667 -67.333 75 -108s26 -82 26 -124c0 -28.667 -4 -55.667 -12 -81s-19.5 -47.666 -34.5 -66.999s-33.167 -34.666 -54.5 -45.999s-45 -17 -71 -17c-30 0 -54.667 5.33301 -74 16s-34.666 23.667 -45.999 39
c-12.667 -16.667 -29.5 -29.834 -50.5 -39.501s-46.167 -14.5 -75.5 -14.5c-20 0 -39.833 4 -59.5 12s-37 19.5 -52 34.5s-26.5 33.833 -34.5 56.5s-10.667 48.334 -8 77.001c3.33301 30.667 11.166 57.334 23.499 80.001s27.166 41.334 44.499 56.001
s35.833 25.667 55.5 33s38.167 11 55.5 11c21.333 0 40.166 -3.33301 56.499 -10s29.833 -15.667 40.5 -27c0.666992 7.33301 1.33398 13 2.00098 17s1 7 1 9c0.666992 2.66699 1 4.33398 1 5.00098h107l-19 -181c-2.66699 -21.333 -0.666992 -38 6 -50
s18.334 -18 35.001 -18c16 0 29.167 9.66699 39.5 29s15.5 44.666 15.5 75.999c0 28.667 -6.16699 56.834 -18.5 84.501s-29.833 52.5 -52.5 74.5s-50.334 39.667 -83.001 53s-69.667 20 -111 20c-37.333 0 -72.166 -7 -104.499 -21s-60.5 -33.333 -84.5 -58
s-43 -53.5 -57 -86.5s-21 -68.167 -21 -105.5s7 -72.333 21 -105s33 -61.334 57 -86.001s52.167 -44 84.5 -58s67.166 -21 104.499 -21c40 0 76.667 7.83301 110 23.5s62.666 37.167 87.999 64.5l81 -67c-34 -38 -75 -68.333 -123 -91s-100 -34 -156 -34zM375.001 178.993
c23.333 0 42.8311 7.99902 58.498 23.999s24.5 35.333 26.5 58c2.66699 22 -2.33301 41 -15 57s-30.334 24 -53.001 24c-22 0 -41.667 -7.66699 -59 -23s-26.666 -34.666 -27.999 -57.999c-3.33301 -23.333 1.83398 -42.833 15.501 -58.5s31.834 -23.5 54.501 -23.5z" />
    <glyph glyph-name="A" unicode="A" horiz-adv-x="687" 
d="M275 730h137l260 -730h-142l-45 130h-283l-45 -130h-142zM248 260h192l-96 277z" />
    <glyph glyph-name="B" unicode="B" horiz-adv-x="573" 
d="M42 730h230c80.667 0 143.167 -17.333 187.5 -52s66.5 -85.334 66.5 -152.001c0 -63.333 -26.667 -110.666 -80 -141.999c34 -15.333 60.167 -37 78.5 -65s27.5 -62.333 27.5 -103c0 -72 -23.5 -126 -70.5 -162s-110.833 -54 -191.5 -54h-248v730zM178 312v-187h112
c41.333 0 72.5 8.16699 93.5 24.5s31.5 39.5 31.5 69.5s-9.16699 53 -27.5 69s-52.833 24 -103.5 24h-106zM178 605l0.000976562 -166h94c43.333 0 73.666 8 90.999 24s26 37 26 63c0 27.333 -9 47.333 -27 60s-48 19 -90 19h-94z" />
    <glyph glyph-name="C" unicode="C" horiz-adv-x="738" 
d="M397 -10c-56 0 -107.171 9.83105 -153.504 29.498s-85.833 46.334 -118.5 80.001s-58 73.334 -76 119.001s-27 94.5 -27 146.5c0 54.667 9.66699 104.834 29 150.501s45.833 85.167 79.5 118.5s73.334 59.333 119.001 78s94.834 28 147.501 28
c34 0 66.833 -4.33301 98.5 -13s61.334 -20.834 89.001 -36.501s52.667 -34.667 75 -57s41.5 -47.166 57.5 -74.499l-119 -76c-21.333 38 -48.333 68 -81 90s-72.667 33 -120 33c-34.667 0 -66.667 -6.16699 -96 -18.5s-54.666 -29.333 -75.999 -51s-38 -47.167 -50 -76.5
s-18 -61 -18 -95c0 -33.333 6 -64.5 18 -93.5s28.5 -54.333 49.5 -76s46 -38.667 75 -51s60.5 -18.5 94.5 -18.5c50.667 0 93.5 12.833 128.5 38.5s62.167 58.5 81.5 98.5l124 -65c-16 -30.667 -35.5 -58.834 -58.5 -84.501s-48.667 -47.667 -77 -66s-59 -32.5 -92 -42.5
s-67.5 -15 -103.5 -15z" />
    <glyph glyph-name="D" unicode="D" horiz-adv-x="648" 
d="M42 730l199.002 0.000976562c61.333 0 116 -9.33301 164 -28s88.5 -44.334 121.5 -77.001s58 -71.167 75 -115.5s25.5 -92.5 25.5 -144.5s-9.33301 -100.333 -28 -145s-44.834 -83.167 -78.501 -115.5s-73.834 -57.833 -120.501 -76.5s-97.667 -28 -153 -28h-205v730z
M178.002 604.001v-478h53c40 0 76 6 108 18s59.167 28.833 81.5 50.5s39.666 47 51.999 76s18.5 60.5 18.5 94.5c0 35.333 -5.33301 67.5 -16 96.5s-27 54.167 -49 75.5s-49.667 37.833 -83 49.5s-72.666 17.5 -117.999 17.5h-47z" />
    <glyph glyph-name="E" unicode="E" horiz-adv-x="509" 
d="M42 730h433v-130h-297v-168h297v-130h-297v-172h297v-130h-433v730z" />
    <glyph glyph-name="F" unicode="F" horiz-adv-x="491" 
d="M42 730h413v-130h-277v-168h277v-130h-277v-302h-136v730z" />
    <glyph glyph-name="G" unicode="G" horiz-adv-x="780" 
d="M401 -10c-56.667 0 -108.329 9.99609 -154.996 29.9961s-86.667 47.167 -120 81.5s-59 74.166 -77 119.499s-27 93.333 -27 144c0 52 9.33301 100.833 28 146.5s44.5 85.334 77.5 119.001s72.333 60.334 118 80.001s95.5 29.5 149.5 29.5c38 0 73.667 -4.5 107 -13.5
s64.166 -21.833 92.499 -38.5s53.666 -36.5 75.999 -59.5s41.166 -48.167 56.499 -75.5l-120 -72c-22.667 42 -51.5 73.667 -86.5 95s-76.5 32 -124.5 32c-34 0 -65.5 -6.5 -94.5 -19.5s-54.333 -30.5 -76 -52.5s-38.5 -47.667 -50.5 -77s-18 -60.666 -18 -93.999
c0 -34 6 -65.667 18 -95s28.833 -55 50.5 -77s47.5 -39.333 77.5 -52s62.667 -19 98 -19c54.667 0 100.167 14.333 136.5 43s61.166 67 74.499 115h-233v130h379v-54c0 -49.333 -8.33301 -96.166 -25 -140.499s-40.5 -83.166 -71.5 -116.499s-68.5 -59.833 -112.5 -79.5
s-93.333 -29.5 -148 -29.5z" />
    <glyph glyph-name="H" unicode="H" horiz-adv-x="636" 
d="M458 301h-280v-301h-136v730h136v-299h280v299h136v-730h-136v301z" />
    <glyph glyph-name="I" unicode="I" horiz-adv-x="230" 
d="M47 730h136v-730h-136v730z" />
    <glyph glyph-name="J" unicode="J" horiz-adv-x="501" 
d="M247 -10c-58.667 0 -108.331 14.833 -148.998 44.5s-67 69.834 -79 120.501l134 44c5.33301 -23.333 16.166 -42.833 32.499 -58.5s36.166 -23.5 59.499 -23.5c28 0 48.167 9.16699 60.5 27.5s18.5 40.166 18.5 65.499v520h136v-508c0 -73.333 -18.5 -130.333 -55.5 -171
s-89.5 -61 -157.5 -61z" />
    <glyph glyph-name="K" unicode="K" horiz-adv-x="618" 
d="M257 351l-79 -98v-253h-136v730h136v-299l241 299h165l-231 -284l252 -446h-155z" />
    <glyph glyph-name="L" unicode="L" horiz-adv-x="481" 
d="M42 730h136v-600h267v-130h-403v730z" />
    <glyph glyph-name="M" unicode="M" horiz-adv-x="798" 
d="M42 730h135l221 -307l230 307h129v-730h-136v512l-224 -302l-219 297v-507h-136v730z" />
    <glyph glyph-name="N" unicode="N" horiz-adv-x="690" 
d="M42 730h154l316 -497v497h136v-730h-145l-325 513v-513h-136v730z" />
    <glyph glyph-name="O" unicode="O" horiz-adv-x="790" 
d="M395 -10c-52 0 -100.667 9.83301 -146 29.5s-84.833 46.334 -118.5 80.001s-60.167 73.334 -79.5 119.001s-29 94.5 -29 146.5s9.66699 100.667 29 146s45.833 85 79.5 119s73.167 60.833 118.5 80.5s94 29.5 146 29.5s100.667 -9.83301 146 -29.5s85 -46.5 119 -80.5
s60.667 -73.667 80 -119s29 -94 29 -146s-9.66699 -100.833 -29 -146.5s-46 -85.334 -80 -119.001s-73.667 -60.334 -119 -80.001s-94 -29.5 -146 -29.5zM395 124c33.333 0 64.5 6.33301 93.5 19s54.333 29.834 76 51.501s38.667 47.167 51 76.5s18.5 60.666 18.5 93.999
s-6.16699 64.666 -18.5 93.999s-29.333 54.833 -51 76.5s-47 38.834 -76 51.501s-60.167 19 -93.5 19s-64.5 -6.33301 -93.5 -19s-54.167 -29.834 -75.5 -51.501s-38.166 -47.167 -50.499 -76.5s-18.5 -60.666 -18.5 -93.999s6.16699 -64.666 18.5 -93.999
s29.166 -54.833 50.499 -76.5s46.5 -38.834 75.5 -51.501s60.167 -19 93.5 -19z" />
    <glyph glyph-name="P" unicode="P" horiz-adv-x="581" 
d="M42 730h249.999c38 0 73 -6.83301 105 -20.5s59.667 -32.167 83 -55.5s41.666 -50.833 54.999 -82.5s20 -65.5 20 -101.5s-6.66699 -70 -20 -102s-31.666 -59.667 -54.999 -83s-51.166 -41.833 -83.499 -55.5s-67.5 -20.5 -105.5 -20.5h-113v-209h-136v730zM177.999 604
v-268.999h104c20 0 38.333 3.5 55 10.5s31 16.667 43 29s21.333 26.666 28 42.999s10 33.833 10 52.5s-3.33301 36.167 -10 52.5s-16 30.5 -28 42.5s-26.333 21.5 -43 28.5s-35 10.5 -55 10.5h-104z" />
    <glyph glyph-name="Q" unicode="Q" horiz-adv-x="790" 
d="M342 359l163 -0.00195312l92 -120c11.333 18.667 20.333 38.5 27 59.5s10 43.167 10 66.5c0 33.333 -6.16699 64.666 -18.5 93.999s-29.333 54.833 -51 76.5s-47 38.834 -76 51.501s-60.167 19 -93.5 19s-64.5 -6.33301 -93.5 -19s-54.167 -29.834 -75.5 -51.501
s-38.166 -47.167 -50.499 -76.5s-18.5 -60.666 -18.5 -93.999s6.16699 -64.666 18.5 -93.999s29.166 -54.833 50.499 -76.5s46.5 -38.834 75.5 -51.501s60.167 -19 93.5 -19c24 0 47.667 3.66699 71 11l85 -111c-49.333 -22.667 -101.333 -34 -156 -34
c-52 0 -100.667 9.83301 -146 29.5s-84.833 46.334 -118.5 80.001s-60.167 73.334 -79.5 119.001s-29 94.5 -29 146.5s9.66699 100.667 29 146s45.833 85 79.5 119s73.167 60.833 118.5 80.5s94 29.5 146 29.5s100.667 -9.83301 146 -29.5s85 -46.5 119 -80.5
s60.667 -73.667 80 -119s29 -94 29 -146c0 -46 -7.5 -89 -22.5 -129s-35.5 -76.333 -61.5 -109l98 -127h-166z" />
    <glyph glyph-name="R" unicode="R" horiz-adv-x="584" 
d="M42 0l0.000976562 729.998h234c43.333 0 81.833 -6.16699 115.5 -18.5s62.167 -29.666 85.5 -51.999s41.166 -49 53.499 -80s18.5 -65.5 18.5 -103.5c0 -44 -10.5 -85.167 -31.5 -123.5s-51.5 -68.166 -91.5 -89.499l146 -263h-155l-117 223h-122v-223h-136z
M264.001 347.998c28 0 51.5 3.5 70.5 10.5s34.333 16.667 46 29s20 26.5 25 42.5s7.5 33 7.5 51c0 37.333 -11.833 67 -35.5 89s-61.5 33 -113.5 33h-86v-255h86z" />
    <glyph glyph-name="S" unicode="S" horiz-adv-x="563" 
d="M288 -10c-66 0 -121.671 12.498 -167.004 37.498s-84.666 56.167 -117.999 93.5l124 98c18.667 -32 41.667 -56.5 69 -73.5s57.666 -25.5 90.999 -25.5c36 0 63.5 10 82.5 30s28.5 42.667 28.5 68c0 15.333 -4.33301 28.333 -13 39s-20 19.834 -34 27.501
s-30.167 14.5 -48.5 20.5l-56.5 18c-24.667 8 -49.334 16.667 -74.001 26s-46.834 21.833 -66.501 37.5s-35.667 35 -48 58s-18.5 51.833 -18.5 86.5c0 29.333 6 56.666 18 81.999s28.833 47.5 50.5 66.5s47.334 33.833 77.001 44.5s61.834 16 96.501 16
c29.333 0 55.833 -2.66699 79.5 -8s45.334 -12.666 65.001 -21.999s37.667 -20.5 54 -33.5s31.833 -27.167 46.5 -42.5l-112 -85c-31.333 46.667 -75.333 70 -132 70c-33.333 0 -58.666 -8 -75.999 -24s-26 -35.667 -26 -59c0 -14.667 4 -27 12 -37
s18.833 -18.833 32.5 -26.5s29.5 -14.5 47.5 -20.5l57 -19c24.667 -8 49.5 -17.167 74.5 -27.5s47.667 -23.666 68 -39.999s36.833 -36.333 49.5 -60s19 -53.167 19 -88.5c0 -28.667 -5.66699 -56.667 -17 -84s-27.666 -51.5 -48.999 -72.5s-47.666 -38 -78.999 -51
s-67 -19.5 -107 -19.5z" />
    <glyph glyph-name="T" unicode="T" horiz-adv-x="579" 
d="M221 600h-195v130h527v-130h-196v-600h-136v600z" />
    <glyph glyph-name="U" unicode="U" horiz-adv-x="608" 
d="M304 -10c-38 0 -73 5.66699 -105 17s-59.833 28 -83.5 50s-42 49.333 -55 82s-19.5 70.334 -19.5 113.001v478h136v-486c0 -18 3.16699 -34.833 9.5 -50.5s15.166 -29.167 26.499 -40.5s24.666 -20.333 39.999 -27s32 -10 50 -10s34.667 3.33301 50 10
s28.833 15.667 40.5 27s20.834 24.833 27.501 40.5s10 32.5 10 50.5v486h136v-478c0 -42.667 -6.66699 -80.334 -20 -113.001s-31.666 -60 -54.999 -82s-51 -38.667 -83 -50s-67 -17 -105 -17z" />
    <glyph glyph-name="V" unicode="V" horiz-adv-x="657" 
d="M15 730h141l173 -522l172 522h141l-245 -730h-137z" />
    <glyph glyph-name="W" unicode="W" horiz-adv-x="1023" 
d="M14 730h142l138 -511l153 511h134l152 -509l137 509h137l-206 -730h-135l-153 515l-153 -515h-138z" />
    <glyph glyph-name="X" unicode="X" horiz-adv-x="630" 
d="M315 251l-151 -251h-153l223 369l-218 361h152l147 -243l147 243h153l-220 -361l224 -369h-152z" />
    <glyph glyph-name="Y" unicode="Y" horiz-adv-x="629" 
d="M245 346l-232 384h150l151 -253l152 253h150l-235 -387v-343h-136v346z" />
    <glyph glyph-name="Z" unicode="Z" horiz-adv-x="556" 
d="M36 125l323 475h-312v130h472v-124l-323 -476h323v-130h-483v125z" />
    <glyph glyph-name="bracketleft" unicode="[" horiz-adv-x="345" 
d="M36 730h273v-130h-137v-700h137v-130h-273v960z" />
    <glyph glyph-name="backslash" unicode="\" horiz-adv-x="511" 
d="M11 730h144l346 -730h-144z" />
    <glyph glyph-name="bracketright" unicode="]" horiz-adv-x="345" 
d="M36 -100h137v700h-137v130h273v-960h-273v130z" />
    <glyph glyph-name="asciicircum" unicode="^" horiz-adv-x="472" 
d="M194 719h84l119 -170h-101l-60 89l-59 -89h-102z" />
    <glyph glyph-name="underscore" unicode="_" horiz-adv-x="447" 
d="M36 -10h375v-115h-375v115z" />
    <glyph glyph-name="grave" unicode="`" horiz-adv-x="472" 
d="M105 720h127l114 -170h-91z" />
    <glyph glyph-name="a" unicode="a" horiz-adv-x="671" 
d="M308 -12c-35.333 0 -70.1699 6.83203 -104.503 20.499s-65.166 33.5 -92.499 59.5s-49.333 57.833 -66 95.5s-25 80.5 -25 128.5c0 48.667 8.16699 91.834 24.5 129.501s38 69.5 65 95.5s58 45.833 93 59.5s70.833 20.5 107.5 20.5c38.667 0 74.334 -7.33301 107.001 -22
s59.667 -34.667 81 -60v70h135v-585h-135v76c-21.333 -27.333 -48.666 -48.833 -81.999 -64.5s-69.333 -23.5 -108 -23.5zM329.996 111.999c25.333 0 48.666 4.66504 69.999 13.998s39.666 22.333 54.999 39s27.5 36 36.5 58s13.5 45.667 13.5 71c0 24.667 -4.5 48 -13.5 70
s-21.167 41.167 -36.5 57.5s-33.666 29.166 -54.999 38.499s-44.666 14 -69.999 14c-24.667 0 -47.834 -4.66699 -69.501 -14s-40.5 -22 -56.5 -38s-28.5 -35 -37.5 -57s-13.5 -45.667 -13.5 -71s4.5 -49.166 13.5 -71.499s21.5 -41.666 37.5 -57.999
s34.833 -29.166 56.5 -38.499s44.834 -14 69.501 -14z" />
    <glyph glyph-name="b" unicode="b" horiz-adv-x="668" 
d="M365 -12c-40 0 -76.6699 7.66797 -110.003 23.001s-60.666 37 -81.999 65v-76h-134v740h135v-229c20.667 26 47.5 46.833 80.5 62.5s69.167 23.5 108.5 23.5c36.667 0 72.334 -6.83301 107.001 -20.5s65.334 -33.5 92.001 -59.5s48.167 -57.833 64.5 -95.5
s24.5 -80.834 24.5 -129.501c0 -48 -8.33301 -90.833 -25 -128.5s-38.5 -69.5 -65.5 -95.5s-57.5 -45.833 -91.5 -59.5s-68.667 -20.5 -104 -20.5zM341.997 112.001c24.667 0 47.667 4.66895 69 14.002s40 22.166 56 38.499s28.5 35.666 37.5 57.999
s13.5 46.166 13.5 71.499s-4.5 49 -13.5 71s-21.5 41 -37.5 57s-34.667 28.667 -56 38s-44.333 14 -69 14s-47.667 -4.66699 -69 -14s-39.833 -22.166 -55.5 -38.499s-27.834 -35.5 -36.501 -57.5s-13 -45.333 -13 -70c0 -25.333 4.33301 -49 13 -71
s20.834 -41.333 36.501 -58s34.167 -29.667 55.5 -39s44.333 -14 69 -14z" />
    <glyph glyph-name="c" unicode="c" horiz-adv-x="617" 
d="M324 -12c-42.667 0 -82.5 8.00098 -119.5 24.001s-69.167 37.667 -96.5 65s-48.833 59.5 -64.5 96.5s-23.5 76.5 -23.5 118.5c0 42.667 7.83301 82.5 23.5 119.5s37.167 69.333 64.5 97s59.5 49.334 96.5 65.001s76.833 23.5 119.5 23.5c32.667 0 63.5 -4.5 92.5 -13.5
s55.5 -21.5 79.5 -37.5s45 -35 63 -57s32.667 -46.333 44 -73l-121 -51c-13.333 32 -33.833 57.5 -61.5 76.5s-59.5 28.5 -95.5 28.5c-24.667 0 -47.5 -4.66699 -68.5 -14s-39.333 -22 -55 -38s-27.834 -34.833 -36.501 -56.5s-13 -44.834 -13 -69.501
c0 -24 4.33301 -46.833 13 -68.5s20.834 -40.5 36.501 -56.5s34.167 -28.667 55.5 -38s44.333 -14 69 -14c38 0 70.5 10.167 97.5 30.5s47.167 46.5 60.5 78.5l121 -52c-11.333 -26.667 -26 -51.334 -44 -74.001s-38.833 -42.167 -62.5 -58.5s-50.167 -29 -79.5 -38
s-61 -13.5 -95 -13.5z" />
    <glyph glyph-name="d" unicode="d" horiz-adv-x="671" 
d="M308 -12c-35.333 0 -70.1689 6.83105 -104.502 20.498s-65.166 33.5 -92.499 59.5s-49.333 57.833 -66 95.5s-25 80.5 -25 128.5c0 48.667 8.16699 91.834 24.5 129.501s38 69.5 65 95.5s58 45.833 93 59.5s70.833 20.5 107.5 20.5c38 0 73.333 -7.16699 106 -21.5
s59.667 -34.166 81 -59.499v224h136v-740h-135v76c-21.333 -27.333 -48.666 -48.833 -81.999 -64.5s-69.333 -23.5 -108 -23.5zM329.997 111.998c25.333 0 48.666 4.66504 69.999 13.998s39.666 22.333 54.999 39s27.5 36 36.5 58s13.5 45.667 13.5 71
c0 24.667 -4.5 48 -13.5 70s-21.167 41.167 -36.5 57.5s-33.666 29.166 -54.999 38.499s-44.666 14 -69.999 14c-24.667 0 -47.834 -4.66699 -69.501 -14s-40.5 -22 -56.5 -38s-28.5 -35 -37.5 -57s-13.5 -45.667 -13.5 -71s4.5 -49.166 13.5 -71.499
s21.5 -41.666 37.5 -57.999s34.833 -29.166 56.5 -38.499s44.834 -14 69.501 -14z" />
    <glyph glyph-name="e" unicode="e" 
d="M329 -12c-46 0 -87.999 7.83301 -125.999 23.5s-70.5 37.167 -97.5 64.5s-48 59.5 -63 96.5s-22.5 76.5 -22.5 118.5c0 42.667 7.83301 82.667 23.5 120s37.167 69.666 64.5 96.999s59.5 49 96.5 65s76.833 24 119.5 24c43.333 0 83.5 -7.5 120.5 -22.5
s68.833 -36 95.5 -63s47.5 -58.833 62.5 -95.5s22.5 -76.667 22.5 -120v-51h-476c9.33301 -41.333 29.666 -74.666 60.999 -99.999s71 -38 119 -38c38 0 71 9.33301 99 28s49 43.667 63 75l111 -64c-25.333 -47.333 -60.833 -85.5 -106.5 -114.5
s-101.167 -43.5 -166.5 -43.5zM324.001 478c-40.667 0 -75.833 -10.999 -105.5 -32.999s-50.5 -51 -62.5 -87h332c-10 39.333 -29.333 69.166 -58 89.499s-64 30.5 -106 30.5z" />
    <glyph glyph-name="f" unicode="f" horiz-adv-x="391" 
d="M17 585l98.999 -0.00195312v1c0 42 4.5 77.833 13.5 107.5s23.167 53.834 42.5 72.501s44.5 32.334 75.5 41.001s68.833 13 113.5 13h12v-125c-26.667 0 -48 -1.66699 -64 -5s-28.167 -9.33301 -36.5 -18s-13.666 -20 -15.999 -34s-3.5 -31.667 -3.5 -53h120v-121h-120
v-464h-137v464h-99v121z" />
    <glyph glyph-name="g" unicode="g" horiz-adv-x="673" 
d="M499 78c-21.333 -28 -48.6709 -50 -82.0039 -66s-69.666 -24 -108.999 -24c-35.333 0 -70.166 6.83301 -104.499 20.5s-65.166 33.5 -92.499 59.5s-49.333 57.833 -66 95.5s-25 80.5 -25 128.5c0 48.667 8.16699 91.834 24.5 129.501s38 69.5 65 95.5s58 45.833 93 59.5
s70.833 20.5 107.5 20.5c38.667 0 74.334 -7.83301 107.001 -23.5s59.667 -36.834 81 -63.501v75h135v-570c0 -41.333 -6.5 -80 -19.5 -116s-32.167 -67.5 -57.5 -94.5s-56.833 -48.333 -94.5 -64s-81.167 -23.5 -130.5 -23.5c-38 0 -72.5 4.16699 -103.5 12.5
s-58.833 20 -83.5 35s-46.334 32.667 -65.001 53s-34.667 42.833 -48 67.5l120 73c21.333 -39.333 45.333 -68.666 72 -87.999s63.334 -29 110.001 -29c25.333 0 48.333 4.66699 69 14s38.167 21.666 52.5 36.999s25.333 33.333 33 54s11.5 42 11.5 64v68zM329.995 112
c25.333 0 48.666 4.66504 69.999 13.998s39.666 22.333 54.999 39s27.5 36 36.5 58s13.5 45.667 13.5 71c0 24.667 -4.5 48 -13.5 70s-21.167 41.167 -36.5 57.5s-33.666 29.166 -54.999 38.499s-44.666 14 -69.999 14c-24.667 0 -47.834 -4.66699 -69.501 -14
s-40.5 -22 -56.5 -38s-28.5 -35 -37.5 -57s-13.5 -45.667 -13.5 -71s4.5 -49.166 13.5 -71.499s21.5 -41.666 37.5 -57.999s34.833 -29.166 56.5 -38.499s44.834 -14 69.501 -14z" />
    <glyph glyph-name="h" unicode="h" horiz-adv-x="619" 
d="M39 740h135.001v-225c20 25.333 44.833 45.333 74.5 60s63.167 22 100.5 22c72.667 0 129.5 -22 170.5 -66s61.5 -105.333 61.5 -184v-347h-138v332c0 46 -11 82.167 -33 108.5s-55 39.5 -99 39.5c-18.667 0 -36.334 -3.5 -53.001 -10.5s-31.167 -17.167 -43.5 -30.5
s-22 -30 -29 -50s-10.5 -42.667 -10.5 -68v-321h-136v740z" />
    <glyph glyph-name="i" unicode="i" horiz-adv-x="214" 
d="M39 585h136v-585h-136v585zM22 728c0 25.333 7.66699 45.833 23 61.5s36 23.5 62 23.5c26.667 0 47.5 -7.83301 62.5 -23.5s22.5 -36.167 22.5 -61.5s-7.5 -45.666 -22.5 -60.999s-35.833 -23 -62.5 -23c-27.333 0 -48.333 7.66699 -63 23s-22 35.666 -22 60.999z" />
    <glyph glyph-name="j" unicode="j" horiz-adv-x="213" 
d="M-82 -142c26 0 46.999 1.33398 62.999 4.00098s28.333 8.16699 37 16.5s14.334 20.166 17.001 35.499s4 36 4 62v609h136v-610c0 -46 -4 -84.667 -12 -116s-21.333 -56.5 -40 -75.5s-43.167 -32.5 -73.5 -40.5s-67.833 -12 -112.5 -12h-19v127zM21.999 728.001
c0 25.333 7.66699 45.833 23 61.5s36 23.5 62 23.5c26.667 0 47.5 -7.83301 62.5 -23.5s22.5 -36.167 22.5 -61.5s-7.5 -45.666 -22.5 -60.999s-35.833 -23 -62.5 -23c-27.333 0 -48.333 7.66699 -63 23s-22 35.666 -22 60.999z" />
    <glyph glyph-name="k" unicode="k" horiz-adv-x="601" 
d="M39 740h135v-437l249 282h162l-226 -253l234 -332h-151l-175 252l-93 -103v-149h-135v740z" />
    <glyph glyph-name="l" unicode="l" horiz-adv-x="214" 
d="M39 740h136v-740h-136v740z" />
    <glyph glyph-name="m" unicode="m" horiz-adv-x="998" 
d="M39 585l134.002 -0.000976562v-68c18.667 24.667 42.167 44.167 70.5 58.5s60.5 21.5 96.5 21.5c46 0 84.833 -8.83301 116.5 -26.5s56.167 -42.5 73.5 -74.5c20 30.667 46.5 55.167 79.5 73.5s70.5 27.5 112.5 27.5c78.667 0 138 -21.833 178 -65.5s60 -103.5 60 -179.5
v-352h-138v341c0 42.667 -10.667 76.5 -32 101.5s-53 37.5 -95 37.5c-36.667 0 -67.334 -12.667 -92.001 -38s-37 -63.666 -37 -114.999v-327h-137v345c0 42 -10.333 75 -31 99s-51.334 36 -92.001 36c-38 0 -69.5 -13 -94.5 -39s-37.5 -65 -37.5 -117v-324h-135v585z" />
    <glyph glyph-name="n" unicode="n" horiz-adv-x="619" 
d="M39 585l134 0.000976562v-72c19.333 25.333 43.833 45.666 73.5 60.999s63.5 23 101.5 23c72.667 0 129.5 -22 170.5 -66s61.5 -105.333 61.5 -184v-347h-137v333c0 45.333 -11 81.166 -33 107.499s-55 39.5 -99 39.5c-38.667 0 -71.167 -13.667 -97.5 -41
s-39.5 -66.666 -39.5 -117.999v-321h-135v585z" />
    <glyph glyph-name="o" unicode="o" 
d="M323 -12c-42 0 -81.5 7.83301 -118.5 23.5s-69.167 37.334 -96.5 65.001s-48.833 60 -64.5 97s-23.5 76.5 -23.5 118.5c0 42.667 7.83301 82.5 23.5 119.5s37.167 69.333 64.5 97s59.5 49.334 96.5 65.001s76.5 23.5 118.5 23.5s81.333 -7.83301 118 -23.5
s68.834 -37.334 96.501 -65.001s49.334 -60 65.001 -97s23.5 -76.833 23.5 -119.5c0 -42 -7.83301 -81.5 -23.5 -118.5s-37.334 -69.333 -65.001 -97s-59.834 -49.334 -96.501 -65.001s-76 -23.5 -118 -23.5zM323 115c24 0 46.333 4.66699 67 14s38.667 22 54 38
s27.333 34.833 36 56.5s13 44.5 13 68.5c0 24.667 -4.33301 47.834 -13 69.501s-20.667 40.5 -36 56.5s-33.333 28.667 -54 38s-43 14 -67 14s-46.5 -4.66699 -67.5 -14s-39 -22 -54 -38s-26.833 -34.833 -35.5 -56.5s-13 -44.834 -13 -69.501
c0 -24 4.33301 -46.833 13 -68.5s20.5 -40.5 35.5 -56.5s33 -28.667 54 -38s43.5 -14 67.5 -14z" />
    <glyph glyph-name="p" unicode="p" horiz-adv-x="668" 
d="M364 -12c-40 0 -76.6699 7.00195 -110.003 21.002s-60.333 34 -81 60v-338h-134v854h134v-78c20.667 27.333 47.5 49.166 80.5 65.499s69.5 24.5 109.5 24.5c36.667 0 72.334 -6.83301 107.001 -20.5s65.334 -33.5 92.001 -59.5s48.167 -57.833 64.5 -95.5
s24.5 -80.834 24.5 -129.501c0 -48 -8.33301 -90.833 -25 -128.5s-38.5 -69.5 -65.5 -95.5s-57.667 -45.833 -92 -59.5s-69.166 -20.5 -104.499 -20.5zM341.997 112.002c24.667 0 47.667 4.66895 69 14.002s40 22.166 56 38.499s28.5 35.666 37.5 57.999
s13.5 46.166 13.5 71.499s-4.5 49 -13.5 71s-21.5 41 -37.5 57s-34.667 28.667 -56 38s-44.333 14 -69 14c-25.333 0 -48.666 -4.66699 -69.999 -14s-39.666 -22.166 -54.999 -38.499s-27.333 -35.5 -36 -57.5s-13 -45.333 -13 -70c0 -25.333 4.33301 -49 13 -71
s20.667 -41.333 36 -58s33.666 -29.667 54.999 -39s44.666 -14 69.999 -14z" />
    <glyph glyph-name="q" unicode="q" horiz-adv-x="671" 
d="M308 -12c-35.333 0 -70.1689 6.83301 -104.502 20.5s-65.166 33.5 -92.499 59.5s-49.333 57.833 -66 95.5s-25 80.5 -25 128.5c0 48.667 8.16699 91.834 24.5 129.501s38 69.5 65 95.5s58 45.833 93 59.5s70.833 20.5 107.5 20.5c38.667 0 74.334 -7.83301 107.001 -23.5
s59.667 -36.834 81 -63.501v75h135v-854h-136v337c-21.333 -25.333 -48.333 -45 -81 -59s-68.667 -21 -108 -21zM329.997 112c25.333 0 48.666 4.66504 69.999 13.998s39.666 22.333 54.999 39s27.5 36 36.5 58s13.5 45.667 13.5 71c0 24.667 -4.5 48 -13.5 70
s-21.167 41.167 -36.5 57.5s-33.666 29.166 -54.999 38.499s-44.666 14 -69.999 14c-24.667 0 -47.834 -4.66699 -69.501 -14s-40.5 -22 -56.5 -38s-28.5 -35 -37.5 -57s-13.5 -45.667 -13.5 -71s4.5 -49.166 13.5 -71.499s21.5 -41.666 37.5 -57.999
s34.833 -29.166 56.5 -38.499s44.834 -14 69.501 -14z" />
    <glyph glyph-name="r" unicode="r" horiz-adv-x="431" 
d="M39 585h133.998v-87c27.333 58 77.333 87 150 87c21.333 0 40.5 -2.33301 57.5 -7s32.167 -10.667 45.5 -18l-51 -128c-10 6.66699 -21.167 12.167 -33.5 16.5s-28.166 6.5 -47.499 6.5c-39.333 0 -69.166 -11.167 -89.499 -33.5s-30.5 -58.833 -30.5 -109.5v-312h-135
v585z" />
    <glyph glyph-name="s" unicode="s" horiz-adv-x="518" 
d="M259 -12c-64.667 0 -118.335 12.165 -161.002 36.498s-75.667 59.5 -99 105.5l125 60c14 -27.333 33 -48.333 57 -63s52 -22 84 -22c33.333 0 58.333 7 75 21s25 30.667 25 50c0 10.667 -3.83301 19.334 -11.5 26.001s-17.667 12.5 -30 17.5s-26.833 9.16699 -43.5 12.5
s-34 7 -52 11c-25.333 5.33301 -50.166 11.666 -74.499 18.999s-46.166 17.5 -65.499 30.5s-35 29.667 -47 50s-18 45.833 -18 76.5c0 23.333 5.5 45.833 16.5 67.5s26.5 40.834 46.5 57.501s44.167 29.834 72.5 39.501s59.833 14.5 94.5 14.5
c58.667 0 107.5 -10.833 146.5 -32.5s69.833 -51.167 92.5 -88.5l-115 -58c-12 20.667 -28.667 37 -50 49s-46 18 -74 18c-32 0 -55.667 -6.33301 -71 -19s-23 -27.334 -23 -44.001c0 -19.333 11.333 -33.166 34 -41.499s56 -17.166 100 -26.499
c24 -4.66699 48.167 -10.834 72.5 -18.501s46.5 -18 66.5 -31s36.167 -29.667 48.5 -50s18.5 -45.833 18.5 -76.5c0 -20.667 -4.66699 -42.167 -14 -64.5s-23.833 -43 -43.5 -62s-44.5 -34.5 -74.5 -46.5s-66 -18 -108 -18z" />
    <glyph glyph-name="t" unicode="t" horiz-adv-x="399" 
d="M18 585h99.999v89l136 93v-182h119v-121h-119v-219c0 -25.333 1.33301 -45.833 4 -61.5s8.16699 -27.667 16.5 -36s20.333 -13.833 36 -16.5s36.5 -4 62.5 -4v-127h-19c-45.333 0 -83.166 4 -113.499 12s-54.5 21.5 -72.5 40.5s-30.833 44 -38.5 75
s-11.5 69.833 -11.5 116.5v220h-100v121z" />
    <glyph glyph-name="u" unicode="u" horiz-adv-x="605" 
d="M566 0h-134.001v67c-18.667 -24.667 -42 -44 -70 -58s-60.667 -21 -98 -21c-69.333 0 -124.166 22 -164.499 66s-60.5 105.333 -60.5 184v347h137v-333c0 -45.333 10.167 -81.166 30.5 -107.499s51.833 -39.5 94.5 -39.5c37.333 0 68.333 13.667 93 41
s37 66.666 37 117.999v321h135v-585z" />
    <glyph glyph-name="v" unicode="v" horiz-adv-x="599" 
d="M9 585h141l151 -412l148 412h139l-220 -585h-136z" />
    <glyph glyph-name="w" unicode="w" horiz-adv-x="995" 
d="M18 585h138l129 -403l147 403h134l144 -404l134 404h137l-205 -585h-130l-148 405l-152 -405h-133z" />
    <glyph glyph-name="x" unicode="x" horiz-adv-x="614" 
d="M225 298l-212 287h165l133 -186l132 186h160l-210 -289l224 -296h-165l-143 195l-139 -195h-165z" />
    <glyph glyph-name="y" unicode="y" horiz-adv-x="618" 
d="M246 29l-240 556h144l163 -394l154 394h142l-349 -855h-137z" />
    <glyph glyph-name="z" unicode="z" horiz-adv-x="577" 
d="M28 123l340 342h-333v120h509v-123l-340 -342h346v-120h-522v123z" />
    <glyph glyph-name="braceleft" unicode="{" horiz-adv-x="372" 
d="M335 -230c-42 0 -77.001 3.65918 -105.001 10.9922s-50.5 19.5 -67.5 36.5s-29.167 39.333 -36.5 67s-11 61.834 -11 102.501v97c0 19.333 -1 35.5 -3 48.5s-6.16699 23.333 -12.5 31s-15.666 13.167 -27.999 16.5s-29.166 5 -50.499 5v125
c21.333 0 38.166 1.5 50.499 4.5s21.666 8.33301 27.999 16s10.5 18 12.5 31s3 29.167 3 48.5v103c0 40.667 3.66699 74.834 11 102.501s19.5 50 36.5 67s39.5 29.167 67.5 36.5s63 11 105 11h11v-125c-21.333 0 -38.5 -1.16699 -51.5 -3.5s-22.833 -6.66602 -29.5 -12.999
s-11 -15.666 -13 -27.999s-3 -28.5 -3 -48.5v-103c0 -42 -5.66699 -76.167 -17 -102.5s-30.666 -46.166 -57.999 -59.499c28 -13.333 47.5 -33.166 58.5 -59.499s16.5 -60.5 16.5 -102.5v-97c0 -20 1 -36.167 3 -48.5s6.33301 -21.666 13 -27.999s16.5 -10.666 29.5 -12.999
s30.167 -3.5 51.5 -3.5v-125h-11z" />
    <glyph glyph-name="bar" unicode="|" horiz-adv-x="209" 
d="M36 730h136v-960h-136v960z" />
    <glyph glyph-name="braceright" unicode="}" horiz-adv-x="372" 
d="M26 -105c21.333 0 38.5 1.1748 51.5 3.50781s22.833 6.66602 29.5 12.999s11 15.666 13 27.999s3 28.5 3 48.5v97c0 42 5.5 76.167 16.5 102.5s30.5 46.166 58.5 59.499c-28 13.333 -47.5 33.166 -58.5 59.499s-16.5 60.5 -16.5 102.5v103c0 20 -1 36.167 -3 48.5
s-6.33301 21.666 -13 27.999s-16.5 10.666 -29.5 12.999s-30.167 3.5 -51.5 3.5v125h11c42 0 77 -3.66699 105 -11s50.5 -19.5 67.5 -36.5s29.167 -39.333 36.5 -67s11 -61.834 11 -102.501v-103c0 -19.333 1 -35.5 3 -48.5s6.16699 -23.333 12.5 -31s15.833 -13 28.5 -16
s29.334 -4.5 50.001 -4.5v-125c-20.667 0 -37.334 -1.66699 -50.001 -5s-22.167 -8.83301 -28.5 -16.5s-10.5 -18 -12.5 -31s-3 -29.167 -3 -48.5v-97c0 -40.667 -3.66699 -74.834 -11 -102.501s-19.5 -50 -36.5 -67s-39.5 -29.167 -67.5 -36.5s-63 -11 -105 -11h-11v125z
" />
    <glyph glyph-name="asciitilde" unicode="~" horiz-adv-x="471" 
d="M63 574c0 40.667 9.16699 73.166 27.5 97.499s44.166 36.5 77.499 36.5c16.667 0 31 -2.5 43 -7.5s23 -10.5 33 -16.5l26.5 -16.5c8.33301 -5 16.833 -7.5 25.5 -7.5c18.667 0 28 14.667 28 44h78c0 -40.667 -8.66699 -73.167 -26 -97.5s-43.666 -36.5 -78.999 -36.5
c-19.333 0 -35.833 3.33301 -49.5 10s-26.167 13.334 -37.5 20.001c-7.33301 4.66699 -14.333 8.66699 -21 12s-13.667 5 -21 5c-17.333 0 -26 -14.333 -26 -43h-79z" />
    <glyph glyph-name="exclamdown" unicode="&#xa1;" horiz-adv-x="209" 
d="M37 -113c0 33.333 0.828125 68.166 2.49512 104.499s3.83398 72.5 6.50098 108.5s5.83398 71.333 9.50098 106s7.83398 67 12.501 97h73c4.66699 -30 8.83398 -62.333 12.501 -97s6.83398 -70 9.50098 -106s4.66699 -72.167 6 -108.5s2 -71.166 2 -104.499v-117h-134v117
zM21.9951 430c0 24.667 7.33301 44.5 22 59.5s34.667 22.5 60 22.5s45.166 -7.5 59.499 -22.5s21.5 -34.833 21.5 -59.5c0 -24 -7.33301 -43.5 -22 -58.5s-34.667 -22.5 -60 -22.5s-45.166 7.5 -59.499 22.5s-21.5 34.5 -21.5 58.5z" />
    <glyph glyph-name="cent" unicode="&#xa2;" horiz-adv-x="588" 
d="M234 0c-29.333 8 -56.499 20.334 -81.499 37.001s-46.5 36.667 -64.5 60s-32 49.333 -42 78s-15 59 -15 91s5.16699 62.333 15.5 91s24.5 54.667 42.5 78s39.333 43.333 64 60s51.667 29 81 37v131h136v-128c45.333 -9.33301 84.5 -28.166 117.5 -56.499
s58.167 -62.833 75.5 -103.5l-121 -52c-11.333 28 -29 50.333 -53 67s-51.667 25 -83 25c-20.667 0 -39.834 -3.83301 -57.501 -11.5s-33 -18.334 -46 -32.001s-23.333 -29.5 -31 -47.5s-11.5 -37.333 -11.5 -58s3.83301 -40 11.5 -58s18 -33.833 31 -47.5
s28.5 -24.334 46.5 -32.001s37.333 -11.5 58 -11.5c31.333 0 58.833 8.5 82.5 25.5s41.167 38.833 52.5 65.5l121 -51c-17.333 -40 -42.5 -74.333 -75.5 -103s-72.167 -47.667 -117.5 -57v-127h-136v130z" />
    <glyph glyph-name="sterling" unicode="&#xa3;" horiz-adv-x="588" 
d="M54 436l56.001 0.00195312c-5.33301 14.667 -9.66602 30 -12.999 46s-5 32.667 -5 50c0 31.333 5.16699 59.833 15.5 85.5s25.166 47.5 44.499 65.5s42.666 32 69.999 42s58 15 92 15c61.333 0 110.333 -13.167 147 -39.5s62 -61.833 76 -106.5l-129 -47
c-6.66699 23.333 -17.334 41.666 -32.001 54.999s-34.667 20 -60 20c-28.667 0 -50.167 -8.33301 -64.5 -25s-21.5 -37.667 -21.5 -63c0 -17.333 2.5 -34 7.5 -50s11.167 -32 18.5 -48h193v-107h-142c10 -23.333 18.5 -47.666 25.5 -72.999s10.5 -53.666 10.5 -84.999
c0 -17.333 -2.66699 -35 -8 -53c7.33301 -6 14 -10.833 20 -14.5s11.667 -5.5 17 -5.5c13.333 0 21.833 4 25.5 12s5.5 23.333 5.5 46v81h139v-77c0 -30 -2.16699 -55.667 -6.5 -77s-11.666 -38.833 -21.999 -52.5s-24.333 -23.834 -42 -30.501s-39.5 -10 -65.5 -10
c-23.333 0 -44.333 4.5 -63 13.5s-36 20.167 -52 33.5c-13.333 -14.667 -29 -26.334 -47 -35.001s-37.667 -13 -59 -13c-52 0 -90.333 10.167 -115 30.5s-37 48.166 -37 83.499c0 33.333 11 61.333 33 84s53 34 93 34c16 0 31 -2.16699 45 -6.5s27 -10.166 39 -17.499
c-4 21.333 -13.167 42.666 -27.5 63.999l-46.5 68h-115v107zM177.001 81.002c16.667 0 30.335 6 41.002 18c-8.66699 6.66699 -17 12 -25 16s-16.333 6 -25 6c-6.66699 0 -11.834 -1.83301 -15.501 -5.5s-5.5 -8.16699 -5.5 -13.5c0 -6 2.66699 -11 8 -15
s12.666 -6 21.999 -6z" />
    <glyph glyph-name="currency" unicode="&#xa4;" horiz-adv-x="773" 
d="M390 102c-47.333 0 -90.665 11.3301 -129.998 33.9971l-127 -130l-98 96l129 131c-10.667 19.333 -18.834 39.833 -24.501 61.5s-8.5 44.167 -8.5 67.5s3 46 9 68s14.667 42.667 26 62l-133 140l99 93l131 -136c18.667 10.667 38.667 18.834 60 24.501
s43.666 8.5 66.999 8.5s45.5 -2.83301 66.5 -8.5s40.833 -13.5 59.5 -23.5l124 127l98 -95l-125 -128c11.333 -19.333 20.166 -40.166 26.499 -62.499s9.5 -45.5 9.5 -69.5c0 -24.667 -3.16699 -48.167 -9.5 -70.5s-15.166 -43.166 -26.499 -62.499l125 -131l-98 -95
l-126 130c-38 -20.667 -79.333 -31 -124 -31zM390.001 228.997c18 0 34.833 3.5 50.5 10.5s29.334 16.5 41.001 28.5s20.834 26.167 27.501 42.5s10 33.5 10 51.5s-3.33301 35.167 -10 51.5s-15.834 30.5 -27.501 42.5s-25.334 21.5 -41.001 28.5s-32.5 10.5 -50.5 10.5
s-34.833 -3.5 -50.5 -10.5s-29.167 -16.5 -40.5 -28.5s-20.333 -26.167 -27 -42.5s-10 -33.5 -10 -51.5s3.33301 -35.167 10 -51.5s15.667 -30.5 27 -42.5s24.833 -21.5 40.5 -28.5s32.5 -10.5 50.5 -10.5z" />
    <glyph glyph-name="yen" unicode="&#xa5;" horiz-adv-x="588" 
d="M80 391h146v24l-203 315h152l120 -198l120 198h150l-203 -315v-24h147v-109h-147v-79h147v-110h-147v-93h-136v93h-146v110h146v79h-146v109z" />
    <glyph glyph-name="brokenbar" unicode="&#xa6;" horiz-adv-x="211" 
d="M36 730h136v-420h-136v420zM36 190h136v-420h-136v420z" />
    <glyph glyph-name="section" unicode="&#xa7;" horiz-adv-x="575" 
d="M285 -10c-32 0 -61.668 4.33105 -89.001 12.998s-51.5 20.167 -72.5 34.5s-38.5 30.5 -52.5 48.5s-23.667 36.333 -29 55l135 37c6 -22 19.667 -40.167 41 -54.5s47 -21.5 77 -21.5c28 0 49 4.33301 63 13s21 19.667 21 33c0 9.33301 -3.66699 17.166 -11 23.499
s-17.333 11.833 -30 16.5s-27.834 9.16699 -45.501 13.5l-57.5 13.5c-30 7.33301 -58.167 15.166 -84.5 23.499s-49.166 18.833 -68.499 31.5s-34.5 27.667 -45.5 45s-16.5 38 -16.5 62c0 26.667 8 50.334 24 71.001s36.333 36.334 61 47.001c-21.333 25.333 -32 55 -32 89
c0 22 4.5 42.667 13.5 62s22.5 36 40.5 50s40 25 66 33s56 11.667 90 11c30 0 57.833 -3.83301 83.5 -11.5s48.334 -18 68.001 -31s36 -27.667 49 -44s21.833 -33.5 26.5 -51.5l-128 -36c-3.33301 19.333 -14 35.666 -32 48.999s-41.333 20 -70 20
c-26.667 0 -46.667 -4.16699 -60 -12.5s-20 -19.166 -20 -32.499c0 -18 12.833 -32.333 38.5 -43s59.167 -21 100.5 -31c30 -6.66699 58.167 -14.5 84.5 -23.5s49.333 -19.667 69 -32s35 -27 46 -44s16.5 -37.167 16.5 -60.5c0 -26 -7.16699 -48.667 -21.5 -68
s-32.833 -34.666 -55.5 -45.999c23.333 -23.333 35 -52.666 35 -87.999c0 -22.667 -5.5 -44 -16.5 -64s-26.5 -37.5 -46.5 -52.5s-44 -26.833 -72 -35.5s-59 -12.667 -93 -12zM311.999 316.998c13.333 -3.33301 25.833 -6.66797 37.5 -10.001l33.5 -10
c12 4 21.167 9.66699 27.5 17s9.5 15.333 9.5 24c0 18 -13.833 32.167 -41.5 42.5s-66.5 21.5 -116.5 33.5c-24 6 -46.333 13 -67 21c-13.333 -3.33301 -23.333 -9 -30 -17s-10 -16.667 -10 -26c0 -18 13.667 -32.167 41 -42.5s66 -21.166 116 -32.499z" />
    <glyph glyph-name="dieresis" unicode="&#xa8;" horiz-adv-x="473" 
d="M69 619c0 21.333 6.50098 38.666 19.501 51.999s30.5 20 52.5 20c22.667 0 40.334 -6.66699 53.001 -20s19 -30.666 19 -51.999s-6.33301 -38.5 -19 -51.5s-30.334 -19.5 -53.001 -19.5s-40.334 6.5 -53.001 19.5s-19 30.167 -19 51.5zM260.001 619
c0 21.333 6.49902 38.666 19.499 51.999s30.5 20 52.5 20s39.5 -6.66699 52.5 -20s19.5 -30.666 19.5 -51.999s-6.5 -38.5 -19.5 -51.5s-30.5 -19.5 -52.5 -19.5c-23.333 0 -41.166 6.5 -53.499 19.5s-18.5 30.167 -18.5 51.5z" />
    <glyph glyph-name="copyright" unicode="&#xa9;" horiz-adv-x="790" 
d="M395 -10c-52 0 -100.667 9.83301 -146 29.5s-84.833 46.334 -118.5 80.001s-60.167 73.334 -79.5 119.001s-29 94.5 -29 146.5s9.66699 100.667 29 146s45.833 85 79.5 119s73.167 60.833 118.5 80.5s94 29.5 146 29.5s100.667 -9.83301 146 -29.5s85 -46.5 119 -80.5
s60.667 -73.667 80 -119s29 -94 29 -146s-9.66699 -100.833 -29 -146.5s-46 -85.334 -80 -119.001s-73.667 -60.334 -119 -80.001s-94 -29.5 -146 -29.5zM395 94c37.333 0 72.333 7.16699 105 21.5s61 33.666 85 57.999s43 53 57 86s21 68.167 21 105.5s-7 72.5 -21 105.5
s-33 61.667 -57 86s-52.333 43.666 -85 57.999s-67.667 21.5 -105 21.5c-38 0 -73.167 -7.16699 -105.5 -21.5s-60.333 -33.666 -84 -57.999s-42.167 -53 -55.5 -86s-20 -68.167 -20 -105.5s6.66699 -72.5 20 -105.5s31.833 -61.667 55.5 -86s51.667 -43.666 84 -57.999
s67.5 -21.5 105.5 -21.5zM401 163c-30 0 -57.502 5.33203 -82.502 15.999s-46.5 25 -64.5 43s-32 39.333 -42 64s-15 51 -15 79s5.16699 54.333 15.5 79s24.5 46 42.5 64s39.5 32.333 64.5 43s52.167 16 81.5 16c40.667 0 76.834 -10.5 108.501 -31.5
s54.834 -47.167 69.501 -78.5l-58.5 -26.5c-13.667 -6.33301 -23.834 -10.833 -30.501 -13.5c-8 -4 -13 -6.33301 -15 -7c-3.33301 12.667 -11.333 24.167 -24 34.5s-29.667 15.5 -51 15.5c-26 0 -48 -9.16699 -66 -27.5s-27 -40.833 -27 -67.5s9 -49.167 27 -67.5
s40 -27.5 66 -27.5c20.667 0 37.834 5.33301 51.501 16s22.167 22.334 25.5 35.001l107 -37c-15.333 -34 -39 -62.667 -71 -86s-69.333 -35 -112 -35z" />
    <glyph glyph-name="ordfeminine" unicode="&#xaa;" horiz-adv-x="364" 
d="M151 435c-14 0 -28.668 2.83398 -44.001 8.50098s-29.5 14.5 -42.5 26.5s-23.667 27.5 -32 46.5s-12.5 41.833 -12.5 68.5c0 27.333 4.33301 50.5 13 69.5s19.667 34.5 33 46.5s27.666 20.833 42.999 26.5s30 8.5 44 8.5c17.333 0 32.333 -3 45 -9
s23.334 -13.667 32.001 -23v26h98v-290h-98v31c-9.33301 -10.667 -20.666 -19.334 -33.999 -26.001s-28.333 -10 -45 -10zM175.999 525.001c17.333 0 31.166 5.99902 41.499 17.999s15.5 26.333 15.5 43s-5.16699 30.834 -15.5 42.501s-24.166 17.5 -41.499 17.5
s-31.666 -5.5 -42.999 -16.5s-17 -25.5 -17 -43.5c0 -17.333 5.66699 -31.833 17 -43.5s25.666 -17.5 42.999 -17.5z" />
    <glyph glyph-name="guillemotleft" unicode="&#xab;" horiz-adv-x="477" 
d="M248 218v75l183 113v-91l-100 -60l100 -59v-92zM46 218v75l183 113v-91l-100 -60l100 -59v-92z" />
    <glyph glyph-name="logicalnot" unicode="&#xac;" horiz-adv-x="603" 
d="M432 387h-404v131h540v-362h-136v231z" />
    <glyph glyph-name="uni00AD" unicode="&#xad;" horiz-adv-x="442" 
d="M36 312h370v-115h-370v115z" />
    <glyph glyph-name="registered" unicode="&#xae;" horiz-adv-x="790" 
d="M395 -125c-52 0 -100.667 9.83301 -146 29.5s-84.833 46.334 -118.5 80.001s-60.167 73.334 -79.5 119.001s-29 94.5 -29 146.5s9.66699 100.667 29 146s45.833 85 79.5 119s73.167 60.833 118.5 80.5s94 29.5 146 29.5s100.667 -9.83301 146 -29.5s85 -46.5 119 -80.5
s60.667 -73.667 80 -119s29 -94 29 -146s-9.66699 -100.833 -29 -146.5s-46 -85.334 -80 -119.001s-73.667 -60.334 -119 -80.001s-94 -29.5 -146 -29.5zM395 -21c37.333 0 72.333 7.16699 105 21.5s61 33.666 85 57.999s43 53 57 86s21 68.167 21 105.5s-7 72.5 -21 105.5
s-33 61.667 -57 86s-52.333 43.666 -85 57.999s-67.667 21.5 -105 21.5c-38 0 -73.167 -7.16699 -105.5 -21.5s-60.333 -33.666 -84 -57.999s-42.167 -53 -55.5 -86s-20 -68.167 -20 -105.5s6.66699 -72.5 20 -105.5s31.833 -61.667 55.5 -86s51.667 -43.666 84 -57.999
s67.5 -21.5 105.5 -21.5zM236 439l173 0.000976562c27.333 0 51.5 -3.66699 72.5 -11s38.833 -17.333 53.5 -30s25.667 -26.834 33 -42.501s11 -32.167 11 -49.5c0 -28 -6.33301 -52 -19 -72s-31.667 -34.667 -57 -44l74 -125h-125l-97 186h50
c16 0 29.833 3.83301 41.5 11.5s17.5 20.167 17.5 37.5s-6 29.333 -18 36s-26.333 10 -43 10h-54v-281h-113v374z" />
    <glyph glyph-name="macron" unicode="&#xaf;" horiz-adv-x="472" 
d="M105 636h264v-86h-264v86z" />
    <glyph glyph-name="degree" unicode="&#xb0;" horiz-adv-x="400" 
d="M200 387c-24.667 0 -47.667 4.66699 -69 14s-40 22 -56 38s-28.667 34.667 -38 56s-14 44.333 -14 69c0 24 4.66699 46.667 14 68s22 40 38 56s34.667 28.667 56 38s44.333 14 69 14s47.667 -4.66699 69 -14s40 -22 56 -38s28.5 -34.667 37.5 -56s13.5 -44 13.5 -68
c0 -24.667 -4.5 -47.667 -13.5 -69s-21.5 -40 -37.5 -56s-34.667 -28.667 -56 -38s-44.333 -14 -69 -14zM200 501c17.333 0 32.166 6.16699 44.499 18.5s18.5 27.166 18.5 44.499s-6.16699 32.166 -18.5 44.499s-27.166 18.5 -44.499 18.5s-32.166 -6.16699 -44.499 -18.5
s-18.5 -27.166 -18.5 -44.499s6.16699 -32.166 18.5 -44.499s27.166 -18.5 44.499 -18.5z" />
    <glyph glyph-name="plusminus" unicode="&#xb1;" horiz-adv-x="442" 
d="M36 531h129v128h113v-128h128v-114h-128v-128h-113v128h-129v114zM36 231h370v-114h-370v114z" />
    <glyph glyph-name="uni00B2" unicode="&#xb2;" horiz-adv-x="330" 
d="M14 391c0 21.333 3.49609 39.834 10.4961 55.501s16 29.5 27 41.5s23.333 22.5 37 31.5s27.167 16.833 40.5 23.5c20 11.333 37.5 21.666 52.5 30.999s22.5 20.333 22.5 33c0 8.66699 -3.5 16.167 -10.5 22.5s-17.167 9.5 -30.5 9.5
c-15.333 0 -28.166 -5.66699 -38.499 -17s-18.166 -23.666 -23.499 -36.999l-97 50c15.333 31.333 36.333 56 63 74s59.334 27 98.001 27c46 0 83.167 -12 111.5 -36s42.5 -54.667 42.5 -92c0 -20 -3.66699 -37.667 -11 -53s-16.666 -28.666 -27.999 -39.999
s-24 -21.333 -38 -30s-27.667 -16.334 -41 -23.001c-17.333 -9.33301 -32.333 -17.833 -45 -25.5s-19.667 -15.834 -21 -24.501h181v-104h-302v83z" />
    <glyph glyph-name="uni00B3" unicode="&#xb3;" horiz-adv-x="325" 
d="M158 302c-28.667 0 -56.667 4.1709 -84 12.5039s-50.333 21.833 -69 40.5l85 77c18 -18.667 38.333 -28 61 -28c13.333 0 24.166 3.16699 32.499 9.5s12.5 15.166 12.5 26.499s-5.5 19.666 -16.5 24.999s-25.167 8 -42.5 8h-44v98h42c16.667 0 29.5 3.16699 38.5 9.5
s13.5 15.166 13.5 26.499c0 20.667 -14.333 31 -43 31c-10.667 0 -20.667 -2.5 -30 -7.5s-16.666 -11.833 -21.999 -20.5l-80 69c16.667 18 37.5 32 62.5 42s49.5 15 73.5 15c46.667 0 84.5 -11.167 113.5 -33.5s43.5 -52.833 43.5 -91.5c0 -33.333 -14 -61 -42 -83
c16.667 -10 29.5 -22.667 38.5 -38s13.5 -33 13.5 -53c0 -18.667 -3.66699 -36.334 -11 -53.001s-17.833 -31 -31.5 -43s-30.167 -21.5 -49.5 -28.5s-41 -10.5 -65 -10.5z" />
    <glyph glyph-name="acute" unicode="&#xb4;" horiz-adv-x="472" 
d="M220 720h126l-150 -170h-91z" />
    <glyph glyph-name="mu" unicode="&#xb5;" horiz-adv-x="527" 
d="M32 500h136.001v-261c0 -42.667 7.66699 -75.5 23 -98.5s39 -34.5 71 -34.5c27.333 0 50.666 9.66699 69.999 29s29 50 29 92v273h134v-500h-133v49c-15.333 -18.667 -33.5 -33.167 -54.5 -43.5s-44.5 -15.5 -70.5 -15.5c-13.333 0 -26 1.5 -38 4.5
s-23.333 7.16699 -34 12.5v-237h-133v730z" />
    <glyph glyph-name="mu" unicode="&#x3bc;" horiz-adv-x="527" 
d="M32 500h136.001v-261c0 -42.667 7.66699 -75.5 23 -98.5s39 -34.5 71 -34.5c27.333 0 50.666 9.66699 69.999 29s29 50 29 92v273h134v-500h-133v49c-15.333 -18.667 -33.5 -33.167 -54.5 -43.5s-44.5 -15.5 -70.5 -15.5c-13.333 0 -26 1.5 -38 4.5
s-23.333 7.16699 -34 12.5v-237h-133v730z" />
    <glyph glyph-name="paragraph" unicode="&#xb6;" horiz-adv-x="658" 
d="M329 302h-90.998c-30.667 0 -59.334 5.5 -86.001 16.5s-49.667 26.167 -69 45.5s-34.5 42 -45.5 68s-16.5 54 -16.5 84s5.5 58 16.5 84s26.167 48.667 45.5 68s42.166 34.5 68.499 45.5s54.833 16.5 85.5 16.5h385v-730h-117v604h-60v-604h-116v302z" />
    <glyph glyph-name="periodcentered" unicode="&#xb7;" horiz-adv-x="207" 
d="M36 323h134v-137h-134v137z" />
    <glyph glyph-name="cedilla" unicode="&#xb8;" horiz-adv-x="472" 
d="M213 -240c-26.667 0 -52.5 5.49707 -77.5 16.4971s-47.167 25.167 -66.5 42.5l78 47c11.333 -9.33301 22.5 -17.333 33.5 -24s25.167 -10 42.5 -10c14.667 0 27.5 3 38.5 9s16.5 13.333 16.5 22c0 18 -19.333 27 -58 27h-50v110h84v-53
c37.333 1.33301 65.833 -5.5 85.5 -20.5s29.5 -34.833 29.5 -59.5c0 -15.333 -4 -29.666 -12 -42.999s-19 -24.666 -33 -33.999s-30.5 -16.666 -49.5 -21.999s-39.5 -8 -61.5 -8z" />
    <glyph glyph-name="uni00B9" unicode="&#xb9;" horiz-adv-x="298" 
d="M14 412l81 0.000976562v166c-7.33301 -9.33301 -16.333 -16 -27 -20s-22.667 -6 -36 -6h-6v107h3c14 0 25.5 2.33301 34.5 7s16.167 10.5 21.5 17.5s9 14.667 11 23s3 16.166 3 23.499h109v-318h78v-104h-272v104z" />
    <glyph glyph-name="ordmasculine" unicode="&#xba;" horiz-adv-x="339" 
d="M170 435c-20.667 0 -40.167 4 -58.5 12s-34.166 18.667 -47.499 32s-24 29.166 -32 47.499s-12 37.833 -12 58.5c0 21.333 4 41.166 12 59.499s18.667 34.166 32 47.499s29.166 24 47.499 32s37.833 12 58.5 12s40 -4 58 -12s33.833 -18.667 47.5 -32
s24.334 -29.166 32.001 -47.499s11.5 -38.166 11.5 -59.499c0 -20.667 -3.83301 -40.167 -11.5 -58.5s-18.334 -34.166 -32.001 -47.499s-29.5 -24 -47.5 -32s-37.333 -12 -58 -12zM170 528c15.333 0 28.333 5.66699 39 17s16 24.666 16 39.999c0 16 -5.33301 29.667 -16 41
s-23.667 17 -39 17c-16 0 -29.167 -5.66699 -39.5 -17s-15.5 -25 -15.5 -41c0 -15.333 5.16699 -28.666 15.5 -39.999s23.5 -17 39.5 -17z" />
    <glyph glyph-name="guillemotright" unicode="&#xbb;" horiz-adv-x="477" 
d="M248 196l100 59l-100 60v91l183 -113v-75l-183 -114v92zM46 196l100 59l-100 60v91l183 -113v-75l-183 -114v92z" />
    <glyph glyph-name="onequarter" unicode="&#xbc;" horiz-adv-x="854" 
d="M612 730h156l-527 -730h-156zM674 84h-169v99l168 239h105v-243h62v-95h-62v-84h-104v84zM14 412l81 0.000976562v166c-7.33301 -9.33301 -16.333 -16 -27 -20s-22.667 -6 -36 -6h-6v107h3c14 0 25.5 2.33301 34.5 7s16.167 10.5 21.5 17.5s9 14.667 11 23
s3 16.166 3 23.499h109v-318h78v-104h-272v104zM674 179.001v77l-53 -77h53z" />
    <glyph glyph-name="onehalf" unicode="&#xbd;" horiz-adv-x="870" 
d="M612 730h156l-527 -730h-156zM553 83c0 21.333 3.49609 39.834 10.4961 55.501s16 29.5 27 41.5s23.333 22.5 37 31.5s27.167 16.833 40.5 23.5c20 11.333 37.5 21.666 52.5 30.999s22.5 20.333 22.5 33c0 8.66699 -3.5 16.167 -10.5 22.5s-17.167 9.5 -30.5 9.5
c-15.333 0 -28.166 -5.66699 -38.499 -17s-18.166 -23.666 -23.499 -36.999l-97 50c15.333 31.333 36.333 56 63 74s59.334 27 98.001 27c46 0 83.167 -12 111.5 -36s42.5 -54.667 42.5 -92c0 -20 -3.66699 -37.667 -11 -53s-16.666 -28.666 -27.999 -39.999
s-24 -21.333 -38 -30s-27.667 -16.334 -41 -23.001c-17.333 -9.33301 -32.333 -17.833 -45 -25.5s-19.667 -15.834 -21 -24.501h181v-104h-302v83zM13.9961 412.001l81 0.000976562v166c-7.33301 -9.33301 -16.333 -16 -27 -20s-22.667 -6 -36 -6h-6v107h3
c14 0 25.5 2.33301 34.5 7s16.167 10.5 21.5 17.5s9 14.667 11 23s3 16.166 3 23.499h109v-318h78v-104h-272v104z" />
    <glyph glyph-name="threequarters" unicode="&#xbe;" horiz-adv-x="860" 
d="M619 730h156l-527 -730h-156zM680 84h-169v99l168 239h105v-243h62v-95h-62v-84h-104v84zM158 302c-28.667 0 -56.667 4.1709 -84 12.5039s-50.333 21.833 -69 40.5l85 77c18 -18.667 38.333 -28 61 -28c13.333 0 24.166 3.16699 32.499 9.5s12.5 15.166 12.5 26.499
s-5.5 19.666 -16.5 24.999s-25.167 8 -42.5 8h-44v98h42c16.667 0 29.5 3.16699 38.5 9.5s13.5 15.166 13.5 26.499c0 20.667 -14.333 31 -43 31c-10.667 0 -20.667 -2.5 -30 -7.5s-16.666 -11.833 -21.999 -20.5l-80 69c16.667 18 37.5 32 62.5 42s49.5 15 73.5 15
c46.667 0 84.5 -11.167 113.5 -33.5s43.5 -52.833 43.5 -91.5c0 -33.333 -14 -61 -42 -83c16.667 -10 29.5 -22.667 38.5 -38s13.5 -33 13.5 -53c0 -18.667 -3.66699 -36.334 -11 -53.001s-17.833 -31 -31.5 -43s-30.167 -21.5 -49.5 -28.5s-41 -10.5 -65 -10.5z
M680 179.004v77l-53 -77h53z" />
    <glyph glyph-name="questiondown" unicode="&#xbf;" horiz-adv-x="517" 
d="M263 -240c-34 0 -65.0039 5.00098 -93.0039 15.001s-52.333 24.167 -73 42.5s-36.667 40.333 -48 66s-17 54.167 -17 85.5c0 32 4.5 58 13.5 78s20.333 37.167 34 51.5s28.334 27.333 44.001 39s30.334 24.5 44.001 38.5s25 30.667 34 50s13.5 44.333 13.5 75v11h120v-11
c0 -40.667 -4 -74.334 -12 -101.001s-18.167 -49 -30.5 -67s-25.666 -33 -39.999 -45s-27.666 -23.667 -39.999 -35s-22.5 -23.5 -30.5 -36.5s-12 -29.5 -12 -49.5c0 -25.333 8.5 -46.5 25.5 -63.5s40.167 -25.5 69.5 -25.5c27.333 0 49.5 8.16699 66.5 24.5
s28.5 36.833 34.5 61.5l126 -43c-12.667 -48 -38 -86.833 -76 -116.5s-89 -44.5 -153 -44.5zM193.996 431.001c0 24.667 7.33301 44.5 22 59.5s34.667 22.5 60 22.5s45.166 -7.5 59.499 -22.5s21.5 -34.833 21.5 -59.5c0 -24 -7.33301 -43.5 -22 -58.5
s-34.667 -22.5 -60 -22.5s-45.166 7.5 -59.499 22.5s-21.5 34.5 -21.5 58.5z" />
    <glyph glyph-name="Agrave" unicode="&#xc0;" horiz-adv-x="687" 
d="M275 730h137l260 -730h-142l-45 130h-283l-45 -130h-142zM248 260h192l-96 277zM150 950h127l114 -170h-91z" />
    <glyph glyph-name="Aacute" unicode="&#xc1;" horiz-adv-x="687" 
d="M275 730h137l260 -730h-142l-45 130h-283l-45 -130h-142zM248 260h192l-96 277zM412 950h126l-150 -170h-91z" />
    <glyph glyph-name="Acircumflex" unicode="&#xc2;" horiz-adv-x="687" 
d="M275 730h137l260 -730h-142l-45 130h-283l-45 -130h-142zM300 950h84l119 -170h-102l-59 89l-59 -89h-102zM248 260h192l-96 277z" />
    <glyph glyph-name="Atilde" unicode="&#xc3;" horiz-adv-x="687" 
d="M275 730h137l260 -730h-142l-45 130h-283l-45 -130h-142zM173 780c0 40.667 9.16699 73.332 27.5 97.999s43.833 37 76.5 37c16.667 0 31 -2.5 43 -7.5s23.333 -10.5 34 -16.5c9.33301 -6.66699 18.166 -12.5 26.499 -17.5s16.833 -7.5 25.5 -7.5c18.667 0 28 15 28 45
h78c0 -41.333 -8.66699 -74.166 -26 -98.499s-43.666 -36.5 -78.999 -36.5c-19.333 0 -35.833 3.5 -49.5 10.5s-26.167 13.833 -37.5 20.5c-7.33301 4.66699 -14.5 8.66699 -21.5 12s-14.167 5 -21.5 5c-17.333 0 -26 -14.667 -26 -44h-78zM248 259.998h192l-96 277z" />
    <glyph glyph-name="Adieresis" unicode="&#xc4;" horiz-adv-x="687" 
d="M275 730h137l260 -730h-142l-45 130h-283l-45 -130h-142zM248 260h192l-96 277zM176 849c0 21.333 6.50098 38.666 19.501 51.999s30.5 20 52.5 20c22.667 0 40.334 -6.66699 53.001 -20s19 -30.666 19 -51.999s-6.33301 -38.5 -19 -51.5s-30.334 -19.5 -53.001 -19.5
s-40.334 6.5 -53.001 19.5s-19 30.167 -19 51.5zM367.001 849c0 21.333 6.49902 38.666 19.499 51.999s30.5 20 52.5 20s39.5 -6.66699 52.5 -20s19.5 -30.666 19.5 -51.999s-6.5 -38.5 -19.5 -51.5s-30.5 -19.5 -52.5 -19.5c-23.333 0 -41.166 6.5 -53.499 19.5
s-18.5 30.167 -18.5 51.5z" />
    <glyph glyph-name="Aring" unicode="&#xc5;" horiz-adv-x="687" 
d="M260 688c-10 10.667 -18 23 -24 37s-9 29 -9 45c0 16.667 3 32.167 9 46.5s14.333 26.833 25 37.5s23 19 37 25s29 9 45 9s31.167 -3 45.5 -9s26.833 -14.333 37.5 -25s19 -23.167 25 -37.5s9 -29.833 9 -46.5c0 -16 -3 -31 -9 -45s-14.333 -26.333 -25 -37l246 -688
h-142l-45 130h-283l-45 -130h-142zM248 260h192l-96 277zM343 731c11.333 0 21 3.83301 29 11.5s12 16.834 12 27.501c0 11.333 -4 21 -12 29s-17.667 12 -29 12s-20.833 -4 -28.5 -12s-11.5 -17.667 -11.5 -29c0 -10.667 3.83301 -19.834 11.5 -27.501
s17.167 -11.5 28.5 -11.5z" />
    <glyph glyph-name="AE" unicode="&#xc6;" horiz-adv-x="938" 
d="M346 730h558v-130h-386l42 -168h344v-130h-311l43 -172h268v-130h-378l-32 129h-281l-58 -129h-142zM269 255h194l-68 279z" />
    <glyph glyph-name="Ccedilla" unicode="&#xc7;" horiz-adv-x="738" 
d="M388 -240c-26.667 0 -52.5039 5.49609 -77.5039 16.4961s-47.167 25.167 -66.5 42.5l78 47c11.333 -9.33301 22.5 -17.333 33.5 -24s25.167 -10 42.5 -10c14.667 0 27.5 3 38.5 9s16.5 13.333 16.5 22c0 18 -19.333 27 -58 27h-50v104c-48.667 6 -93 19.667 -133 41
s-74 48.5 -102 81.5s-49.667 70.667 -65 113s-23 87.5 -23 135.5c0 54.667 9.66699 104.834 29 150.501s45.833 85.167 79.5 118.5s73.334 59.333 119.001 78s94.834 28 147.501 28c34 0 66.833 -4.33301 98.5 -13s61.334 -20.834 89.001 -36.501s52.667 -34.667 75 -57
s41.5 -47.166 57.5 -74.499l-119 -76c-21.333 38 -48.333 68 -81 90s-72.667 33 -120 33c-34.667 0 -66.667 -6.16699 -96 -18.5s-54.666 -29.333 -75.999 -51s-38 -47.167 -50 -76.5s-18 -61 -18 -95c0 -33.333 6 -64.5 18 -93.5s28.5 -54.333 49.5 -76s46 -38.667 75 -51
s60.5 -18.5 94.5 -18.5c50.667 0 93.5 12.833 128.5 38.5s62.167 58.5 81.5 98.5l124 -65c-30 -58 -70.833 -105.5 -122.5 -142.5s-110.5 -58.167 -176.5 -63.5v-45c37.333 1.33301 65.833 -5.5 85.5 -20.5s29.5 -34.833 29.5 -59.5c0 -15.333 -4 -29.666 -12 -42.999
s-19 -24.666 -33 -33.999s-30.5 -16.666 -49.5 -21.999s-39.5 -8 -61.5 -8z" />
    <glyph glyph-name="Egrave" unicode="&#xc8;" horiz-adv-x="509" 
d="M42 730h433v-130h-297v-168h297v-130h-297v-172h297v-130h-433v730zM72 950h127l114 -170h-91z" />
    <glyph glyph-name="Eacute" unicode="&#xc9;" horiz-adv-x="509" 
d="M42 730h433v-130h-297v-168h297v-130h-297v-172h297v-130h-433v730zM317 950h126l-150 -170h-91z" />
    <glyph glyph-name="Ecircumflex" unicode="&#xca;" horiz-adv-x="509" 
d="M42 730h433v-130h-297v-168h297v-130h-297v-172h297v-130h-433v730zM216 950h84l119 -170h-102l-59 89l-59 -89h-102z" />
    <glyph glyph-name="Edieresis" unicode="&#xcb;" horiz-adv-x="509" 
d="M42 730h433v-130h-297v-168h297v-130h-297v-172h297v-130h-433v730zM95 849c0 21.333 6.50098 38.666 19.501 51.999s30.5 20 52.5 20c22.667 0 40.334 -6.66699 53.001 -20s19 -30.666 19 -51.999s-6.33301 -38.5 -19 -51.5s-30.334 -19.5 -53.001 -19.5
s-40.334 6.5 -53.001 19.5s-19 30.167 -19 51.5zM286.001 849c0 21.333 6.49902 38.666 19.499 51.999s30.5 20 52.5 20s39.5 -6.66699 52.5 -20s19.5 -30.666 19.5 -51.999s-6.5 -38.5 -19.5 -51.5s-30.5 -19.5 -52.5 -19.5c-23.333 0 -41.166 6.5 -53.499 19.5
s-18.5 30.167 -18.5 51.5z" />
    <glyph glyph-name="Igrave" unicode="&#xcc;" horiz-adv-x="230" 
d="M47 730h136v-730h-136v730zM-80 950h127l114 -170h-91z" />
    <glyph glyph-name="Iacute" unicode="&#xcd;" horiz-adv-x="230" 
d="M47 730h136v-730h-136v730zM185 950h126l-150 -170h-91z" />
    <glyph glyph-name="Icircumflex" unicode="&#xce;" horiz-adv-x="230" 
d="M47 730h136v-730h-136v730zM73 950h84l119 -170h-102l-59 89l-59 -89h-102z" />
    <glyph glyph-name="Idieresis" unicode="&#xcf;" horiz-adv-x="230" 
d="M152 918h134v-137h-134v137zM-55 918h134v-137h-134v137zM47 730h136v-730h-136v730z" />
    <glyph glyph-name="Eth" unicode="&#xd0;" horiz-adv-x="695" 
d="M20 424l69.002 0.000976562v306h199c61.333 0 116 -9.33301 164 -28s88.5 -44.334 121.5 -77.001s58 -71.167 75 -115.5s25.5 -92.5 25.5 -144.5s-9.33301 -100.333 -28 -145s-44.834 -83.167 -78.501 -115.5s-73.834 -57.833 -120.501 -76.5s-97.667 -28 -153 -28h-205
v309h-69v115zM225.002 604.001v-180h165v-115h-165v-183h53c40 0 76 6 108 18s59.167 28.833 81.5 50.5s39.666 47 51.999 76s18.5 60.5 18.5 94.5c0 35.333 -5.33301 67.5 -16 96.5s-27 54.167 -49 75.5s-49.667 37.833 -83 49.5s-72.666 17.5 -117.999 17.5h-47z" />
    <glyph glyph-name="Ntilde" unicode="&#xd1;" horiz-adv-x="690" 
d="M42 730h154l316 -497v497h136v-730h-145l-325 513v-513h-136v730zM174 780c0 40.667 9.16699 73.332 27.5 97.999s43.833 37 76.5 37c16.667 0 31 -2.5 43 -7.5s23.333 -10.5 34 -16.5c9.33301 -6.66699 18.166 -12.5 26.499 -17.5s16.833 -7.5 25.5 -7.5
c18.667 0 28 15 28 45h78c0 -41.333 -8.66699 -74.166 -26 -98.499s-43.666 -36.5 -78.999 -36.5c-19.333 0 -35.833 3.5 -49.5 10.5s-26.167 13.833 -37.5 20.5c-7.33301 4.66699 -14.5 8.66699 -21.5 12s-14.167 5 -21.5 5c-17.333 0 -26 -14.667 -26 -44h-78z" />
    <glyph glyph-name="Ograve" unicode="&#xd2;" horiz-adv-x="790" 
d="M395 -10c-52 0 -100.667 9.83301 -146 29.5s-84.833 46.334 -118.5 80.001s-60.167 73.334 -79.5 119.001s-29 94.5 -29 146.5s9.66699 100.667 29 146s45.833 85 79.5 119s73.167 60.833 118.5 80.5s94 29.5 146 29.5s100.667 -9.83301 146 -29.5s85 -46.5 119 -80.5
s60.667 -73.667 80 -119s29 -94 29 -146s-9.66699 -100.833 -29 -146.5s-46 -85.334 -80 -119.001s-73.667 -60.334 -119 -80.001s-94 -29.5 -146 -29.5zM395 124c33.333 0 64.5 6.33301 93.5 19s54.333 29.834 76 51.501s38.667 47.167 51 76.5s18.5 60.666 18.5 93.999
s-6.16699 64.666 -18.5 93.999s-29.333 54.833 -51 76.5s-47 38.834 -76 51.501s-60.167 19 -93.5 19s-64.5 -6.33301 -93.5 -19s-54.167 -29.834 -75.5 -51.501s-38.166 -47.167 -50.499 -76.5s-18.5 -60.666 -18.5 -93.999s6.16699 -64.666 18.5 -93.999
s29.166 -54.833 50.499 -76.5s46.5 -38.834 75.5 -51.501s60.167 -19 93.5 -19zM199 950h127l114 -170h-91z" />
    <glyph glyph-name="Oacute" unicode="&#xd3;" horiz-adv-x="790" 
d="M458 950h126l-150 -170h-91zM395 -10c-52 0 -100.667 9.83301 -146 29.5s-84.833 46.334 -118.5 80.001s-60.167 73.334 -79.5 119.001s-29 94.5 -29 146.5s9.66699 100.667 29 146s45.833 85 79.5 119s73.167 60.833 118.5 80.5s94 29.5 146 29.5
s100.667 -9.83301 146 -29.5s85 -46.5 119 -80.5s60.667 -73.667 80 -119s29 -94 29 -146s-9.66699 -100.833 -29 -146.5s-46 -85.334 -80 -119.001s-73.667 -60.334 -119 -80.001s-94 -29.5 -146 -29.5zM395 124c33.333 0 64.5 6.33301 93.5 19s54.333 29.834 76 51.501
s38.667 47.167 51 76.5s18.5 60.666 18.5 93.999s-6.16699 64.666 -18.5 93.999s-29.333 54.833 -51 76.5s-47 38.834 -76 51.501s-60.167 19 -93.5 19s-64.5 -6.33301 -93.5 -19s-54.167 -29.834 -75.5 -51.501s-38.166 -47.167 -50.499 -76.5s-18.5 -60.666 -18.5 -93.999
s6.16699 -64.666 18.5 -93.999s29.166 -54.833 50.499 -76.5s46.5 -38.834 75.5 -51.501s60.167 -19 93.5 -19z" />
    <glyph glyph-name="Ocircumflex" unicode="&#xd4;" horiz-adv-x="790" 
d="M395 -10c-52 0 -100.667 9.83301 -146 29.5s-84.833 46.334 -118.5 80.001s-60.167 73.334 -79.5 119.001s-29 94.5 -29 146.5s9.66699 100.667 29 146s45.833 85 79.5 119s73.167 60.833 118.5 80.5s94 29.5 146 29.5s100.667 -9.83301 146 -29.5s85 -46.5 119 -80.5
s60.667 -73.667 80 -119s29 -94 29 -146s-9.66699 -100.833 -29 -146.5s-46 -85.334 -80 -119.001s-73.667 -60.334 -119 -80.001s-94 -29.5 -146 -29.5zM395 124c33.333 0 64.5 6.33301 93.5 19s54.333 29.834 76 51.501s38.667 47.167 51 76.5s18.5 60.666 18.5 93.999
s-6.16699 64.666 -18.5 93.999s-29.333 54.833 -51 76.5s-47 38.834 -76 51.501s-60.167 19 -93.5 19s-64.5 -6.33301 -93.5 -19s-54.167 -29.834 -75.5 -51.501s-38.166 -47.167 -50.499 -76.5s-18.5 -60.666 -18.5 -93.999s6.16699 -64.666 18.5 -93.999
s29.166 -54.833 50.499 -76.5s46.5 -38.834 75.5 -51.501s60.167 -19 93.5 -19zM349 950h84l119 -170h-102l-59 89l-59 -89h-102z" />
    <glyph glyph-name="Otilde" unicode="&#xd5;" horiz-adv-x="790" 
d="M395 -10c-52 0 -100.667 9.83301 -146 29.5s-84.833 46.334 -118.5 80.001s-60.167 73.334 -79.5 119.001s-29 94.5 -29 146.5s9.66699 100.667 29 146s45.833 85 79.5 119s73.167 60.833 118.5 80.5s94 29.5 146 29.5s100.667 -9.83301 146 -29.5s85 -46.5 119 -80.5
s60.667 -73.667 80 -119s29 -94 29 -146s-9.66699 -100.833 -29 -146.5s-46 -85.334 -80 -119.001s-73.667 -60.334 -119 -80.001s-94 -29.5 -146 -29.5zM395 124c33.333 0 64.5 6.33301 93.5 19s54.333 29.834 76 51.501s38.667 47.167 51 76.5s18.5 60.666 18.5 93.999
s-6.16699 64.666 -18.5 93.999s-29.333 54.833 -51 76.5s-47 38.834 -76 51.501s-60.167 19 -93.5 19s-64.5 -6.33301 -93.5 -19s-54.167 -29.834 -75.5 -51.501s-38.166 -47.167 -50.499 -76.5s-18.5 -60.666 -18.5 -93.999s6.16699 -64.666 18.5 -93.999
s29.166 -54.833 50.499 -76.5s46.5 -38.834 75.5 -51.501s60.167 -19 93.5 -19zM220 780c0 40.667 9.16699 73.332 27.5 97.999s43.833 37 76.5 37c16.667 0 31 -2.5 43 -7.5s23.333 -10.5 34 -16.5c9.33301 -6.66699 18.166 -12.5 26.499 -17.5s16.833 -7.5 25.5 -7.5
c18.667 0 28 15 28 45h78c0 -41.333 -8.66699 -74.166 -26 -98.499s-43.666 -36.5 -78.999 -36.5c-19.333 0 -35.833 3.5 -49.5 10.5s-26.167 13.833 -37.5 20.5c-7.33301 4.66699 -14.5 8.66699 -21.5 12s-14.167 5 -21.5 5c-17.333 0 -26 -14.667 -26 -44h-78z" />
    <glyph glyph-name="Odieresis" unicode="&#xd6;" horiz-adv-x="790" 
d="M221 849c0 21.333 6.50098 38.666 19.501 51.999s30.5 20 52.5 20c22.667 0 40.334 -6.66699 53.001 -20s19 -30.666 19 -51.999s-6.33301 -38.5 -19 -51.5s-30.334 -19.5 -53.001 -19.5s-40.334 6.5 -53.001 19.5s-19 30.167 -19 51.5zM412.001 849
c0 21.333 6.49902 38.666 19.499 51.999s30.5 20 52.5 20s39.5 -6.66699 52.5 -20s19.5 -30.666 19.5 -51.999s-6.5 -38.5 -19.5 -51.5s-30.5 -19.5 -52.5 -19.5c-23.333 0 -41.166 6.5 -53.499 19.5s-18.5 30.167 -18.5 51.5zM395 -10c-52 0 -100.667 9.83301 -146 29.5
s-84.833 46.334 -118.5 80.001s-60.167 73.334 -79.5 119.001s-29 94.5 -29 146.5s9.66699 100.667 29 146s45.833 85 79.5 119s73.167 60.833 118.5 80.5s94 29.5 146 29.5s100.667 -9.83301 146 -29.5s85 -46.5 119 -80.5s60.667 -73.667 80 -119s29 -94 29 -146
s-9.66699 -100.833 -29 -146.5s-46 -85.334 -80 -119.001s-73.667 -60.334 -119 -80.001s-94 -29.5 -146 -29.5zM395 124c33.333 0 64.5 6.33301 93.5 19s54.333 29.834 76 51.501s38.667 47.167 51 76.5s18.5 60.666 18.5 93.999s-6.16699 64.666 -18.5 93.999
s-29.333 54.833 -51 76.5s-47 38.834 -76 51.501s-60.167 19 -93.5 19s-64.5 -6.33301 -93.5 -19s-54.167 -29.834 -75.5 -51.501s-38.166 -47.167 -50.499 -76.5s-18.5 -60.666 -18.5 -93.999s6.16699 -64.666 18.5 -93.999s29.166 -54.833 50.499 -76.5
s46.5 -38.834 75.5 -51.501s60.167 -19 93.5 -19z" />
    <glyph glyph-name="multiply" unicode="&#xd7;" horiz-adv-x="442" 
d="M37 258l105 105l-106 106l79 79l106 -106l106 106l79 -79l-106 -106l105 -105l-79 -79l-105 105l-105 -105z" />
    <glyph glyph-name="Oslash" unicode="&#xd8;" horiz-adv-x="790" 
d="M116 114c-30 34 -53.166 72.1699 -69.499 114.503s-24.5 87.833 -24.5 136.5c0 52 9.66699 100.667 29 146s45.833 85 79.5 119s73.167 60.833 118.5 80.5s94 29.5 146 29.5c34 0 66.5 -4.5 97.5 -13.5s60.5 -21.167 88.5 -36.5l33 40h157l-95 -117
c29.333 -33.333 52.166 -71 68.499 -113s24.5 -87 24.5 -135c0 -52 -9.66699 -100.833 -29 -146.5s-46 -85.334 -80 -119.001s-73.667 -60.334 -119 -80.001s-94 -29.5 -146 -29.5c-34 0 -66.333 4.16699 -97 12.5s-59.667 20.166 -87 35.499l-30 -38h-157zM157.001 365.003
c0 -27.333 3.99902 -53.167 11.999 -77.5s19.333 -46.5 34 -66.5l292 362c-15.333 7.33301 -31.333 13 -48 17s-34 6 -52 6c-33.333 0 -64.5 -6.33301 -93.5 -19s-54.167 -29.834 -75.5 -51.501s-38.166 -47.167 -50.499 -76.5s-18.5 -60.666 -18.5 -93.999zM395 124.002
c33.333 0 64.5 6.33301 93.5 19s54.333 29.834 76 51.501s38.667 47.167 51 76.5s18.5 60.666 18.5 93.999c0 26 -4 51 -12 75s-19 45.667 -33 65l-291 -361c30 -13.333 62.333 -20 97 -20z" />
    <glyph glyph-name="Ugrave" unicode="&#xd9;" horiz-adv-x="608" 
d="M304 -10c-38 0 -73 5.66699 -105 17s-59.833 28 -83.5 50s-42 49.333 -55 82s-19.5 70.334 -19.5 113.001v478h136v-486c0 -18 3.16699 -34.833 9.5 -50.5s15.166 -29.167 26.499 -40.5s24.666 -20.333 39.999 -27s32 -10 50 -10s34.667 3.33301 50 10
s28.833 15.667 40.5 27s20.834 24.833 27.501 40.5s10 32.5 10 50.5v486h136v-478c0 -42.667 -6.66699 -80.334 -20 -113.001s-31.666 -60 -54.999 -82s-51 -38.667 -83 -50s-67 -17 -105 -17zM117 950h127l114 -170h-91z" />
    <glyph glyph-name="Uacute" unicode="&#xda;" horiz-adv-x="608" 
d="M365 950h126l-150 -170h-91zM304 -10c-38 0 -73 5.66699 -105 17s-59.833 28 -83.5 50s-42 49.333 -55 82s-19.5 70.334 -19.5 113.001v478h136v-486c0 -18 3.16699 -34.833 9.5 -50.5s15.166 -29.167 26.499 -40.5s24.666 -20.333 39.999 -27s32 -10 50 -10
s34.667 3.33301 50 10s28.833 15.667 40.5 27s20.834 24.833 27.501 40.5s10 32.5 10 50.5v486h136v-478c0 -42.667 -6.66699 -80.334 -20 -113.001s-31.666 -60 -54.999 -82s-51 -38.667 -83 -50s-67 -17 -105 -17z" />
    <glyph glyph-name="Ucircumflex" unicode="&#xdb;" horiz-adv-x="608" 
d="M304 -10c-38 0 -73 5.66699 -105 17s-59.833 28 -83.5 50s-42 49.333 -55 82s-19.5 70.334 -19.5 113.001v478h136v-486c0 -18 3.16699 -34.833 9.5 -50.5s15.166 -29.167 26.499 -40.5s24.666 -20.333 39.999 -27s32 -10 50 -10s34.667 3.33301 50 10
s28.833 15.667 40.5 27s20.834 24.833 27.501 40.5s10 32.5 10 50.5v486h136v-478c0 -42.667 -6.66699 -80.334 -20 -113.001s-31.666 -60 -54.999 -82s-51 -38.667 -83 -50s-67 -17 -105 -17zM262 950h84l119 -170h-102l-59 89l-59 -89h-102z" />
    <glyph glyph-name="Udieresis" unicode="&#xdc;" horiz-adv-x="608" 
d="M141 849c0 21.333 6.50098 38.666 19.501 51.999s30.5 20 52.5 20c22.667 0 40.334 -6.66699 53.001 -20s19 -30.666 19 -51.999s-6.33301 -38.5 -19 -51.5s-30.334 -19.5 -53.001 -19.5s-40.334 6.5 -53.001 19.5s-19 30.167 -19 51.5zM332.001 849
c0 21.333 6.49902 38.666 19.499 51.999s30.5 20 52.5 20s39.5 -6.66699 52.5 -20s19.5 -30.666 19.5 -51.999s-6.5 -38.5 -19.5 -51.5s-30.5 -19.5 -52.5 -19.5c-23.333 0 -41.166 6.5 -53.499 19.5s-18.5 30.167 -18.5 51.5zM304 -10c-38 0 -73 5.66699 -105 17
s-59.833 28 -83.5 50s-42 49.333 -55 82s-19.5 70.334 -19.5 113.001v478h136v-486c0 -18 3.16699 -34.833 9.5 -50.5s15.166 -29.167 26.499 -40.5s24.666 -20.333 39.999 -27s32 -10 50 -10s34.667 3.33301 50 10s28.833 15.667 40.5 27s20.834 24.833 27.501 40.5
s10 32.5 10 50.5v486h136v-478c0 -42.667 -6.66699 -80.334 -20 -113.001s-31.666 -60 -54.999 -82s-51 -38.667 -83 -50s-67 -17 -105 -17z" />
    <glyph glyph-name="Yacute" unicode="&#xdd;" horiz-adv-x="629" 
d="M245 346l-232 384h150l151 -253l152 253h150l-235 -387v-343h-136v346zM379 950h126l-150 -170h-91z" />
    <glyph glyph-name="Thorn" unicode="&#xde;" horiz-adv-x="558" 
d="M42 730h136.001v-127h121c34 0 65.167 -6 93.5 -18s52.666 -28.5 72.999 -49.5s36.333 -45.667 48 -74s17.5 -58.5 17.5 -90.5s-5.83301 -62.167 -17.5 -90.5s-27.667 -53 -48 -74s-44.833 -37.5 -73.5 -49.5s-60 -18 -94 -18h-120v-139h-136v730zM178.001 477v-212h113
c32 0 57.5 10.167 76.5 30.5s28.5 45.5 28.5 75.5c0 29.333 -9.5 54.333 -28.5 75s-44.5 31 -76.5 31h-113z" />
    <glyph glyph-name="germandbls" unicode="&#xdf;" horiz-adv-x="589" 
d="M-80 -142c25.333 0 45.8262 1.66992 61.4932 5.00293s27.667 9.5 36 18.5s14 21 17 36s4.5 34.5 4.5 58.5v625c-1.33301 37.333 3.33398 71.5 14.001 102.5s26.667 57.667 48 80s48 39.666 80 51.999s68.667 18.5 110 18.5c36.667 0 70.334 -5.83301 101.001 -17.5
s57 -27.834 79 -48.501s39 -45.5 51 -74.5s18 -60.5 18 -94.5c0 -40.667 -10.167 -76.334 -30.5 -107.001s-48.833 -53.667 -85.5 -69c20.667 -6.66699 40 -16.167 58 -28.5s33.5 -27 46.5 -44s23.167 -36.167 30.5 -57.5s11 -44 11 -68
c0 -37.333 -6.33301 -71.666 -19 -102.999s-30.5 -58.333 -53.5 -81s-50.667 -40.334 -83 -53.001s-68.5 -19 -108.5 -19c-13.333 0 -27 0.666992 -41 2s-26.667 4.33301 -38 9v122c2.66699 -2 7.33398 -3.66699 14.001 -5s14 -2.5 22 -3.5s15.833 -1.66699 23.5 -2
s13.5 -0.5 17.5 -0.5c18 0 34.833 3.33301 50.5 10s29.334 16 41.001 28s20.667 26.167 27 42.5s9.5 33.833 9.5 52.5c0 18 -3.66699 34.833 -11 50.5s-17.666 29.5 -30.999 41.5s-29.833 21.5 -49.5 28.5s-41.5 10.5 -65.5 10.5h-26v123h26c40 0 72.167 11.667 96.5 35
s36.5 52.333 36.5 87c0 16.667 -2.83301 32.167 -8.5 46.5s-13.5 27 -23.5 38s-22.333 19.667 -37 26s-31 9.5 -49 9.5c-37.333 0 -67.166 -10.333 -89.499 -31s-33.5 -52 -33.5 -94v-639c0 -45.333 -3.66699 -83.5 -11 -114.5s-19.666 -56.167 -36.999 -75.5
s-40.5 -33.333 -69.5 -42s-65.167 -13 -108.5 -13h-21v127z" />
    <glyph glyph-name="agrave" unicode="&#xe0;" horiz-adv-x="671" 
d="M308 -12c-35.333 0 -70.1699 6.83203 -104.503 20.499s-65.166 33.5 -92.499 59.5s-49.333 57.833 -66 95.5s-25 80.5 -25 128.5c0 48.667 8.16699 91.834 24.5 129.501s38 69.5 65 95.5s58 45.833 93 59.5s70.833 20.5 107.5 20.5c38.667 0 74.334 -7.33301 107.001 -22
s59.667 -34.667 81 -60v70h135v-585h-135v76c-21.333 -27.333 -48.666 -48.833 -81.999 -64.5s-69.333 -23.5 -108 -23.5zM329.996 111.999c25.333 0 48.666 4.66504 69.999 13.998s39.666 22.333 54.999 39s27.5 36 36.5 58s13.5 45.667 13.5 71c0 24.667 -4.5 48 -13.5 70
s-21.167 41.167 -36.5 57.5s-33.666 29.166 -54.999 38.499s-44.666 14 -69.999 14c-24.667 0 -47.834 -4.66699 -69.501 -14s-40.5 -22 -56.5 -38s-28.5 -35 -37.5 -57s-13.5 -45.667 -13.5 -71s4.5 -49.166 13.5 -71.499s21.5 -41.666 37.5 -57.999
s34.833 -29.166 56.5 -38.499s44.834 -14 69.501 -14zM135.996 814.997h127l114 -170h-91z" />
    <glyph glyph-name="aacute" unicode="&#xe1;" horiz-adv-x="671" 
d="M308 -12c-35.333 0 -70.1699 6.83203 -104.503 20.499s-65.166 33.5 -92.499 59.5s-49.333 57.833 -66 95.5s-25 80.5 -25 128.5c0 48.667 8.16699 91.834 24.5 129.501s38 69.5 65 95.5s58 45.833 93 59.5s70.833 20.5 107.5 20.5c38.667 0 74.334 -7.33301 107.001 -22
s59.667 -34.667 81 -60v70h135v-585h-135v76c-21.333 -27.333 -48.666 -48.833 -81.999 -64.5s-69.333 -23.5 -108 -23.5zM329.996 111.999c25.333 0 48.666 4.66504 69.999 13.998s39.666 22.333 54.999 39s27.5 36 36.5 58s13.5 45.667 13.5 71c0 24.667 -4.5 48 -13.5 70
s-21.167 41.167 -36.5 57.5s-33.666 29.166 -54.999 38.499s-44.666 14 -69.999 14c-24.667 0 -47.834 -4.66699 -69.501 -14s-40.5 -22 -56.5 -38s-28.5 -35 -37.5 -57s-13.5 -45.667 -13.5 -71s4.5 -49.166 13.5 -71.499s21.5 -41.666 37.5 -57.999
s34.833 -29.166 56.5 -38.499s44.834 -14 69.501 -14zM385.996 814.997h126l-150 -170h-91z" />
    <glyph glyph-name="acircumflex" unicode="&#xe2;" horiz-adv-x="671" 
d="M308 -12c-35.333 0 -70.1699 6.83203 -104.503 20.499s-65.166 33.5 -92.499 59.5s-49.333 57.833 -66 95.5s-25 80.5 -25 128.5c0 48.667 8.16699 91.834 24.5 129.501s38 69.5 65 95.5s58 45.833 93 59.5s70.833 20.5 107.5 20.5c38.667 0 74.334 -7.33301 107.001 -22
s59.667 -34.667 81 -60v70h135v-585h-135v76c-21.333 -27.333 -48.666 -48.833 -81.999 -64.5s-69.333 -23.5 -108 -23.5zM329.996 111.999c25.333 0 48.666 4.66504 69.999 13.998s39.666 22.333 54.999 39s27.5 36 36.5 58s13.5 45.667 13.5 71c0 24.667 -4.5 48 -13.5 70
s-21.167 41.167 -36.5 57.5s-33.666 29.166 -54.999 38.499s-44.666 14 -69.999 14c-24.667 0 -47.834 -4.66699 -69.501 -14s-40.5 -22 -56.5 -38s-28.5 -35 -37.5 -57s-13.5 -45.667 -13.5 -71s4.5 -49.166 13.5 -71.499s21.5 -41.666 37.5 -57.999
s34.833 -29.166 56.5 -38.499s44.834 -14 69.501 -14zM285.996 811.997h84l119 -170h-102l-59 89l-59 -89h-102z" />
    <glyph glyph-name="atilde" unicode="&#xe3;" horiz-adv-x="671" 
d="M308 -12c-35.333 0 -70.1699 6.83203 -104.503 20.499s-65.166 33.5 -92.499 59.5s-49.333 57.833 -66 95.5s-25 80.5 -25 128.5c0 48.667 8.16699 91.834 24.5 129.501s38 69.5 65 95.5s58 45.833 93 59.5s70.833 20.5 107.5 20.5c38.667 0 74.334 -7.33301 107.001 -22
s59.667 -34.667 81 -60v70h135v-585h-135v76c-21.333 -27.333 -48.666 -48.833 -81.999 -64.5s-69.333 -23.5 -108 -23.5zM329.996 111.999c25.333 0 48.666 4.66504 69.999 13.998s39.666 22.333 54.999 39s27.5 36 36.5 58s13.5 45.667 13.5 71c0 24.667 -4.5 48 -13.5 70
s-21.167 41.167 -36.5 57.5s-33.666 29.166 -54.999 38.499s-44.666 14 -69.999 14c-24.667 0 -47.834 -4.66699 -69.501 -14s-40.5 -22 -56.5 -38s-28.5 -35 -37.5 -57s-13.5 -45.667 -13.5 -71s4.5 -49.166 13.5 -71.499s21.5 -41.666 37.5 -57.999
s34.833 -29.166 56.5 -38.499s44.834 -14 69.501 -14zM162.996 644.997c0 40.667 9.16699 73.332 27.5 97.999s43.833 37 76.5 37c16.667 0 31 -2.5 43 -7.5s23.333 -10.5 34 -16.5c9.33301 -6.66699 18.166 -12.5 26.499 -17.5s16.833 -7.5 25.5 -7.5c18.667 0 28 15 28 45
h78c0 -41.333 -8.66699 -74.166 -26 -98.499s-43.666 -36.5 -78.999 -36.5c-19.333 0 -35.833 3.5 -49.5 10.5s-26.167 13.833 -37.5 20.5c-7.33301 4.66699 -14.5 8.66699 -21.5 12s-14.167 5 -21.5 5c-17.333 0 -26 -14.667 -26 -44h-78z" />
    <glyph glyph-name="adieresis" unicode="&#xe4;" horiz-adv-x="671" 
d="M308 -12c-35.333 0 -70.1699 6.83203 -104.503 20.499s-65.166 33.5 -92.499 59.5s-49.333 57.833 -66 95.5s-25 80.5 -25 128.5c0 48.667 8.16699 91.834 24.5 129.501s38 69.5 65 95.5s58 45.833 93 59.5s70.833 20.5 107.5 20.5c38.667 0 74.334 -7.33301 107.001 -22
s59.667 -34.667 81 -60v70h135v-585h-135v76c-21.333 -27.333 -48.666 -48.833 -81.999 -64.5s-69.333 -23.5 -108 -23.5zM329.996 111.999c25.333 0 48.666 4.66504 69.999 13.998s39.666 22.333 54.999 39s27.5 36 36.5 58s13.5 45.667 13.5 71c0 24.667 -4.5 48 -13.5 70
s-21.167 41.167 -36.5 57.5s-33.666 29.166 -54.999 38.499s-44.666 14 -69.999 14c-24.667 0 -47.834 -4.66699 -69.501 -14s-40.5 -22 -56.5 -38s-28.5 -35 -37.5 -57s-13.5 -45.667 -13.5 -71s4.5 -49.166 13.5 -71.499s21.5 -41.666 37.5 -57.999
s34.833 -29.166 56.5 -38.499s44.834 -14 69.501 -14zM155.996 712.997c0 21.333 6.50098 38.666 19.501 51.999s30.5 20 52.5 20c22.667 0 40.334 -6.66699 53.001 -20s19 -30.666 19 -51.999s-6.33301 -38.5 -19 -51.5s-30.334 -19.5 -53.001 -19.5
s-40.334 6.5 -53.001 19.5s-19 30.167 -19 51.5zM346.997 712.997c0 21.333 6.49902 38.666 19.499 51.999s30.5 20 52.5 20s39.5 -6.66699 52.5 -20s19.5 -30.666 19.5 -51.999s-6.5 -38.5 -19.5 -51.5s-30.5 -19.5 -52.5 -19.5c-23.333 0 -41.166 6.5 -53.499 19.5
s-18.5 30.167 -18.5 51.5z" />
    <glyph glyph-name="aring" unicode="&#xe5;" horiz-adv-x="671" 
d="M308 -12c-35.333 0 -70.1699 6.83203 -104.503 20.499s-65.166 33.5 -92.499 59.5s-49.333 57.833 -66 95.5s-25 80.5 -25 128.5c0 48.667 8.16699 91.834 24.5 129.501s38 69.5 65 95.5s58 45.833 93 59.5s70.833 20.5 107.5 20.5c38.667 0 74.334 -7.33301 107.001 -22
s59.667 -34.667 81 -60v70h135v-585h-135v76c-21.333 -27.333 -48.666 -48.833 -81.999 -64.5s-69.333 -23.5 -108 -23.5zM329.996 111.999c25.333 0 48.666 4.66504 69.999 13.998s39.666 22.333 54.999 39s27.5 36 36.5 58s13.5 45.667 13.5 71c0 24.667 -4.5 48 -13.5 70
s-21.167 41.167 -36.5 57.5s-33.666 29.166 -54.999 38.499s-44.666 14 -69.999 14c-24.667 0 -47.834 -4.66699 -69.501 -14s-40.5 -22 -56.5 -38s-28.5 -35 -37.5 -57s-13.5 -45.667 -13.5 -71s4.5 -49.166 13.5 -71.499s21.5 -41.666 37.5 -57.999
s34.833 -29.166 56.5 -38.499s44.834 -14 69.501 -14zM328.996 639.997c-16 0 -31 3 -45 9s-26.333 14.333 -37 25s-19 23 -25 37s-9 29 -9 45c0 16.667 3 32.167 9 46.5s14.333 26.833 25 37.5s23 19 37 25s29 9 45 9s31.167 -3 45.5 -9s26.833 -14.333 37.5 -25
s19 -23.167 25 -37.5s9 -29.833 9 -46.5c0 -16 -3 -31 -9 -45s-14.333 -26.333 -25 -37s-23.167 -19 -37.5 -25s-29.5 -9 -45.5 -9zM328.996 716.997c11.333 0 21 3.83301 29 11.5s12 16.834 12 27.501c0 11.333 -4 21 -12 29s-17.667 12 -29 12s-20.833 -4 -28.5 -12
s-11.5 -17.667 -11.5 -29c0 -10.667 3.83301 -19.834 11.5 -27.501s17.167 -11.5 28.5 -11.5z" />
    <glyph glyph-name="ae" unicode="&#xe6;" horiz-adv-x="1035" 
d="M719 -12c-56 0 -105.161 11 -147.494 33s-76.5 52 -102.5 90c-10 -16.667 -22.833 -32.5 -38.5 -47.5s-33.834 -28.167 -54.501 -39.5s-43.334 -20.166 -68.001 -26.499s-50.667 -9.5 -78 -9.5c-36.667 0 -68.334 4.16699 -95.001 12.5s-48.667 20 -66 35
s-30.166 32.5 -38.499 52.5s-12.5 42 -12.5 66c0 27.333 4.83301 51 14.5 71s23.167 37.333 40.5 52s37.833 26.834 61.5 36.501s49.167 17.834 76.5 24.501c24.667 6.66699 48.667 12.667 72 18s44.166 11.166 62.499 17.499s33.166 13.666 44.499 21.999
s17 18.833 17 31.5c0 17.333 -9 32.166 -27 44.499s-45 18.5 -81 18.5c-48.667 0 -84.334 -10.833 -107.001 -32.5s-34 -47.5 -34 -77.5v-3h-124v2c0 68.667 22.833 122.167 68.5 160.5s109.167 57.5 190.5 57.5c48 0 90 -7.16699 126 -21.5s64 -35.5 84 -63.5
c26.667 26.667 57.834 47.5 93.501 62.5s74.5 22.5 116.5 22.5c43.333 0 83.333 -7.5 120 -22.5s68.5 -36 95.5 -63s48.167 -58.833 63.5 -95.5s23 -76.667 23 -120v-47h-477c8 -42.667 27.833 -77 59.5 -103s72.167 -39 121.5 -39c38 0 71.667 9.83301 101 29.5
s51 45.167 65 76.5l114 -49c-24.667 -53.333 -61.334 -96 -110.001 -128s-105.334 -48 -170.001 -48zM237.006 100c24 0 46.332 4.8291 66.999 14.4961s38.667 21.334 54 35.001s27.666 28.334 36.999 44.001s15 29.5 17 41.5c0 0.666992 0.166992 3.83398 0.5 9.50098
s0.333008 12 0 19s-0.666016 13.5 -0.999023 19.5s-0.833008 9.66699 -1.5 11c-3.33301 -9.33301 -17 -18.166 -41 -26.499s-55 -16.833 -93 -25.5c-41.333 -9.33301 -72.166 -19.833 -92.499 -31.5s-30.5 -29.167 -30.5 -52.5c0 -17.333 6.5 -31.333 19.5 -42
s34.5 -16 64.5 -16zM713.005 477.996c-40 0 -74.332 -10.667 -102.999 -32s-49.667 -49.333 -63 -84h330c-11.333 38 -31.333 66.833 -60 86.5s-63.334 29.5 -104.001 29.5z" />
    <glyph glyph-name="ccedilla" unicode="&#xe7;" horiz-adv-x="617" 
d="M316 -245c-26.667 0 -52.4971 5.49707 -77.4971 16.4971s-47.167 25.167 -66.5 42.5l78 47c11.333 -9.33301 22.5 -17.333 33.5 -24s25.167 -10 42.5 -10c14.667 0 27.5 3 38.5 9s16.5 13.333 16.5 22c0 18 -19.333 27 -58 27h-50v107c-36.667 6 -70.334 18 -101.001 36
s-57.334 40.167 -80.001 66.5s-40.334 56.333 -53.001 90s-19 69.5 -19 107.5c0 42.667 7.83301 82.5 23.5 119.5s37.167 69.333 64.5 97s59.5 49.334 96.5 65.001s76.833 23.5 119.5 23.5c32.667 0 63.5 -4.5 92.5 -13.5s55.5 -21.5 79.5 -37.5s45 -35 63 -57
s32.667 -46.333 44 -73l-121 -51c-13.333 32 -33.833 57.5 -61.5 76.5s-59.5 28.5 -95.5 28.5c-24.667 0 -47.5 -4.66699 -68.5 -14s-39.333 -22 -55 -38s-27.834 -34.833 -36.501 -56.5s-13 -44.834 -13 -69.501c0 -24 4.33301 -46.833 13 -68.5s20.834 -40.5 36.501 -56.5
s34.167 -28.667 55.5 -38s44.333 -14 69 -14c38 0 70.5 10.167 97.5 30.5s47.167 46.5 60.5 78.5l121 -52c-21.333 -50 -53 -91.5 -95 -124.5s-93 -52.167 -153 -57.5v-48c37.333 1.33301 65.833 -5.5 85.5 -20.5s29.5 -34.833 29.5 -59.5c0 -15.333 -4 -29.666 -12 -42.999
s-19 -24.666 -33 -33.999s-30.5 -16.666 -49.5 -21.999s-39.5 -8 -61.5 -8z" />
    <glyph glyph-name="egrave" unicode="&#xe8;" 
d="M329 -12c-46 0 -87.999 7.83301 -125.999 23.5s-70.5 37.167 -97.5 64.5s-48 59.5 -63 96.5s-22.5 76.5 -22.5 118.5c0 42.667 7.83301 82.667 23.5 120s37.167 69.666 64.5 96.999s59.5 49 96.5 65s76.833 24 119.5 24c43.333 0 83.5 -7.5 120.5 -22.5
s68.833 -36 95.5 -63s47.5 -58.833 62.5 -95.5s22.5 -76.667 22.5 -120v-51h-476c9.33301 -41.333 29.666 -74.666 60.999 -99.999s71 -38 119 -38c38 0 71 9.33301 99 28s49 43.667 63 75l111 -64c-25.333 -47.333 -60.833 -85.5 -106.5 -114.5
s-101.167 -43.5 -166.5 -43.5zM324.001 478c-40.667 0 -75.833 -10.999 -105.5 -32.999s-50.5 -51 -62.5 -87h332c-10 39.333 -29.333 69.166 -58 89.499s-64 30.5 -106 30.5zM156.002 810.001h127l114 -170h-91z" />
    <glyph glyph-name="eacute" unicode="&#xe9;" 
d="M329 -12c-46 0 -87.999 7.83301 -125.999 23.5s-70.5 37.167 -97.5 64.5s-48 59.5 -63 96.5s-22.5 76.5 -22.5 118.5c0 42.667 7.83301 82.667 23.5 120s37.167 69.666 64.5 96.999s59.5 49 96.5 65s76.833 24 119.5 24c43.333 0 83.5 -7.5 120.5 -22.5
s68.833 -36 95.5 -63s47.5 -58.833 62.5 -95.5s22.5 -76.667 22.5 -120v-51h-476c9.33301 -41.333 29.666 -74.666 60.999 -99.999s71 -38 119 -38c38 0 71 9.33301 99 28s49 43.667 63 75l111 -64c-25.333 -47.333 -60.833 -85.5 -106.5 -114.5
s-101.167 -43.5 -166.5 -43.5zM324.001 478c-40.667 0 -75.833 -10.999 -105.5 -32.999s-50.5 -51 -62.5 -87h332c-10 39.333 -29.333 69.166 -58 89.499s-64 30.5 -106 30.5zM394.002 815.001h126l-150 -170h-91z" />
    <glyph glyph-name="ecircumflex" unicode="&#xea;" 
d="M329 -12c-46 0 -87.999 7.83301 -125.999 23.5s-70.5 37.167 -97.5 64.5s-48 59.5 -63 96.5s-22.5 76.5 -22.5 118.5c0 42.667 7.83301 82.667 23.5 120s37.167 69.666 64.5 96.999s59.5 49 96.5 65s76.833 24 119.5 24c43.333 0 83.5 -7.5 120.5 -22.5
s68.833 -36 95.5 -63s47.5 -58.833 62.5 -95.5s22.5 -76.667 22.5 -120v-51h-476c9.33301 -41.333 29.666 -74.666 60.999 -99.999s71 -38 119 -38c38 0 71 9.33301 99 28s49 43.667 63 75l111 -64c-25.333 -47.333 -60.833 -85.5 -106.5 -114.5
s-101.167 -43.5 -166.5 -43.5zM324.001 478c-40.667 0 -75.833 -10.999 -105.5 -32.999s-50.5 -51 -62.5 -87h332c-10 39.333 -29.333 69.166 -58 89.499s-64 30.5 -106 30.5zM287.002 809.001h84l119 -170h-102l-59 89l-59 -89h-102z" />
    <glyph glyph-name="edieresis" unicode="&#xeb;" 
d="M329 -12c-46 0 -87.999 7.83301 -125.999 23.5s-70.5 37.167 -97.5 64.5s-48 59.5 -63 96.5s-22.5 76.5 -22.5 118.5c0 42.667 7.83301 82.667 23.5 120s37.167 69.666 64.5 96.999s59.5 49 96.5 65s76.833 24 119.5 24c43.333 0 83.5 -7.5 120.5 -22.5
s68.833 -36 95.5 -63s47.5 -58.833 62.5 -95.5s22.5 -76.667 22.5 -120v-51h-476c9.33301 -41.333 29.666 -74.666 60.999 -99.999s71 -38 119 -38c38 0 71 9.33301 99 28s49 43.667 63 75l111 -64c-25.333 -47.333 -60.833 -85.5 -106.5 -114.5
s-101.167 -43.5 -166.5 -43.5zM324.001 478c-40.667 0 -75.833 -10.999 -105.5 -32.999s-50.5 -51 -62.5 -87h332c-10 39.333 -29.333 69.166 -58 89.499s-64 30.5 -106 30.5zM156.002 703.001c0 21.333 6.50098 38.666 19.501 51.999s30.5 20 52.5 20
c22.667 0 40.334 -6.66699 53.001 -20s19 -30.666 19 -51.999s-6.33301 -38.5 -19 -51.5s-30.334 -19.5 -53.001 -19.5s-40.334 6.5 -53.001 19.5s-19 30.167 -19 51.5zM347.003 703.001c0 21.333 6.49902 38.666 19.499 51.999s30.5 20 52.5 20s39.5 -6.66699 52.5 -20
s19.5 -30.666 19.5 -51.999s-6.5 -38.5 -19.5 -51.5s-30.5 -19.5 -52.5 -19.5c-23.333 0 -41.166 6.5 -53.499 19.5s-18.5 30.167 -18.5 51.5z" />
    <glyph glyph-name="igrave" unicode="&#xec;" horiz-adv-x="214" 
d="M39 585h136v-585h-136v585zM-91 805h127l114 -170h-91z" />
    <glyph glyph-name="iacute" unicode="&#xed;" horiz-adv-x="214" 
d="M170 805h126l-150 -170h-91zM39 585h136v-585h-136v585z" />
    <glyph glyph-name="icircumflex" unicode="&#xee;" horiz-adv-x="214" 
d="M39 585h136v-585h-136v585zM68 805h84l119 -170h-102l-59 89l-59 -89h-102z" />
    <glyph glyph-name="idieresis" unicode="&#xef;" horiz-adv-x="214" 
d="M145 791h135v-161h-135v161zM-68 791h136v-161h-136v161zM39 585h136v-585h-136v585z" />
    <glyph glyph-name="eth" unicode="&#xf0;" horiz-adv-x="661" 
d="M249 718l-73.4971 55l-86.5 61h193l32 -25.5l29 -24.5l71 50h126l-140 -99c41.333 -38 76.5 -74.667 105.5 -110s52.5 -70.833 70.5 -106.5s31 -72 39 -109s12 -76.167 12 -117.5c0 -40.667 -7.83301 -79.5 -23.5 -116.5s-37.167 -69.333 -64.5 -97
s-59.5 -49.667 -96.5 -66s-76.833 -24.5 -119.5 -24.5c-40.667 0 -79.334 7.5 -116.001 22.5s-68.834 36.167 -96.501 63.5s-49.667 60 -66 98s-24.5 79.667 -24.5 125c0 42 8 81.167 24 117.5s37.167 67.833 63.5 94.5s56.666 47.667 90.999 63s69.833 23 106.5 23
c25.333 0 46.833 -2.83301 64.5 -8.5s33.167 -13.5 46.5 -23.5c-26.667 34.667 -62.667 70.667 -108 108l-64 -45h-128zM323.003 115c24 0 46.333 4.66699 67 14s38.667 22 54 38s27.333 34.833 36 56.5s13 44.5 13 68.5c0 24.667 -4.33301 47.834 -13 69.501
s-20.667 40.5 -36 56.5s-33.333 28.667 -54 38s-43 14 -67 14s-46.5 -4.66699 -67.5 -14s-39 -22 -54 -38s-26.833 -34.833 -35.5 -56.5s-13 -44.834 -13 -69.501c0 -24 4.33301 -46.833 13 -68.5s20.5 -40.5 35.5 -56.5s33 -28.667 54 -38s43.5 -14 67.5 -14z" />
    <glyph glyph-name="ntilde" unicode="&#xf1;" horiz-adv-x="618" 
d="M39 585l134 0.000976562v-72c19.333 25.333 43.833 45.666 73.5 60.999s63.5 23 101.5 23c72.667 0 129.5 -22 170.5 -66s61.5 -105.333 61.5 -184v-347h-137v333c0 45.333 -11 81.166 -33 107.499s-55 39.5 -99 39.5c-38.667 0 -71.167 -13.667 -97.5 -41
s-39.5 -66.666 -39.5 -117.999v-321h-135v585zM167 646.001c0 40.667 9.16699 73.332 27.5 97.999s43.833 37 76.5 37c16.667 0 31 -2.5 43 -7.5s23.333 -10.5 34 -16.5c9.33301 -6.66699 18.166 -12.5 26.499 -17.5s16.833 -7.5 25.5 -7.5c18.667 0 28 15 28 45h78
c0 -41.333 -8.66699 -74.166 -26 -98.499s-43.666 -36.5 -78.999 -36.5c-19.333 0 -35.833 3.5 -49.5 10.5s-26.167 13.833 -37.5 20.5c-7.33301 4.66699 -14.5 8.66699 -21.5 12s-14.167 5 -21.5 5c-17.333 0 -26 -14.667 -26 -44h-78z" />
    <glyph glyph-name="ograve" unicode="&#xf2;" 
d="M323 -12c-42 0 -81.5 7.83398 -118.5 23.501s-69.167 37.334 -96.5 65.001s-48.833 60 -64.5 97s-23.5 76.5 -23.5 118.5c0 32 4.5 62.333 13.5 91s21.667 55.167 38 79.5s35.833 46 58.5 65s47.667 34.167 75 45.5l-129 147h127l84 -125c6 0.666992 12 1.16699 18 1.5
s12 0.5 18 0.5c42 0 81.333 -7.83301 118 -23.5s68.834 -37.334 96.501 -65.001s49.334 -60 65.001 -97s23.5 -76.833 23.5 -119.5c0 -42 -7.83301 -81.5 -23.5 -118.5s-37.334 -69.333 -65.001 -97s-59.834 -49.334 -96.501 -65.001s-76 -23.5 -118 -23.5zM323 115.001
c24 0 46.333 4.66699 67 14s38.667 22 54 38s27.333 34.833 36 56.5s13 44.5 13 68.5c0 24.667 -4.33301 47.834 -13 69.501s-20.667 40.5 -36 56.5s-33.333 28.667 -54 38s-43 14 -67 14s-46.5 -4.66699 -67.5 -14s-39 -22 -54 -38s-26.833 -34.833 -35.5 -56.5
s-13 -44.834 -13 -69.501c0 -24 4.33301 -46.833 13 -68.5s20.5 -40.5 35.5 -56.5s33 -28.667 54 -38s43.5 -14 67.5 -14z" />
    <glyph glyph-name="oacute" unicode="&#xf3;" 
d="M392 815h126l-150 -170h-91zM323 -12c-42 0 -81.5 7.83301 -118.5 23.5s-69.167 37.334 -96.5 65.001s-48.833 60 -64.5 97s-23.5 76.5 -23.5 118.5c0 42.667 7.83301 82.5 23.5 119.5s37.167 69.333 64.5 97s59.5 49.334 96.5 65.001s76.5 23.5 118.5 23.5
s81.333 -7.83301 118 -23.5s68.834 -37.334 96.501 -65.001s49.334 -60 65.001 -97s23.5 -76.833 23.5 -119.5c0 -42 -7.83301 -81.5 -23.5 -118.5s-37.334 -69.333 -65.001 -97s-59.834 -49.334 -96.501 -65.001s-76 -23.5 -118 -23.5zM323 115c24 0 46.333 4.66699 67 14
s38.667 22 54 38s27.333 34.833 36 56.5s13 44.5 13 68.5c0 24.667 -4.33301 47.834 -13 69.501s-20.667 40.5 -36 56.5s-33.333 28.667 -54 38s-43 14 -67 14s-46.5 -4.66699 -67.5 -14s-39 -22 -54 -38s-26.833 -34.833 -35.5 -56.5s-13 -44.834 -13 -69.501
c0 -24 4.33301 -46.833 13 -68.5s20.5 -40.5 35.5 -56.5s33 -28.667 54 -38s43.5 -14 67.5 -14z" />
    <glyph glyph-name="ocircumflex" unicode="&#xf4;" 
d="M323 -12c-42 0 -81.5 7.83301 -118.5 23.5s-69.167 37.334 -96.5 65.001s-48.833 60 -64.5 97s-23.5 76.5 -23.5 118.5c0 42.667 7.83301 82.5 23.5 119.5s37.167 69.333 64.5 97s59.5 49.334 96.5 65.001s76.5 23.5 118.5 23.5s81.333 -7.83301 118 -23.5
s68.834 -37.334 96.501 -65.001s49.334 -60 65.001 -97s23.5 -76.833 23.5 -119.5c0 -42 -7.83301 -81.5 -23.5 -118.5s-37.334 -69.333 -65.001 -97s-59.834 -49.334 -96.501 -65.001s-76 -23.5 -118 -23.5zM323 115c24 0 46.333 4.66699 67 14s38.667 22 54 38
s27.333 34.833 36 56.5s13 44.5 13 68.5c0 24.667 -4.33301 47.834 -13 69.501s-20.667 40.5 -36 56.5s-33.333 28.667 -54 38s-43 14 -67 14s-46.5 -4.66699 -67.5 -14s-39 -22 -54 -38s-26.833 -34.833 -35.5 -56.5s-13 -44.834 -13 -69.501
c0 -24 4.33301 -46.833 13 -68.5s20.5 -40.5 35.5 -56.5s33 -28.667 54 -38s43.5 -14 67.5 -14zM284 805h84l119 -170h-102l-59 89l-59 -89h-102z" />
    <glyph glyph-name="otilde" unicode="&#xf5;" 
d="M323 -12c-42 0 -81.5 7.83301 -118.5 23.5s-69.167 37.334 -96.5 65.001s-48.833 60 -64.5 97s-23.5 76.5 -23.5 118.5c0 42.667 7.83301 82.5 23.5 119.5s37.167 69.333 64.5 97s59.5 49.334 96.5 65.001s76.5 23.5 118.5 23.5s81.333 -7.83301 118 -23.5
s68.834 -37.334 96.501 -65.001s49.334 -60 65.001 -97s23.5 -76.833 23.5 -119.5c0 -42 -7.83301 -81.5 -23.5 -118.5s-37.334 -69.333 -65.001 -97s-59.834 -49.334 -96.501 -65.001s-76 -23.5 -118 -23.5zM323 115c24 0 46.333 4.66699 67 14s38.667 22 54 38
s27.333 34.833 36 56.5s13 44.5 13 68.5c0 24.667 -4.33301 47.834 -13 69.501s-20.667 40.5 -36 56.5s-33.333 28.667 -54 38s-43 14 -67 14s-46.5 -4.66699 -67.5 -14s-39 -22 -54 -38s-26.833 -34.833 -35.5 -56.5s-13 -44.834 -13 -69.501
c0 -24 4.33301 -46.833 13 -68.5s20.5 -40.5 35.5 -56.5s33 -28.667 54 -38s43.5 -14 67.5 -14zM165 643c0 40.667 9.16699 73.332 27.5 97.999s43.833 37 76.5 37c16.667 0 31 -2.5 43 -7.5s23.333 -10.5 34 -16.5c9.33301 -6.66699 18.166 -12.5 26.499 -17.5
s16.833 -7.5 25.5 -7.5c18.667 0 28 15 28 45h78c0 -41.333 -8.66699 -74.166 -26 -98.499s-43.666 -36.5 -78.999 -36.5c-19.333 0 -35.833 3.5 -49.5 10.5s-26.167 13.833 -37.5 20.5c-7.33301 4.66699 -14.5 8.66699 -21.5 12s-14.167 5 -21.5 5
c-17.333 0 -26 -14.667 -26 -44h-78z" />
    <glyph glyph-name="odieresis" unicode="&#xf6;" 
d="M154 703c0 21.333 6.50098 38.666 19.501 51.999s30.5 20 52.5 20c22.667 0 40.334 -6.66699 53.001 -20s19 -30.666 19 -51.999s-6.33301 -38.5 -19 -51.5s-30.334 -19.5 -53.001 -19.5s-40.334 6.5 -53.001 19.5s-19 30.167 -19 51.5zM345.001 703
c0 21.333 6.49902 38.666 19.499 51.999s30.5 20 52.5 20s39.5 -6.66699 52.5 -20s19.5 -30.666 19.5 -51.999s-6.5 -38.5 -19.5 -51.5s-30.5 -19.5 -52.5 -19.5c-23.333 0 -41.166 6.5 -53.499 19.5s-18.5 30.167 -18.5 51.5zM323 -12c-42 0 -81.5 7.83301 -118.5 23.5
s-69.167 37.334 -96.5 65.001s-48.833 60 -64.5 97s-23.5 76.5 -23.5 118.5c0 42.667 7.83301 82.5 23.5 119.5s37.167 69.333 64.5 97s59.5 49.334 96.5 65.001s76.5 23.5 118.5 23.5s81.333 -7.83301 118 -23.5s68.834 -37.334 96.501 -65.001s49.334 -60 65.001 -97
s23.5 -76.833 23.5 -119.5c0 -42 -7.83301 -81.5 -23.5 -118.5s-37.334 -69.333 -65.001 -97s-59.834 -49.334 -96.501 -65.001s-76 -23.5 -118 -23.5zM323 115c24 0 46.333 4.66699 67 14s38.667 22 54 38s27.333 34.833 36 56.5s13 44.5 13 68.5
c0 24.667 -4.33301 47.834 -13 69.501s-20.667 40.5 -36 56.5s-33.333 28.667 -54 38s-43 14 -67 14s-46.5 -4.66699 -67.5 -14s-39 -22 -54 -38s-26.833 -34.833 -35.5 -56.5s-13 -44.834 -13 -69.501c0 -24 4.33301 -46.833 13 -68.5s20.5 -40.5 35.5 -56.5
s33 -28.667 54 -38s43.5 -14 67.5 -14z" />
    <glyph glyph-name="divide" unicode="&#xf7;" horiz-adv-x="442" 
d="M36 422h370v-115h-370v115zM165 579h114v-117h-114v117zM165 267h114v-116h-114v116z" />
    <glyph glyph-name="oslash" unicode="&#xf8;" 
d="M323 -12c-26.667 0 -52.165 3.16699 -76.498 9.5s-47.166 15.166 -68.499 26.499l-19 -24h-139l73 92c-23.333 26.667 -41.333 57 -54 91s-19 70.333 -19 109c0 42.667 7.83301 82.5 23.5 119.5s37.167 69.333 64.5 97s59.5 49.334 96.5 65.001s76.5 23.5 118.5 23.5
c26 0 51 -3.16699 75 -9.5s46.667 -15.166 68 -26.499l19 24h139l-73 -92c23.333 -26.667 41.666 -57.167 54.999 -91.5s20 -70.833 20 -109.5c0 -42 -7.83301 -81.5 -23.5 -118.5s-37.334 -69.333 -65.001 -97s-59.834 -49.334 -96.501 -65.001s-76 -23.5 -118 -23.5z
M323.002 115c24 0 46.332 4.66797 66.999 14.001s38.834 22 54.501 38s27.834 34.833 36.501 56.5s13 44.5 13 68.5c0 17.333 -2.33301 34.166 -7 50.499s-11.334 31.5 -20.001 45.5l-207 -261c19.333 -8 40.333 -12 63 -12zM152.001 292.001
c0 -34.667 8.33398 -65.999 25.001 -93.999l207 260c-18.667 8 -39 12 -61 12c-24.667 0 -47.334 -4.66699 -68.001 -14s-38.667 -22 -54 -38s-27.333 -34.833 -36 -56.5s-13 -44.834 -13 -69.501z" />
    <glyph glyph-name="ugrave" unicode="&#xf9;" horiz-adv-x="608" 
d="M569 0h-134.001v67c-18.667 -24.667 -42 -44 -70 -58s-60.667 -21 -98 -21c-69.333 0 -124.166 22 -164.499 66s-60.5 105.333 -60.5 184v347h137v-333c0 -45.333 10.167 -81.166 30.5 -107.499s51.833 -39.5 94.5 -39.5c37.333 0 68.333 13.667 93 41
s37 66.666 37 117.999v321h135v-585zM117.999 797h127l114 -170h-91z" />
    <glyph glyph-name="uacute" unicode="&#xfa;" horiz-adv-x="608" 
d="M569 0h-134.001v67c-18.667 -24.667 -42 -44 -70 -58s-60.667 -21 -98 -21c-69.333 0 -124.166 22 -164.499 66s-60.5 105.333 -60.5 184v347h137v-333c0 -45.333 10.167 -81.166 30.5 -107.499s51.833 -39.5 94.5 -39.5c37.333 0 68.333 13.667 93 41
s37 66.666 37 117.999v321h135v-585zM363.999 794h126l-150 -170h-91z" />
    <glyph glyph-name="ucircumflex" unicode="&#xfb;" horiz-adv-x="608" 
d="M569 0h-134.001v67c-18.667 -24.667 -42 -44 -70 -58s-60.667 -21 -98 -21c-69.333 0 -124.166 22 -164.499 66s-60.5 105.333 -60.5 184v347h137v-333c0 -45.333 10.167 -81.166 30.5 -107.499s51.833 -39.5 94.5 -39.5c37.333 0 68.333 13.667 93 41
s37 66.666 37 117.999v321h135v-585zM259.999 805h84l119 -170h-102l-59 89l-59 -89h-102z" />
    <glyph glyph-name="udieresis" unicode="&#xfc;" horiz-adv-x="608" 
d="M569 0h-134.001v67c-18.667 -24.667 -42 -44 -70 -58s-60.667 -21 -98 -21c-69.333 0 -124.166 22 -164.499 66s-60.5 105.333 -60.5 184v347h137v-333c0 -45.333 10.167 -81.166 30.5 -107.499s51.833 -39.5 94.5 -39.5c37.333 0 68.333 13.667 93 41
s37 66.666 37 117.999v321h135v-585zM137.999 703c0 21.333 6.50098 38.666 19.501 51.999s30.5 20 52.5 20c22.667 0 40.334 -6.66699 53.001 -20s19 -30.666 19 -51.999s-6.33301 -38.5 -19 -51.5s-30.334 -19.5 -53.001 -19.5s-40.334 6.5 -53.001 19.5
s-19 30.167 -19 51.5zM329 703c0 21.333 6.49902 38.666 19.499 51.999s30.5 20 52.5 20s39.5 -6.66699 52.5 -20s19.5 -30.666 19.5 -51.999s-6.5 -38.5 -19.5 -51.5s-30.5 -19.5 -52.5 -19.5c-23.333 0 -41.166 6.5 -53.499 19.5s-18.5 30.167 -18.5 51.5z" />
    <glyph glyph-name="yacute" unicode="&#xfd;" horiz-adv-x="618" 
d="M246 29l-240 556h144l163 -394l154 394h142l-349 -855h-137zM372 781h126l-150 -170h-91z" />
    <glyph glyph-name="thorn" unicode="&#xfe;" horiz-adv-x="670" 
d="M365 -12c-42 0 -79.333 8.5 -112 25.5s-59.334 39.167 -80.001 66.5v-349h-134v1123h134v-348c20.667 26.667 47.334 48.5 80.001 65.5s70 25.5 112 25.5c36.667 0 72.167 -6.66699 106.5 -20s64.666 -33 90.999 -59s47.5 -57.667 63.5 -95s24 -80 24 -128
c0 -48.667 -8.16699 -92 -24.5 -130s-37.833 -70.167 -64.5 -96.5s-57.167 -46.333 -91.5 -60s-69.166 -20.5 -104.499 -20.5zM343 112c25.333 0 48.834 4.83496 70.501 14.502s40.334 22.667 56.001 39s27.834 35.666 36.501 57.999s13 46.166 13 71.499
c0 24.667 -4.33301 47.834 -13 69.501s-20.834 40.667 -36.501 57s-34.167 29.166 -55.5 38.499s-45 14 -71 14c-24.667 0 -47.667 -4.66699 -69 -14s-39.833 -22.166 -55.5 -38.499s-27.834 -35.5 -36.501 -57.5s-13 -45.333 -13 -70s4.5 -48 13.5 -70
s21.167 -41.333 36.5 -58s33.666 -29.834 54.999 -39.501s44.333 -14.5 69 -14.5z" />
    <glyph glyph-name="ydieresis" unicode="&#xff;" horiz-adv-x="618" 
d="M246 29l-240 556h144l163 -394l154 394h142l-349 -855h-137zM144 703c0 21.333 6.50098 38.666 19.501 51.999s30.5 20 52.5 20c22.667 0 40.334 -6.66699 53.001 -20s19 -30.666 19 -51.999s-6.33301 -38.5 -19 -51.5s-30.334 -19.5 -53.001 -19.5
s-40.334 6.5 -53.001 19.5s-19 30.167 -19 51.5zM335.001 703c0 21.333 6.49902 38.666 19.499 51.999s30.5 20 52.5 20s39.5 -6.66699 52.5 -20s19.5 -30.666 19.5 -51.999s-6.5 -38.5 -19.5 -51.5s-30.5 -19.5 -52.5 -19.5c-23.333 0 -41.166 6.5 -53.499 19.5
s-18.5 30.167 -18.5 51.5z" />
    <glyph glyph-name="Amacron" unicode="&#x100;" horiz-adv-x="687" 
d="M275 730h137l260 -730h-142l-45 130h-283l-45 -130h-142zM248 260h192l-96 277zM213 866h264v-86h-264v86z" />
    <glyph glyph-name="amacron" unicode="&#x101;" horiz-adv-x="671" 
d="M308 -12c-35.333 0 -70.1699 6.83203 -104.503 20.499s-65.166 33.5 -92.499 59.5s-49.333 57.833 -66 95.5s-25 80.5 -25 128.5c0 48.667 8.16699 91.834 24.5 129.501s38 69.5 65 95.5s58 45.833 93 59.5s70.833 20.5 107.5 20.5c38.667 0 74.334 -7.33301 107.001 -22
s59.667 -34.667 81 -60v70h135v-585h-135v76c-21.333 -27.333 -48.666 -48.833 -81.999 -64.5s-69.333 -23.5 -108 -23.5zM329.996 111.999c25.333 0 48.666 4.66504 69.999 13.998s39.666 22.333 54.999 39s27.5 36 36.5 58s13.5 45.667 13.5 71c0 24.667 -4.5 48 -13.5 70
s-21.167 41.167 -36.5 57.5s-33.666 29.166 -54.999 38.499s-44.666 14 -69.999 14c-24.667 0 -47.834 -4.66699 -69.501 -14s-40.5 -22 -56.5 -38s-28.5 -35 -37.5 -57s-13.5 -45.667 -13.5 -71s4.5 -49.166 13.5 -71.499s21.5 -41.666 37.5 -57.999
s34.833 -29.166 56.5 -38.499s44.834 -14 69.501 -14zM202.996 731.997h264v-86h-264v86z" />
    <glyph glyph-name="Abreve" unicode="&#x102;" horiz-adv-x="687" 
d="M275 730h137l260 -730h-142l-45 130h-283l-45 -130h-142zM343 775c-27.333 0 -51.1689 4.33301 -71.502 13s-37.166 20.5 -50.499 35.5s-23.166 33 -29.499 54s-9.5 43.5 -9.5 67.5h85c0 -32 6.5 -55.667 19.5 -71s31.833 -23.666 56.5 -24.999
c24 1.33301 42.667 9.66602 56 24.999s20 39 20 71h86c0 -24 -3.66699 -46.5 -11 -67.5s-18 -39 -32 -54s-31 -26.833 -51 -35.5s-42.667 -13 -68 -13zM247.997 260h192l-96 277z" />
    <glyph glyph-name="abreve" unicode="&#x103;" horiz-adv-x="671" 
d="M308 -12c-35.333 0 -70.1699 6.83203 -104.503 20.499s-65.166 33.5 -92.499 59.5s-49.333 57.833 -66 95.5s-25 80.5 -25 128.5c0 48.667 8.16699 91.834 24.5 129.501s38 69.5 65 95.5s58 45.833 93 59.5s70.833 20.5 107.5 20.5c38.667 0 74.334 -7.33301 107.001 -22
s59.667 -34.667 81 -60v70h135v-585h-135v76c-21.333 -27.333 -48.666 -48.833 -81.999 -64.5s-69.333 -23.5 -108 -23.5zM329.996 111.999c25.333 0 48.666 4.66504 69.999 13.998s39.666 22.333 54.999 39s27.5 36 36.5 58s13.5 45.667 13.5 71c0 24.667 -4.5 48 -13.5 70
s-21.167 41.167 -36.5 57.5s-33.666 29.166 -54.999 38.499s-44.666 14 -69.999 14c-24.667 0 -47.834 -4.66699 -69.501 -14s-40.5 -22 -56.5 -38s-28.5 -35 -37.5 -57s-13.5 -45.667 -13.5 -71s4.5 -49.166 13.5 -71.499s21.5 -41.666 37.5 -57.999
s34.833 -29.166 56.5 -38.499s44.834 -14 69.501 -14zM322.996 642.997c-27.333 0 -51.1689 4.33301 -71.502 13s-37.166 20.5 -50.499 35.5s-23.166 33 -29.499 54s-9.5 43.5 -9.5 67.5h85c0 -32 6.5 -55.667 19.5 -71s31.833 -23.666 56.5 -24.999
c24 1.33301 42.667 9.66602 56 24.999s20 39 20 71h86c0 -24 -3.66699 -46.5 -11 -67.5s-18 -39 -32 -54s-31 -26.833 -51 -35.5s-42.667 -13 -68 -13z" />
    <glyph glyph-name="Aogonek" unicode="&#x104;" horiz-adv-x="687" 
d="M585 -227c-43.333 0 -78.168 10.501 -104.501 31.501s-39.5 46.833 -39.5 77.5c0 21.333 6 42 18 62s35 40.667 69 62l-43 124h-283l-45 -130h-142l260 730h137l260 -730l-66.5 -44.5c-17 -11.667 -30.167 -21.5 -39.5 -29.5s-15.666 -14.833 -18.999 -20.5
s-5 -11.834 -5 -18.501c0 -11.333 4.33301 -19.333 13 -24s18.667 -7 30 -7c13.333 0 24.333 3 33 9s17.667 12.667 27 20l79 -54c-17.333 -16 -38.833 -29.667 -64.5 -41s-50.5 -17 -74.5 -17zM247.998 260.001h192l-96 277z" />
    <glyph glyph-name="aogonek" unicode="&#x105;" horiz-adv-x="671" 
d="M308 -12c-35.333 0 -70.1699 6.83105 -104.503 20.498s-65.166 33.5 -92.499 59.5s-49.333 57.833 -66 95.5s-25 80.5 -25 128.5c0 48.667 8.16699 91.834 24.5 129.501s38 69.5 65 95.5s58 45.833 93 59.5s70.833 20.5 107.5 20.5c38.667 0 74.334 -7.33301 107.001 -22
s59.667 -34.667 81 -60v70h135v-585h1c-38 -23.333 -65 -44.666 -81 -63.999s-24 -35 -24 -47c0 -11.333 3.5 -19.666 10.5 -24.999s16.167 -8 27.5 -8c10 0 19.167 3 27.5 9s15.833 13 22.5 21l79 -55c-17.333 -18 -36.666 -32.5 -57.999 -43.5
s-46.666 -16.5 -75.999 -16.5c-38.667 0 -70.167 10.167 -94.5 30.5s-36.833 46.166 -37.5 77.499c-0.666992 25.333 5.16602 47.833 17.499 67.5s29.166 38.5 50.499 56.5v73c-21.333 -27.333 -48.666 -48.833 -81.999 -64.5s-69.333 -23.5 -108 -23.5zM329.996 111.998
c25.333 0 48.666 4.66504 69.999 13.998s39.666 22.333 54.999 39s27.5 36 36.5 58s13.5 45.667 13.5 71c0 24.667 -4.5 48 -13.5 70s-21.167 41.167 -36.5 57.5s-33.666 29.166 -54.999 38.499s-44.666 14 -69.999 14c-24.667 0 -47.834 -4.66699 -69.501 -14
s-40.5 -22 -56.5 -38s-28.5 -35 -37.5 -57s-13.5 -45.667 -13.5 -71s4.5 -49.166 13.5 -71.499s21.5 -41.666 37.5 -57.999s34.833 -29.166 56.5 -38.499s44.834 -14 69.501 -14z" />
    <glyph glyph-name="Cacute" unicode="&#x106;" horiz-adv-x="738" 
d="M464 950h126l-150 -170h-91zM397 -10c-56 0 -107.171 9.83105 -153.504 29.498s-85.833 46.334 -118.5 80.001s-58 73.334 -76 119.001s-27 94.5 -27 146.5c0 54.667 9.66699 104.834 29 150.501s45.833 85.167 79.5 118.5s73.334 59.333 119.001 78
s94.834 28 147.501 28c34 0 66.833 -4.33301 98.5 -13s61.334 -20.834 89.001 -36.501s52.667 -34.667 75 -57s41.5 -47.166 57.5 -74.499l-119 -76c-21.333 38 -48.333 68 -81 90s-72.667 33 -120 33c-34.667 0 -66.667 -6.16699 -96 -18.5s-54.666 -29.333 -75.999 -51
s-38 -47.167 -50 -76.5s-18 -61 -18 -95c0 -33.333 6 -64.5 18 -93.5s28.5 -54.333 49.5 -76s46 -38.667 75 -51s60.5 -18.5 94.5 -18.5c50.667 0 93.5 12.833 128.5 38.5s62.167 58.5 81.5 98.5l124 -65c-16 -30.667 -35.5 -58.834 -58.5 -84.501s-48.667 -47.667 -77 -66
s-59 -32.5 -92 -42.5s-67.5 -15 -103.5 -15z" />
    <glyph glyph-name="cacute" unicode="&#x107;" horiz-adv-x="617" 
d="M391 815h126l-150 -170h-91zM324 -12c-42.667 0 -82.5 8.00098 -119.5 24.001s-69.167 37.667 -96.5 65s-48.833 59.5 -64.5 96.5s-23.5 76.5 -23.5 118.5c0 42.667 7.83301 82.5 23.5 119.5s37.167 69.333 64.5 97s59.5 49.334 96.5 65.001s76.833 23.5 119.5 23.5
c32.667 0 63.5 -4.5 92.5 -13.5s55.5 -21.5 79.5 -37.5s45 -35 63 -57s32.667 -46.333 44 -73l-121 -51c-13.333 32 -33.833 57.5 -61.5 76.5s-59.5 28.5 -95.5 28.5c-24.667 0 -47.5 -4.66699 -68.5 -14s-39.333 -22 -55 -38s-27.834 -34.833 -36.501 -56.5
s-13 -44.834 -13 -69.501c0 -24 4.33301 -46.833 13 -68.5s20.834 -40.5 36.501 -56.5s34.167 -28.667 55.5 -38s44.333 -14 69 -14c38 0 70.5 10.167 97.5 30.5s47.167 46.5 60.5 78.5l121 -52c-11.333 -26.667 -26 -51.334 -44 -74.001s-38.833 -42.167 -62.5 -58.5
s-50.167 -29 -79.5 -38s-61 -13.5 -95 -13.5z" />
    <glyph glyph-name="Ccircumflex" unicode="&#x108;" horiz-adv-x="738" 
d="M397 -10c-56 0 -107.171 9.83105 -153.504 29.498s-85.833 46.334 -118.5 80.001s-58 73.334 -76 119.001s-27 94.5 -27 146.5c0 54.667 9.66699 104.834 29 150.501s45.833 85.167 79.5 118.5s73.334 59.333 119.001 78s94.834 28 147.501 28
c34 0 66.833 -4.33301 98.5 -13s61.334 -20.834 89.001 -36.501s52.667 -34.667 75 -57s41.5 -47.166 57.5 -74.499l-119 -76c-21.333 38 -48.333 68 -81 90s-72.667 33 -120 33c-34.667 0 -66.667 -6.16699 -96 -18.5s-54.666 -29.333 -75.999 -51s-38 -47.167 -50 -76.5
s-18 -61 -18 -95c0 -33.333 6 -64.5 18 -93.5s28.5 -54.333 49.5 -76s46 -38.667 75 -51s60.5 -18.5 94.5 -18.5c50.667 0 93.5 12.833 128.5 38.5s62.167 58.5 81.5 98.5l124 -65c-16 -30.667 -35.5 -58.834 -58.5 -84.501s-48.667 -47.667 -77 -66s-59 -32.5 -92 -42.5
s-67.5 -15 -103.5 -15zM358.996 949.998h84l119 -170h-102l-59 89l-59 -89h-102z" />
    <glyph glyph-name="ccircumflex" unicode="&#x109;" horiz-adv-x="617" 
d="M324 -12c-42.667 0 -82.5 8.00098 -119.5 24.001s-69.167 37.667 -96.5 65s-48.833 59.5 -64.5 96.5s-23.5 76.5 -23.5 118.5c0 42.667 7.83301 82.5 23.5 119.5s37.167 69.333 64.5 97s59.5 49.334 96.5 65.001s76.833 23.5 119.5 23.5c32.667 0 63.5 -4.5 92.5 -13.5
s55.5 -21.5 79.5 -37.5s45 -35 63 -57s32.667 -46.333 44 -73l-121 -51c-13.333 32 -33.833 57.5 -61.5 76.5s-59.5 28.5 -95.5 28.5c-24.667 0 -47.5 -4.66699 -68.5 -14s-39.333 -22 -55 -38s-27.834 -34.833 -36.501 -56.5s-13 -44.834 -13 -69.501
c0 -24 4.33301 -46.833 13 -68.5s20.834 -40.5 36.501 -56.5s34.167 -28.667 55.5 -38s44.333 -14 69 -14c38 0 70.5 10.167 97.5 30.5s47.167 46.5 60.5 78.5l121 -52c-11.333 -26.667 -26 -51.334 -44 -74.001s-38.833 -42.167 -62.5 -58.5s-50.167 -29 -79.5 -38
s-61 -13.5 -95 -13.5zM283 809.001h84l119 -170h-102l-59 89l-59 -89h-102z" />
    <glyph glyph-name="Cdotaccent" unicode="&#x10a;" horiz-adv-x="738" 
d="M397 -10c-56 0 -107.171 9.83105 -153.504 29.498s-85.833 46.334 -118.5 80.001s-58 73.334 -76 119.001s-27 94.5 -27 146.5c0 54.667 9.66699 104.834 29 150.501s45.833 85.167 79.5 118.5s73.334 59.333 119.001 78s94.834 28 147.501 28
c34 0 66.833 -4.33301 98.5 -13s61.334 -20.834 89.001 -36.501s52.667 -34.667 75 -57s41.5 -47.166 57.5 -74.499l-119 -76c-21.333 38 -48.333 68 -81 90s-72.667 33 -120 33c-34.667 0 -66.667 -6.16699 -96 -18.5s-54.666 -29.333 -75.999 -51s-38 -47.167 -50 -76.5
s-18 -61 -18 -95c0 -33.333 6 -64.5 18 -93.5s28.5 -54.333 49.5 -76s46 -38.667 75 -51s60.5 -18.5 94.5 -18.5c50.667 0 93.5 12.833 128.5 38.5s62.167 58.5 81.5 98.5l124 -65c-16 -30.667 -35.5 -58.834 -58.5 -84.501s-48.667 -47.667 -77 -66s-59 -32.5 -92 -42.5
s-67.5 -15 -103.5 -15zM323.996 848.998c0 23.333 7.16699 42.333 21.5 57s33.5 22 57.5 22c24.667 0 44 -7.33301 58 -22s21 -33.667 21 -57s-7 -42.166 -21 -56.499s-33.333 -21.5 -58 -21.5c-25.333 0 -44.833 7.16699 -58.5 21.5s-20.5 33.166 -20.5 56.499z" />
    <glyph glyph-name="cdotaccent" unicode="&#x10b;" horiz-adv-x="617" 
d="M324 -12c-42.667 0 -82.5 8.00098 -119.5 24.001s-69.167 37.667 -96.5 65s-48.833 59.5 -64.5 96.5s-23.5 76.5 -23.5 118.5c0 42.667 7.83301 82.5 23.5 119.5s37.167 69.333 64.5 97s59.5 49.334 96.5 65.001s76.833 23.5 119.5 23.5c32.667 0 63.5 -4.5 92.5 -13.5
s55.5 -21.5 79.5 -37.5s45 -35 63 -57s32.667 -46.333 44 -73l-121 -51c-13.333 32 -33.833 57.5 -61.5 76.5s-59.5 28.5 -95.5 28.5c-24.667 0 -47.5 -4.66699 -68.5 -14s-39.333 -22 -55 -38s-27.834 -34.833 -36.501 -56.5s-13 -44.834 -13 -69.501
c0 -24 4.33301 -46.833 13 -68.5s20.834 -40.5 36.501 -56.5s34.167 -28.667 55.5 -38s44.333 -14 69 -14c38 0 70.5 10.167 97.5 30.5s47.167 46.5 60.5 78.5l121 -52c-11.333 -26.667 -26 -51.334 -44 -74.001s-38.833 -42.167 -62.5 -58.5s-50.167 -29 -79.5 -38
s-61 -13.5 -95 -13.5zM244 713.001c0 23.333 7.16699 42.333 21.5 57s33.5 22 57.5 22c24.667 0 44 -7.33301 58 -22s21 -33.667 21 -57s-7 -42.166 -21 -56.499s-33.333 -21.5 -58 -21.5c-25.333 0 -44.833 7.16699 -58.5 21.5s-20.5 33.166 -20.5 56.499z" />
    <glyph glyph-name="Ccaron" unicode="&#x10c;" horiz-adv-x="738" 
d="M397 -10c-56 0 -107.171 9.83105 -153.504 29.498s-85.833 46.334 -118.5 80.001s-58 73.334 -76 119.001s-27 94.5 -27 146.5c0 54.667 9.66699 104.834 29 150.501s45.833 85.167 79.5 118.5s73.334 59.333 119.001 78s94.834 28 147.501 28
c34 0 66.833 -4.33301 98.5 -13s61.334 -20.834 89.001 -36.501s52.667 -34.667 75 -57s41.5 -47.166 57.5 -74.499l-119 -76c-21.333 38 -48.333 68 -81 90s-72.667 33 -120 33c-34.667 0 -66.667 -6.16699 -96 -18.5s-54.666 -29.333 -75.999 -51s-38 -47.167 -50 -76.5
s-18 -61 -18 -95c0 -33.333 6 -64.5 18 -93.5s28.5 -54.333 49.5 -76s46 -38.667 75 -51s60.5 -18.5 94.5 -18.5c50.667 0 93.5 12.833 128.5 38.5s62.167 58.5 81.5 98.5l124 -65c-16 -30.667 -35.5 -58.834 -58.5 -84.501s-48.667 -47.667 -77 -66s-59 -32.5 -92 -42.5
s-67.5 -15 -103.5 -15zM236.996 949.998h102l59 -89l59 89h102l-119 -170h-84z" />
    <glyph glyph-name="ccaron" unicode="&#x10d;" horiz-adv-x="617" 
d="M324 -12c-42.667 0 -82.5 8.00098 -119.5 24.001s-69.167 37.667 -96.5 65s-48.833 59.5 -64.5 96.5s-23.5 76.5 -23.5 118.5c0 42.667 7.83301 82.5 23.5 119.5s37.167 69.333 64.5 97s59.5 49.334 96.5 65.001s76.833 23.5 119.5 23.5c32.667 0 63.5 -4.5 92.5 -13.5
s55.5 -21.5 79.5 -37.5s45 -35 63 -57s32.667 -46.333 44 -73l-121 -51c-13.333 32 -33.833 57.5 -61.5 76.5s-59.5 28.5 -95.5 28.5c-24.667 0 -47.5 -4.66699 -68.5 -14s-39.333 -22 -55 -38s-27.834 -34.833 -36.501 -56.5s-13 -44.834 -13 -69.501
c0 -24 4.33301 -46.833 13 -68.5s20.834 -40.5 36.501 -56.5s34.167 -28.667 55.5 -38s44.333 -14 69 -14c38 0 70.5 10.167 97.5 30.5s47.167 46.5 60.5 78.5l121 -52c-11.333 -26.667 -26 -51.334 -44 -74.001s-38.833 -42.167 -62.5 -58.5s-50.167 -29 -79.5 -38
s-61 -13.5 -95 -13.5zM172 815.001h102l59 -89l59 89h102l-119 -170h-84z" />
    <glyph glyph-name="Dcaron" unicode="&#x10e;" horiz-adv-x="648" 
d="M42 730l199.002 0.000976562c61.333 0 116 -9.33301 164 -28s88.5 -44.334 121.5 -77.001s58 -71.167 75 -115.5s25.5 -92.5 25.5 -144.5s-9.33301 -100.333 -28 -145s-44.834 -83.167 -78.501 -115.5s-73.834 -57.833 -120.501 -76.5s-97.667 -28 -153 -28h-205v730z
M178.002 604.001v-478h53c40 0 76 6 108 18s59.167 28.833 81.5 50.5s39.666 47 51.999 76s18.5 60.5 18.5 94.5c0 35.333 -5.33301 67.5 -16 96.5s-27 54.167 -49 75.5s-49.667 37.833 -83 49.5s-72.666 17.5 -117.999 17.5h-47zM105.002 950.001h102l59 -89l59 89h102
l-119 -170h-84z" />
    <glyph glyph-name="dcaron" unicode="&#x10f;" horiz-adv-x="742" 
d="M308 -12c-35.333 0 -70.1689 6.83105 -104.502 20.498s-65.166 33.5 -92.499 59.5s-49.333 57.833 -66 95.5s-25 80.5 -25 128.5c0 48.667 8.16699 91.834 24.5 129.501s38 69.5 65 95.5s58 45.833 93 59.5s70.833 20.5 107.5 20.5c38 0 73.333 -7.16699 106 -21.5
s59.667 -34.166 81 -59.499v224h136v-740h-135v76c-21.333 -27.333 -48.666 -48.833 -81.999 -64.5s-69.333 -23.5 -108 -23.5zM329.997 111.998c25.333 0 48.666 4.66504 69.999 13.998s39.666 22.333 54.999 39s27.5 36 36.5 58s13.5 45.667 13.5 71
c0 24.667 -4.5 48 -13.5 70s-21.167 41.167 -36.5 57.5s-33.666 29.166 -54.999 38.499s-44.666 14 -69.999 14c-24.667 0 -47.834 -4.66699 -69.501 -14s-40.5 -22 -56.5 -38s-28.5 -35 -37.5 -57s-13.5 -45.667 -13.5 -71s4.5 -49.166 13.5 -71.499
s21.5 -41.666 37.5 -57.999s34.833 -29.166 56.5 -38.499s44.834 -14 69.501 -14zM678.997 731.996h109l-51 -171h-83z" />
    <glyph glyph-name="Dcroat" unicode="&#x110;" horiz-adv-x="695" 
d="M20 424l69.002 0.000976562v306h199c61.333 0 116 -9.33301 164 -28s88.5 -44.334 121.5 -77.001s58 -71.167 75 -115.5s25.5 -92.5 25.5 -144.5s-9.33301 -100.333 -28 -145s-44.834 -83.167 -78.501 -115.5s-73.834 -57.833 -120.501 -76.5s-97.667 -28 -153 -28h-205
v309h-69v115zM225.002 604.001v-180h165v-115h-165v-183h53c40 0 76 6 108 18s59.167 28.833 81.5 50.5s39.666 47 51.999 76s18.5 60.5 18.5 94.5c0 35.333 -5.33301 67.5 -16 96.5s-27 54.167 -49 75.5s-49.667 37.833 -83 49.5s-72.666 17.5 -117.999 17.5h-47z" />
    <glyph glyph-name="dcroat" unicode="&#x111;" horiz-adv-x="679" 
d="M430 682l66.9971 -0.00195312v58h136v-58h61v-74h-61v-608h-135v76c-21.333 -27.333 -48.666 -48.833 -81.999 -64.5s-69.333 -23.5 -108 -23.5c-35.333 0 -70.166 6.83301 -104.499 20.5s-65.166 33.5 -92.499 59.5s-49.333 57.833 -66 95.5s-25 80.5 -25 128.5
c0 48.667 8.16699 91.834 24.5 129.501s38 69.5 65 95.5s58 45.833 93 59.5s70.833 20.5 107.5 20.5c38 0 73.333 -7.16699 106 -21.5s59.667 -34.166 81 -59.499v92h-67v74zM329.997 111.998c25.333 0 48.666 4.66504 69.999 13.998s39.666 22.333 54.999 39
s27.5 36 36.5 58s13.5 45.667 13.5 71c0 24.667 -4.5 48 -13.5 70s-21.167 41.167 -36.5 57.5s-33.666 29.166 -54.999 38.499s-44.666 14 -69.999 14c-24.667 0 -47.834 -4.66699 -69.501 -14s-40.5 -22 -56.5 -38s-28.5 -35 -37.5 -57s-13.5 -45.667 -13.5 -71
s4.5 -49.166 13.5 -71.499s21.5 -41.666 37.5 -57.999s34.833 -29.166 56.5 -38.499s44.834 -14 69.501 -14z" />
    <glyph glyph-name="Emacron" unicode="&#x112;" horiz-adv-x="509" 
d="M42 730h433v-130h-297v-168h297v-130h-297v-172h297v-130h-433v730zM127 866h264v-86h-264v86z" />
    <glyph glyph-name="emacron" unicode="&#x113;" 
d="M329 -12c-46 0 -87.999 7.83301 -125.999 23.5s-70.5 37.167 -97.5 64.5s-48 59.5 -63 96.5s-22.5 76.5 -22.5 118.5c0 42.667 7.83301 82.667 23.5 120s37.167 69.666 64.5 96.999s59.5 49 96.5 65s76.833 24 119.5 24c43.333 0 83.5 -7.5 120.5 -22.5
s68.833 -36 95.5 -63s47.5 -58.833 62.5 -95.5s22.5 -76.667 22.5 -120v-51h-476c9.33301 -41.333 29.666 -74.666 60.999 -99.999s71 -38 119 -38c38 0 71 9.33301 99 28s49 43.667 63 75l111 -64c-25.333 -47.333 -60.833 -85.5 -106.5 -114.5
s-101.167 -43.5 -166.5 -43.5zM324.001 478c-40.667 0 -75.833 -10.999 -105.5 -32.999s-50.5 -51 -62.5 -87h332c-10 39.333 -29.333 69.166 -58 89.499s-64 30.5 -106 30.5zM199.002 729.001h264v-86h-264v86z" />
    <glyph glyph-name="Ebreve" unicode="&#x114;" horiz-adv-x="509" 
d="M42 730h433v-130h-297v-168h297v-130h-297v-172h297v-130h-433v730zM262 775c-27.333 0 -51.1689 4.33301 -71.502 13s-37.166 20.5 -50.499 35.5s-23.166 33 -29.499 54s-9.5 43.5 -9.5 67.5h85c0 -32 6.5 -55.667 19.5 -71s31.833 -23.666 56.5 -24.999
c24 1.33301 42.667 9.66602 56 24.999s20 39 20 71h86c0 -24 -3.66699 -46.5 -11 -67.5s-18 -39 -32 -54s-31 -26.833 -51 -35.5s-42.667 -13 -68 -13z" />
    <glyph glyph-name="ebreve" unicode="&#x115;" 
d="M329 -12c-46 0 -87.999 7.83301 -125.999 23.5s-70.5 37.167 -97.5 64.5s-48 59.5 -63 96.5s-22.5 76.5 -22.5 118.5c0 42.667 7.83301 82.667 23.5 120s37.167 69.666 64.5 96.999s59.5 49 96.5 65s76.833 24 119.5 24c43.333 0 83.5 -7.5 120.5 -22.5
s68.833 -36 95.5 -63s47.5 -58.833 62.5 -95.5s22.5 -76.667 22.5 -120v-51h-476c9.33301 -41.333 29.666 -74.666 60.999 -99.999s71 -38 119 -38c38 0 71 9.33301 99 28s49 43.667 63 75l111 -64c-25.333 -47.333 -60.833 -85.5 -106.5 -114.5
s-101.167 -43.5 -166.5 -43.5zM329.001 640c-27.333 0 -51.1689 4.33301 -71.502 13s-37.166 20.5 -50.499 35.5s-23.166 33 -29.499 54s-9.5 43.5 -9.5 67.5h85c0 -32 6.5 -55.667 19.5 -71s31.833 -23.666 56.5 -24.999c24 1.33301 42.667 9.66602 56 24.999s20 39 20 71
h86c0 -24 -3.66699 -46.5 -11 -67.5s-18 -39 -32 -54s-31 -26.833 -51 -35.5s-42.667 -13 -68 -13zM323.998 478c-40.667 0 -75.833 -10.999 -105.5 -32.999s-50.5 -51 -62.5 -87h332c-10 39.333 -29.333 69.166 -58 89.499s-64 30.5 -106 30.5z" />
    <glyph glyph-name="Edotaccent" unicode="&#x116;" horiz-adv-x="509" 
d="M42 730h433v-130h-297v-168h297v-130h-297v-172h297v-130h-433v730zM197 849c0 23.333 7.16699 42.333 21.5 57s33.5 22 57.5 22c24.667 0 44 -7.33301 58 -22s21 -33.667 21 -57s-7 -42.166 -21 -56.499s-33.333 -21.5 -58 -21.5c-25.333 0 -44.833 7.16699 -58.5 21.5
s-20.5 33.166 -20.5 56.499z" />
    <glyph glyph-name="edotaccent" unicode="&#x117;" 
d="M329 -12c-46 0 -87.999 7.83301 -125.999 23.5s-70.5 37.167 -97.5 64.5s-48 59.5 -63 96.5s-22.5 76.5 -22.5 118.5c0 42.667 7.83301 82.667 23.5 120s37.167 69.666 64.5 96.999s59.5 49 96.5 65s76.833 24 119.5 24c43.333 0 83.5 -7.5 120.5 -22.5
s68.833 -36 95.5 -63s47.5 -58.833 62.5 -95.5s22.5 -76.667 22.5 -120v-51h-476c9.33301 -41.333 29.666 -74.666 60.999 -99.999s71 -38 119 -38c38 0 71 9.33301 99 28s49 43.667 63 75l111 -64c-25.333 -47.333 -60.833 -85.5 -106.5 -114.5
s-101.167 -43.5 -166.5 -43.5zM324.001 478c-40.667 0 -75.833 -10.999 -105.5 -32.999s-50.5 -51 -62.5 -87h332c-10 39.333 -29.333 69.166 -58 89.499s-64 30.5 -106 30.5zM247.002 708.001c0 23.333 7.16699 42.333 21.5 57s33.5 22 57.5 22
c24.667 0 44 -7.33301 58 -22s21 -33.667 21 -57s-7 -42.166 -21 -56.499s-33.333 -21.5 -58 -21.5c-25.333 0 -44.833 7.16699 -58.5 21.5s-20.5 33.166 -20.5 56.499z" />
    <glyph glyph-name="Eogonek" unicode="&#x118;" horiz-adv-x="509" 
d="M42 730l432.998 0.000976562v-130h-297v-168h297v-130h-297v-172h297v-130h1l-66.5 -44.5c-17 -11.667 -30.167 -21.5 -39.5 -29.5s-15.666 -14.833 -18.999 -20.5s-5 -11.834 -5 -18.501c0 -11.333 4.33301 -19.333 13 -24s18.667 -7 30 -7c13.333 0 24.333 3 33 9
s17.667 12.667 27 20l79 -54c-17.333 -16 -38.833 -29.667 -64.5 -41s-50.5 -17 -74.5 -17c-43.333 0 -78.166 10.5 -104.499 31.5s-39.5 46.833 -39.5 77.5c0 20 5.33301 39.5 16 58.5s31 38.833 61 59.5h-280v730z" />
    <glyph glyph-name="eogonek" unicode="&#x119;" 
d="M343 -224c-43.333 0 -78.166 10.499 -104.499 31.499s-39.5 46.833 -39.5 77.5c0 18.667 4.5 36.834 13.5 54.501s25.833 35.834 50.5 54.501c-36.667 7.33301 -70 19.833 -100 37.5s-55.5 39.667 -76.5 66s-37.333 56 -49 89s-17.5 67.833 -17.5 104.5
c0 42.667 7.83301 82.667 23.5 120s37.167 69.666 64.5 96.999s59.5 49 96.5 65s76.833 24 119.5 24c43.333 0 83.5 -7.5 120.5 -22.5s68.833 -36 95.5 -63s47.5 -58.833 62.5 -95.5s22.5 -76.667 22.5 -120v-51h-476c9.33301 -41.333 29.666 -74.666 60.999 -99.999
s71 -38 119 -38c38 0 71 9.33301 99 28s49 43.667 63 75l111 -64c-18.667 -34 -42.334 -63.5 -71.001 -88.5s-62.667 -43.5 -102 -55.5l-65.5 -44c-17 -11.333 -30.167 -21 -39.5 -29s-15.666 -14.833 -18.999 -20.5s-5 -11.834 -5 -18.501
c0 -11.333 4.33301 -19.333 13 -24s18.667 -7 30 -7c13.333 0 24.333 3 33 9s17.667 12.667 27 20l79 -54c-17.333 -16 -38.833 -29.667 -64.5 -41s-50.5 -17 -74.5 -17zM324 477.999c-40.667 0 -75.833 -10.999 -105.5 -32.999s-50.5 -51 -62.5 -87h332
c-10 39.333 -29.333 69.166 -58 89.499s-64 30.5 -106 30.5z" />
    <glyph glyph-name="Ecaron" unicode="&#x11a;" horiz-adv-x="509" 
d="M42 730h433v-130h-297v-168h297v-130h-297v-172h297v-130h-433v730zM96 950h102l59 -89l59 89h102l-119 -170h-84z" />
    <glyph glyph-name="ecaron" unicode="&#x11b;" 
d="M329 -12c-46 0 -87.999 7.83301 -125.999 23.5s-70.5 37.167 -97.5 64.5s-48 59.5 -63 96.5s-22.5 76.5 -22.5 118.5c0 42.667 7.83301 82.667 23.5 120s37.167 69.666 64.5 96.999s59.5 49 96.5 65s76.833 24 119.5 24c43.333 0 83.5 -7.5 120.5 -22.5
s68.833 -36 95.5 -63s47.5 -58.833 62.5 -95.5s22.5 -76.667 22.5 -120v-51h-476c9.33301 -41.333 29.666 -74.666 60.999 -99.999s71 -38 119 -38c38 0 71 9.33301 99 28s49 43.667 63 75l111 -64c-25.333 -47.333 -60.833 -85.5 -106.5 -114.5
s-101.167 -43.5 -166.5 -43.5zM324.001 478c-40.667 0 -75.833 -10.999 -105.5 -32.999s-50.5 -51 -62.5 -87h332c-10 39.333 -29.333 69.166 -58 89.499s-64 30.5 -106 30.5zM166.002 810.001h102l59 -89l59 89h102l-119 -170h-84z" />
    <glyph glyph-name="Gcircumflex" unicode="&#x11c;" horiz-adv-x="780" 
d="M401 -10c-56.667 0 -108.329 9.99609 -154.996 29.9961s-86.667 47.167 -120 81.5s-59 74.166 -77 119.499s-27 93.333 -27 144c0 52 9.33301 100.833 28 146.5s44.5 85.334 77.5 119.001s72.333 60.334 118 80.001s95.5 29.5 149.5 29.5c38 0 73.667 -4.5 107 -13.5
s64.166 -21.833 92.499 -38.5s53.666 -36.5 75.999 -59.5s41.166 -48.167 56.499 -75.5l-120 -72c-22.667 42 -51.5 73.667 -86.5 95s-76.5 32 -124.5 32c-34 0 -65.5 -6.5 -94.5 -19.5s-54.333 -30.5 -76 -52.5s-38.5 -47.667 -50.5 -77s-18 -60.666 -18 -93.999
c0 -34 6 -65.667 18 -95s28.833 -55 50.5 -77s47.5 -39.333 77.5 -52s62.667 -19 98 -19c54.667 0 100.167 14.333 136.5 43s61.166 67 74.499 115h-233v130h379v-54c0 -49.333 -8.33301 -96.166 -25 -140.499s-40.5 -83.166 -71.5 -116.499s-68.5 -59.833 -112.5 -79.5
s-93.333 -29.5 -148 -29.5zM353.005 949.996h84l119 -170h-102l-59 89l-59 -89h-102z" />
    <glyph glyph-name="gcircumflex" unicode="&#x11d;" horiz-adv-x="673" 
d="M499 78c-21.333 -28 -48.6709 -50 -82.0039 -66s-69.666 -24 -108.999 -24c-35.333 0 -70.166 6.83301 -104.499 20.5s-65.166 33.5 -92.499 59.5s-49.333 57.833 -66 95.5s-25 80.5 -25 128.5c0 48.667 8.16699 91.834 24.5 129.501s38 69.5 65 95.5s58 45.833 93 59.5
s70.833 20.5 107.5 20.5c38.667 0 74.334 -7.83301 107.001 -23.5s59.667 -36.834 81 -63.501v75h135v-570c0 -41.333 -6.5 -80 -19.5 -116s-32.167 -67.5 -57.5 -94.5s-56.833 -48.333 -94.5 -64s-81.167 -23.5 -130.5 -23.5c-38 0 -72.5 4.16699 -103.5 12.5
s-58.833 20 -83.5 35s-46.334 32.667 -65.001 53s-34.667 42.833 -48 67.5l120 73c21.333 -39.333 45.333 -68.666 72 -87.999s63.334 -29 110.001 -29c25.333 0 48.333 4.66699 69 14s38.167 21.666 52.5 36.999s25.333 33.333 33 54s11.5 42 11.5 64v68zM329.995 112
c25.333 0 48.666 4.66504 69.999 13.998s39.666 22.333 54.999 39s27.5 36 36.5 58s13.5 45.667 13.5 71c0 24.667 -4.5 48 -13.5 70s-21.167 41.167 -36.5 57.5s-33.666 29.166 -54.999 38.499s-44.666 14 -69.999 14c-24.667 0 -47.834 -4.66699 -69.501 -14
s-40.5 -22 -56.5 -38s-28.5 -35 -37.5 -57s-13.5 -45.667 -13.5 -71s4.5 -49.166 13.5 -71.499s21.5 -41.666 37.5 -57.999s34.833 -29.166 56.5 -38.499s44.834 -14 69.501 -14zM301.995 814.998h84l119 -170h-102l-59 89l-59 -89h-102z" />
    <glyph glyph-name="Gbreve" unicode="&#x11e;" horiz-adv-x="780" 
d="M401 -10c-56.667 0 -108.329 9.99609 -154.996 29.9961s-86.667 47.167 -120 81.5s-59 74.166 -77 119.499s-27 93.333 -27 144c0 52 9.33301 100.833 28 146.5s44.5 85.334 77.5 119.001s72.333 60.334 118 80.001s95.5 29.5 149.5 29.5c38 0 73.667 -4.5 107 -13.5
s64.166 -21.833 92.499 -38.5s53.666 -36.5 75.999 -59.5s41.166 -48.167 56.499 -75.5l-120 -72c-22.667 42 -51.5 73.667 -86.5 95s-76.5 32 -124.5 32c-34 0 -65.5 -6.5 -94.5 -19.5s-54.333 -30.5 -76 -52.5s-38.5 -47.667 -50.5 -77s-18 -60.666 -18 -93.999
c0 -34 6 -65.667 18 -95s28.833 -55 50.5 -77s47.5 -39.333 77.5 -52s62.667 -19 98 -19c54.667 0 100.167 14.333 136.5 43s61.166 67 74.499 115h-233v130h379v-54c0 -49.333 -8.33301 -96.166 -25 -140.499s-40.5 -83.166 -71.5 -116.499s-68.5 -59.833 -112.5 -79.5
s-93.333 -29.5 -148 -29.5zM394.005 774.996c-27.333 0 -51.1689 4.33301 -71.502 13s-37.166 20.5 -50.499 35.5s-23.166 33 -29.499 54s-9.5 43.5 -9.5 67.5h85c0 -32 6.5 -55.667 19.5 -71s31.833 -23.666 56.5 -24.999c24 1.33301 42.667 9.66602 56 24.999s20 39 20 71
h86c0 -24 -3.66699 -46.5 -11 -67.5s-18 -39 -32 -54s-31 -26.833 -51 -35.5s-42.667 -13 -68 -13z" />
    <glyph glyph-name="gbreve" unicode="&#x11f;" horiz-adv-x="673" 
d="M499 78c-21.333 -28 -48.6709 -50 -82.0039 -66s-69.666 -24 -108.999 -24c-35.333 0 -70.166 6.83301 -104.499 20.5s-65.166 33.5 -92.499 59.5s-49.333 57.833 -66 95.5s-25 80.5 -25 128.5c0 48.667 8.16699 91.834 24.5 129.501s38 69.5 65 95.5s58 45.833 93 59.5
s70.833 20.5 107.5 20.5c38.667 0 74.334 -7.83301 107.001 -23.5s59.667 -36.834 81 -63.501v75h135v-570c0 -41.333 -6.5 -80 -19.5 -116s-32.167 -67.5 -57.5 -94.5s-56.833 -48.333 -94.5 -64s-81.167 -23.5 -130.5 -23.5c-38 0 -72.5 4.16699 -103.5 12.5
s-58.833 20 -83.5 35s-46.334 32.667 -65.001 53s-34.667 42.833 -48 67.5l120 73c21.333 -39.333 45.333 -68.666 72 -87.999s63.334 -29 110.001 -29c25.333 0 48.333 4.66699 69 14s38.167 21.666 52.5 36.999s25.333 33.333 33 54s11.5 42 11.5 64v68zM329.995 112
c25.333 0 48.666 4.66504 69.999 13.998s39.666 22.333 54.999 39s27.5 36 36.5 58s13.5 45.667 13.5 71c0 24.667 -4.5 48 -13.5 70s-21.167 41.167 -36.5 57.5s-33.666 29.166 -54.999 38.499s-44.666 14 -69.999 14c-24.667 0 -47.834 -4.66699 -69.501 -14
s-40.5 -22 -56.5 -38s-28.5 -35 -37.5 -57s-13.5 -45.667 -13.5 -71s4.5 -49.166 13.5 -71.499s21.5 -41.666 37.5 -57.999s34.833 -29.166 56.5 -38.499s44.834 -14 69.501 -14zM339.995 637.998c-27.333 0 -51.1689 4.33301 -71.502 13s-37.166 20.5 -50.499 35.5
s-23.166 33 -29.499 54s-9.5 43.5 -9.5 67.5h85c0 -32 6.5 -55.667 19.5 -71s31.833 -23.666 56.5 -24.999c24 1.33301 42.667 9.66602 56 24.999s20 39 20 71h86c0 -24 -3.66699 -46.5 -11 -67.5s-18 -39 -32 -54s-31 -26.833 -51 -35.5s-42.667 -13 -68 -13z" />
    <glyph glyph-name="Gdotaccent" unicode="&#x120;" horiz-adv-x="780" 
d="M401 -10c-56.667 0 -108.329 9.99609 -154.996 29.9961s-86.667 47.167 -120 81.5s-59 74.166 -77 119.499s-27 93.333 -27 144c0 52 9.33301 100.833 28 146.5s44.5 85.334 77.5 119.001s72.333 60.334 118 80.001s95.5 29.5 149.5 29.5c38 0 73.667 -4.5 107 -13.5
s64.166 -21.833 92.499 -38.5s53.666 -36.5 75.999 -59.5s41.166 -48.167 56.499 -75.5l-120 -72c-22.667 42 -51.5 73.667 -86.5 95s-76.5 32 -124.5 32c-34 0 -65.5 -6.5 -94.5 -19.5s-54.333 -30.5 -76 -52.5s-38.5 -47.667 -50.5 -77s-18 -60.666 -18 -93.999
c0 -34 6 -65.667 18 -95s28.833 -55 50.5 -77s47.5 -39.333 77.5 -52s62.667 -19 98 -19c54.667 0 100.167 14.333 136.5 43s61.166 67 74.499 115h-233v130h379v-54c0 -49.333 -8.33301 -96.166 -25 -140.499s-40.5 -83.166 -71.5 -116.499s-68.5 -59.833 -112.5 -79.5
s-93.333 -29.5 -148 -29.5zM319.005 848.996c0 23.333 7.16699 42.333 21.5 57s33.5 22 57.5 22c24.667 0 44 -7.33301 58 -22s21 -33.667 21 -57s-7 -42.166 -21 -56.499s-33.333 -21.5 -58 -21.5c-25.333 0 -44.833 7.16699 -58.5 21.5s-20.5 33.166 -20.5 56.499z" />
    <glyph glyph-name="gdotaccent" unicode="&#x121;" horiz-adv-x="673" 
d="M499 78c-21.333 -28 -48.6709 -50 -82.0039 -66s-69.666 -24 -108.999 -24c-35.333 0 -70.166 6.83301 -104.499 20.5s-65.166 33.5 -92.499 59.5s-49.333 57.833 -66 95.5s-25 80.5 -25 128.5c0 48.667 8.16699 91.834 24.5 129.501s38 69.5 65 95.5s58 45.833 93 59.5
s70.833 20.5 107.5 20.5c38.667 0 74.334 -7.83301 107.001 -23.5s59.667 -36.834 81 -63.501v75h135v-570c0 -41.333 -6.5 -80 -19.5 -116s-32.167 -67.5 -57.5 -94.5s-56.833 -48.333 -94.5 -64s-81.167 -23.5 -130.5 -23.5c-38 0 -72.5 4.16699 -103.5 12.5
s-58.833 20 -83.5 35s-46.334 32.667 -65.001 53s-34.667 42.833 -48 67.5l120 73c21.333 -39.333 45.333 -68.666 72 -87.999s63.334 -29 110.001 -29c25.333 0 48.333 4.66699 69 14s38.167 21.666 52.5 36.999s25.333 33.333 33 54s11.5 42 11.5 64v68zM329.995 112
c25.333 0 48.666 4.66504 69.999 13.998s39.666 22.333 54.999 39s27.5 36 36.5 58s13.5 45.667 13.5 71c0 24.667 -4.5 48 -13.5 70s-21.167 41.167 -36.5 57.5s-33.666 29.166 -54.999 38.499s-44.666 14 -69.999 14c-24.667 0 -47.834 -4.66699 -69.501 -14
s-40.5 -22 -56.5 -38s-28.5 -35 -37.5 -57s-13.5 -45.667 -13.5 -71s4.5 -49.166 13.5 -71.499s21.5 -41.666 37.5 -57.999s34.833 -29.166 56.5 -38.499s44.834 -14 69.501 -14zM248.995 712.998c0 23.333 7.16699 42.333 21.5 57s33.5 22 57.5 22
c24.667 0 44 -7.33301 58 -22s21 -33.667 21 -57s-7 -42.166 -21 -56.499s-33.333 -21.5 -58 -21.5c-25.333 0 -44.833 7.16699 -58.5 21.5s-20.5 33.166 -20.5 56.499z" />
    <glyph glyph-name="uni0122" unicode="&#x122;" horiz-adv-x="780" 
d="M401 -10c-56.667 0 -108.329 9.99609 -154.996 29.9961s-86.667 47.167 -120 81.5s-59 74.166 -77 119.499s-27 93.333 -27 144c0 52 9.33301 100.833 28 146.5s44.5 85.334 77.5 119.001s72.333 60.334 118 80.001s95.5 29.5 149.5 29.5c38 0 73.667 -4.5 107 -13.5
s64.166 -21.833 92.499 -38.5s53.666 -36.5 75.999 -59.5s41.166 -48.167 56.499 -75.5l-120 -72c-22.667 42 -51.5 73.667 -86.5 95s-76.5 32 -124.5 32c-34 0 -65.5 -6.5 -94.5 -19.5s-54.333 -30.5 -76 -52.5s-38.5 -47.667 -50.5 -77s-18 -60.666 -18 -93.999
c0 -34 6 -65.667 18 -95s28.833 -55 50.5 -77s47.5 -39.333 77.5 -52s62.667 -19 98 -19c54.667 0 100.167 14.333 136.5 43s61.166 67 74.499 115h-233v130h379v-54c0 -49.333 -8.33301 -96.166 -25 -140.499s-40.5 -83.166 -71.5 -116.499s-68.5 -59.833 -112.5 -79.5
s-93.333 -29.5 -148 -29.5zM314.005 -250.004l34 204h119l-70 -204h-83z" />
    <glyph glyph-name="uni0123" unicode="&#x123;" horiz-adv-x="673" 
d="M499 78c-21.333 -28 -48.6709 -50 -82.0039 -66s-69.666 -24 -108.999 -24c-35.333 0 -70.166 6.83301 -104.499 20.5s-65.166 33.5 -92.499 59.5s-49.333 57.833 -66 95.5s-25 80.5 -25 128.5c0 48.667 8.16699 91.834 24.5 129.501s38 69.5 65 95.5s58 45.833 93 59.5
s70.833 20.5 107.5 20.5c38.667 0 74.334 -7.83301 107.001 -23.5s59.667 -36.834 81 -63.501v75h135v-570c0 -41.333 -6.5 -80 -19.5 -116s-32.167 -67.5 -57.5 -94.5s-56.833 -48.333 -94.5 -64s-81.167 -23.5 -130.5 -23.5c-38 0 -72.5 4.16699 -103.5 12.5
s-58.833 20 -83.5 35s-46.334 32.667 -65.001 53s-34.667 42.833 -48 67.5l120 73c21.333 -39.333 45.333 -68.666 72 -87.999s63.334 -29 110.001 -29c25.333 0 48.333 4.66699 69 14s38.167 21.666 52.5 36.999s25.333 33.333 33 54s11.5 42 11.5 64v68zM329.995 112
c25.333 0 48.666 4.66504 69.999 13.998s39.666 22.333 54.999 39s27.5 36 36.5 58s13.5 45.667 13.5 71c0 24.667 -4.5 48 -13.5 70s-21.167 41.167 -36.5 57.5s-33.666 29.166 -54.999 38.499s-44.666 14 -69.999 14c-24.667 0 -47.834 -4.66699 -69.501 -14
s-40.5 -22 -56.5 -38s-28.5 -35 -37.5 -57s-13.5 -45.667 -13.5 -71s4.5 -49.166 13.5 -71.499s21.5 -41.666 37.5 -57.999s34.833 -29.166 56.5 -38.499s44.834 -14 69.501 -14zM278.995 644.998l34 204h119l-70 -204h-83z" />
    <glyph glyph-name="Hcircumflex" unicode="&#x124;" horiz-adv-x="636" 
d="M458 301h-280v-301h-136v730h136v-299h280v299h136v-730h-136v301zM275 950h84l119 -170h-102l-59 89l-59 -89h-102z" />
    <glyph glyph-name="hcircumflex" unicode="&#x125;" horiz-adv-x="619" 
d="M39 740h135.001v-225c20 25.333 44.833 45.333 74.5 60s63.167 22 100.5 22c72.667 0 129.5 -22 170.5 -66s61.5 -105.333 61.5 -184v-347h-138v332c0 46 -11 82.167 -33 108.5s-55 39.5 -99 39.5c-18.667 0 -36.334 -3.5 -53.001 -10.5s-31.167 -17.167 -43.5 -30.5
s-22 -30 -29 -50s-10.5 -42.667 -10.5 -68v-321h-136v740zM67.001 946h84l119 -170h-102l-59 89l-59 -89h-102z" />
    <glyph glyph-name="Hbar" unicode="&#x126;" horiz-adv-x="695" 
d="M14 632h57v98h136v-98h280v98h136v-98h57v-103h-57v-529h-136v301h-280v-301h-136v529h-57v103zM207 431h280v98h-280v-98z" />
    <glyph glyph-name="hbar" unicode="&#x127;" horiz-adv-x="627" 
d="M-11 678h58.001v62h135v-62h63v-73h-63v-90c20 25.333 44.833 45.333 74.5 60s63.167 22 100.5 22c72.667 0 129.5 -22 170.5 -66s61.5 -105.333 61.5 -184v-347h-138v332c0 46 -11 82.167 -33 108.5s-55 39.5 -99 39.5c-18.667 0 -36.334 -3.5 -53.001 -10.5
s-31.167 -17.167 -43.5 -30.5s-22 -30 -29 -50s-10.5 -42.667 -10.5 -68v-321h-136v605h-58v73z" />
    <glyph glyph-name="Itilde" unicode="&#x128;" horiz-adv-x="230" 
d="M47 730h136v-730h-136v730zM-47 780c0 40.667 9.16699 73.332 27.5 97.999s43.833 37 76.5 37c16.667 0 31 -2.5 43 -7.5s23.333 -10.5 34 -16.5c9.33301 -6.66699 18.166 -12.5 26.499 -17.5s16.833 -7.5 25.5 -7.5c18.667 0 28 15 28 45h78
c0 -41.333 -8.66699 -74.166 -26 -98.499s-43.666 -36.5 -78.999 -36.5c-19.333 0 -35.833 3.5 -49.5 10.5s-26.167 13.833 -37.5 20.5c-7.33301 4.66699 -14.5 8.66699 -21.5 12s-14.167 5 -21.5 5c-17.333 0 -26 -14.667 -26 -44h-78z" />
    <glyph glyph-name="itilde" unicode="&#x129;" horiz-adv-x="214" 
d="M39 585h136v-585h-136v585zM-63 635c0 40.667 9.16699 73.332 27.5 97.999s43.833 37 76.5 37c16.667 0 31 -2.5 43 -7.5s23.333 -10.5 34 -16.5c9.33301 -6.66699 18.166 -12.5 26.499 -17.5s16.833 -7.5 25.5 -7.5c18.667 0 28 15 28 45h78
c0 -41.333 -8.66699 -74.166 -26 -98.499s-43.666 -36.5 -78.999 -36.5c-19.333 0 -35.833 3.5 -49.5 10.5s-26.167 13.833 -37.5 20.5c-7.33301 4.66699 -14.5 8.66699 -21.5 12s-14.167 5 -21.5 5c-17.333 0 -26 -14.667 -26 -44h-78z" />
    <glyph glyph-name="Imacron" unicode="&#x12a;" horiz-adv-x="230" 
d="M47 730h136v-730h-136v730zM-17 866h264v-86h-264v86z" />
    <glyph glyph-name="imacron" unicode="&#x12b;" horiz-adv-x="214" 
d="M39 585h136v-585h-136v585zM-23 721h264v-86h-264v86z" />
    <glyph glyph-name="Ibreve" unicode="&#x12c;" horiz-adv-x="230" 
d="M47 730h136v-730h-136v730zM113 775c-27.333 0 -51.1689 4.33301 -71.502 13s-37.166 20.5 -50.499 35.5s-23.166 33 -29.499 54s-9.5 43.5 -9.5 67.5h85c0 -32 6.5 -55.667 19.5 -71s31.833 -23.666 56.5 -24.999c24 1.33301 42.667 9.66602 56 24.999s20 39 20 71h86
c0 -24 -3.66699 -46.5 -11 -67.5s-18 -39 -32 -54s-31 -26.833 -51 -35.5s-42.667 -13 -68 -13z" />
    <glyph glyph-name="ibreve" unicode="&#x12d;" horiz-adv-x="214" 
d="M39 585h136v-585h-136v585zM111 629c-27.333 0 -51.1689 4.33301 -71.502 13s-37.166 20.5 -50.499 35.5s-23.166 33 -29.499 54s-9.5 43.5 -9.5 67.5h85c0 -32 6.5 -55.667 19.5 -71s31.833 -23.666 56.5 -24.999c24 1.33301 42.667 9.66602 56 24.999s20 39 20 71h86
c0 -24 -3.66699 -46.5 -11 -67.5s-18 -39 -32 -54s-31 -26.833 -51 -35.5s-42.667 -13 -68 -13z" />
    <glyph glyph-name="Iogonek" unicode="&#x12e;" horiz-adv-x="230" 
d="M107 -229c-38.667 0 -70.1689 10.166 -94.502 30.499s-36.833 46.166 -37.5 77.499c-0.666992 26 5.33301 49.167 18 69.5s30.667 39.5 54 57.5v724h136v-730h-4c-38 -23.333 -65 -44.666 -81 -63.999s-24 -35 -24 -47c0 -11.333 3.5 -19.666 10.5 -24.999
s16.167 -8 27.5 -8c10 0 19.167 3 27.5 9s15.833 13 22.5 21l79 -55c-17.333 -18 -36.666 -32.5 -57.999 -43.5s-46.666 -16.5 -75.999 -16.5z" />
    <glyph glyph-name="iogonek" unicode="&#x12f;" horiz-adv-x="214" 
d="M48 -229c-38.667 0 -70.1689 10.1641 -94.502 30.4971s-36.833 46.166 -37.5 77.499c-0.666992 34.667 10 64.334 32 89.001s52 49.334 90 74.001l1 -1v544h136v-585h-55c-38 -23.333 -65 -44.666 -81 -63.999s-24 -35 -24 -47c0 -11.333 3.5 -19.666 10.5 -24.999
s16.167 -8 27.5 -8c10 0 19.167 3 27.5 9s15.833 13 22.5 21l79 -55c-17.333 -18 -36.666 -32.5 -57.999 -43.5s-46.666 -16.5 -75.999 -16.5zM21.998 727.997c0 25.333 7.66699 45.833 23 61.5s36 23.5 62 23.5c26.667 0 47.5 -7.83301 62.5 -23.5s22.5 -36.167 22.5 -61.5
s-7.5 -45.666 -22.5 -60.999s-35.833 -23 -62.5 -23c-27.333 0 -48.333 7.66699 -63 23s-22 35.666 -22 60.999z" />
    <glyph glyph-name="Idotaccent" unicode="&#x130;" horiz-adv-x="230" 
d="M47 730h136v-730h-136v730zM34 849c0 23.333 7.16699 42.333 21.5 57s33.5 22 57.5 22c24.667 0 44 -7.33301 58 -22s21 -33.667 21 -57s-7 -42.166 -21 -56.499s-33.333 -21.5 -58 -21.5c-25.333 0 -44.833 7.16699 -58.5 21.5s-20.5 33.166 -20.5 56.499z" />
    <glyph glyph-name="dotlessi" unicode="&#x131;" horiz-adv-x="214" 
d="M39 585h136v-585h-136v585z" />
    <glyph glyph-name="IJ" unicode="&#x132;" horiz-adv-x="495" 
d="M237 133h8.00195c15.333 0 27.666 0.833008 36.999 2.5s16.666 5.16699 21.999 10.5s9 12.666 11 21.999s3 22 3 38v524h136v-520c0 -38.667 -2.66699 -71.5 -8 -98.5s-15 -48.667 -29 -65s-33.667 -28.166 -59 -35.499s-58 -11 -98 -11h-23v133zM41.002 730h136v-730
h-136v730z" />
    <glyph glyph-name="ij" unicode="&#x133;" horiz-adv-x="434" 
d="M39 -112h98.998c26 0 47 1.33301 63 4s28.333 8.16699 37 16.5s14.334 20.333 17.001 36s4 36.167 4 61.5v579h136v-580c0 -46 -4 -84.667 -12 -116s-21.167 -56.5 -39.5 -75.5s-42.666 -32.5 -72.999 -40.5s-67.5 -12 -111.5 -12h-120v127zM38.998 585h136v-585h-136
v585zM38.998 822h136v-163h-136v163zM258.998 822h136v-163h-136v163z" />
    <glyph glyph-name="Jcircumflex" unicode="&#x134;" horiz-adv-x="501" 
d="M247 -10c-58.667 0 -108.331 14.833 -148.998 44.5s-67 69.834 -79 120.501l134 44c5.33301 -23.333 16.166 -42.833 32.499 -58.5s36.166 -23.5 59.499 -23.5c28 0 48.167 9.16699 60.5 27.5s18.5 40.166 18.5 65.499v520h136v-508c0 -73.333 -18.5 -130.333 -55.5 -171
s-89.5 -61 -157.5 -61zM345.003 950h84l119 -170h-102l-59 89l-59 -89h-102z" />
    <glyph glyph-name="jcircumflex" unicode="&#x135;" horiz-adv-x="214" 
d="M-82 -142c26 0 46.998 1.33398 62.998 4.00098s28.333 8.16699 37 16.5s14.334 20.166 17.001 35.499s4 36 4 62v609h137v-610c0 -46.667 -4 -85.5 -12 -116.5s-21.333 -56 -40 -75s-43.167 -32.5 -73.5 -40.5s-68.166 -12 -113.499 -12h-19v127zM65.998 805.001h84
l119 -170h-102l-59 89l-59 -89h-102z" />
    <glyph glyph-name="uni0136" unicode="&#x136;" horiz-adv-x="618" 
d="M257 351l-79 -98v-253h-136v730h136v-299l241 299h165l-231 -284l252 -446h-155zM223 -250l34 204h119l-70 -204h-83z" />
    <glyph glyph-name="uni0137" unicode="&#x137;" horiz-adv-x="601" 
d="M39 740h135v-437l249 282h162l-226 -253l234 -332h-151l-175 252l-93 -103v-149h-135v740zM202 -240l34 204h119l-70 -204h-83z" />
    <glyph glyph-name="kgreenlandic" unicode="&#x138;" horiz-adv-x="601" 
d="M267 252l-93 -103v-149h-135v585h135v-282l249 282h162l-225 -253l232 -332h-150z" />
    <glyph glyph-name="Lacute" unicode="&#x139;" horiz-adv-x="481" 
d="M42 730h136v-600h267v-130h-403v730zM177 950h126l-150 -170h-91z" />
    <glyph glyph-name="lacute" unicode="&#x13a;" horiz-adv-x="214" 
d="M177 965h126l-150 -170h-91zM39 740h136v-740h-136v740z" />
    <glyph glyph-name="uni013B" unicode="&#x13b;" horiz-adv-x="481" 
d="M42 730h136v-600h267v-130h-403v730zM150 -250l34 204h119l-70 -204h-83z" />
    <glyph glyph-name="uni013C" unicode="&#x13c;" horiz-adv-x="214" 
d="M13 -250l34 204h119l-70 -204h-83zM39 740h136v-740h-136v740z" />
    <glyph glyph-name="Lcaron" unicode="&#x13d;" horiz-adv-x="481" 
d="M42 730h136v-600h267v-130h-403v730zM258 730h109l-51 -171h-83z" />
    <glyph glyph-name="lcaron" unicode="&#x13e;" horiz-adv-x="282" 
d="M37 740h136v-740h-136v740zM220 740h109l-51 -171h-83z" />
    <glyph glyph-name="Ldot" unicode="&#x13f;" horiz-adv-x="481" 
d="M42 730h136v-600h267v-130h-403v730zM298 360c0 23.333 7.16699 42.333 21.5 57s33.5 22 57.5 22c24.667 0 44 -7.33301 58 -22s21 -33.667 21 -57s-7 -42.166 -21 -56.499s-33.333 -21.5 -58 -21.5c-25.333 0 -44.833 7.16699 -58.5 21.5s-20.5 33.166 -20.5 56.499z
" />
    <glyph glyph-name="ldot" unicode="&#x140;" horiz-adv-x="381" 
d="M39 740h136v-740h-136v740zM217 314c0 23.333 7.16699 42.333 21.5 57s33.5 22 57.5 22c24.667 0 44 -7.33301 58 -22s21 -33.667 21 -57s-7 -42.166 -21 -56.499s-33.333 -21.5 -58 -21.5c-25.333 0 -44.833 7.16699 -58.5 21.5s-20.5 33.166 -20.5 56.499z" />
    <glyph glyph-name="Lslash" unicode="&#x141;" horiz-adv-x="525" 
d="M17 381l69 22v327h136v-284l155 50v-97l-155 -49v-220h267v-130h-403v307l-69 -22v96z" />
    <glyph glyph-name="lslash" unicode="&#x142;" horiz-adv-x="369" 
d="M29 467l86 28v245h135v-201l90 30v-98l-90 -30v-441h-135v396l-86 -28v99z" />
    <glyph glyph-name="Nacute" unicode="&#x143;" horiz-adv-x="690" 
d="M42 730h154l316 -497v497h136v-730h-145l-325 513v-513h-136v730zM422 950h126l-150 -170h-91z" />
    <glyph glyph-name="nacute" unicode="&#x144;" horiz-adv-x="618" 
d="M39 585l134 0.000976562v-72c19.333 25.333 43.833 45.666 73.5 60.999s63.5 23 101.5 23c72.667 0 129.5 -22 170.5 -66s61.5 -105.333 61.5 -184v-347h-137v333c0 45.333 -11 81.166 -33 107.499s-55 39.5 -99 39.5c-38.667 0 -71.167 -13.667 -97.5 -41
s-39.5 -66.666 -39.5 -117.999v-321h-135v585zM373 810.001h126l-150 -170h-91z" />
    <glyph glyph-name="uni0145" unicode="&#x145;" horiz-adv-x="690" 
d="M42 730h154l316 -497v497h136v-730h-145l-325 513v-513h-136v730zM249 -250l34 204h119l-70 -204h-83z" />
    <glyph glyph-name="uni0146" unicode="&#x146;" horiz-adv-x="618" 
d="M39 585l134 0.000976562v-72c19.333 25.333 43.833 45.666 73.5 60.999s63.5 23 101.5 23c72.667 0 129.5 -22 170.5 -66s61.5 -105.333 61.5 -184v-347h-137v333c0 45.333 -11 81.166 -33 107.499s-55 39.5 -99 39.5c-38.667 0 -71.167 -13.667 -97.5 -41
s-39.5 -66.666 -39.5 -117.999v-321h-135v585zM220 -232.999l34 204h119l-70 -204h-83z" />
    <glyph glyph-name="Ncaron" unicode="&#x147;" horiz-adv-x="690" 
d="M42 730h154l316 -497v497h136v-730h-145l-325 513v-513h-136v730zM186 950h102l59 -89l59 89h102l-119 -170h-84z" />
    <glyph glyph-name="ncaron" unicode="&#x148;" horiz-adv-x="618" 
d="M39 585l134 0.000976562v-72c19.333 25.333 43.833 45.666 73.5 60.999s63.5 23 101.5 23c72.667 0 129.5 -22 170.5 -66s61.5 -105.333 61.5 -184v-347h-137v333c0 45.333 -11 81.166 -33 107.499s-55 39.5 -99 39.5c-38.667 0 -71.167 -13.667 -97.5 -41
s-39.5 -66.666 -39.5 -117.999v-321h-135v585zM158 810.001h102l59 -89l59 89h102l-119 -170h-84z" />
    <glyph glyph-name="Eng" unicode="&#x14a;" horiz-adv-x="690" 
d="M436 -75l5.99902 -0.000976562c14.667 0 26.5 1 35.5 3s16 5.5 21 10.5s8.5 12 10.5 21s3 20.5 3 34.5v33l-334 494v-521h-136v730h154l316 -466v466h136v-731c0 -39.333 -3.5 -72.166 -10.5 -98.499s-18 -47.5 -33 -63.5s-34.667 -27.5 -59 -34.5
s-54.166 -10.5 -89.499 -10.5h-20v133z" />
    <glyph glyph-name="eng" unicode="&#x14b;" horiz-adv-x="618" 
d="M322 -142c26 0 46.9971 1.33496 62.9971 4.00195s28.333 8.16699 37 16.5s14.334 20.166 17.001 35.499s4 36 4 62v357c0 45.333 -11 81.166 -33 107.499s-55 39.5 -99 39.5c-38.667 0 -71.167 -13.667 -97.5 -41s-39.5 -66.666 -39.5 -117.999v-321h-135v585h134v-72
c19.333 25.333 43.833 45.666 73.5 60.999s63.5 23 101.5 23c72.667 0 129.5 -22 170.5 -66s61.5 -105.333 61.5 -184v-372c0 -46.667 -4 -85.5 -12 -116.5s-21.167 -56 -39.5 -75s-42.666 -32.5 -72.999 -40.5s-68.166 -12 -113.499 -12h-20v127z" />
    <glyph glyph-name="Omacron" unicode="&#x14c;" horiz-adv-x="790" 
d="M258 866h264v-86h-264v86zM395 -10c-52 0 -100.667 9.83301 -146 29.5s-84.833 46.334 -118.5 80.001s-60.167 73.334 -79.5 119.001s-29 94.5 -29 146.5s9.66699 100.667 29 146s45.833 85 79.5 119s73.167 60.833 118.5 80.5s94 29.5 146 29.5
s100.667 -9.83301 146 -29.5s85 -46.5 119 -80.5s60.667 -73.667 80 -119s29 -94 29 -146s-9.66699 -100.833 -29 -146.5s-46 -85.334 -80 -119.001s-73.667 -60.334 -119 -80.001s-94 -29.5 -146 -29.5zM395 124c33.333 0 64.5 6.33301 93.5 19s54.333 29.834 76 51.501
s38.667 47.167 51 76.5s18.5 60.666 18.5 93.999s-6.16699 64.666 -18.5 93.999s-29.333 54.833 -51 76.5s-47 38.834 -76 51.501s-60.167 19 -93.5 19s-64.5 -6.33301 -93.5 -19s-54.167 -29.834 -75.5 -51.501s-38.166 -47.167 -50.499 -76.5s-18.5 -60.666 -18.5 -93.999
s6.16699 -64.666 18.5 -93.999s29.166 -54.833 50.499 -76.5s46.5 -38.834 75.5 -51.501s60.167 -19 93.5 -19z" />
    <glyph glyph-name="omacron" unicode="&#x14d;" 
d="M193 731h264v-86h-264v86zM323 -12c-42 0 -81.5 7.83301 -118.5 23.5s-69.167 37.334 -96.5 65.001s-48.833 60 -64.5 97s-23.5 76.5 -23.5 118.5c0 42.667 7.83301 82.5 23.5 119.5s37.167 69.333 64.5 97s59.5 49.334 96.5 65.001s76.5 23.5 118.5 23.5
s81.333 -7.83301 118 -23.5s68.834 -37.334 96.501 -65.001s49.334 -60 65.001 -97s23.5 -76.833 23.5 -119.5c0 -42 -7.83301 -81.5 -23.5 -118.5s-37.334 -69.333 -65.001 -97s-59.834 -49.334 -96.501 -65.001s-76 -23.5 -118 -23.5zM323 115c24 0 46.333 4.66699 67 14
s38.667 22 54 38s27.333 34.833 36 56.5s13 44.5 13 68.5c0 24.667 -4.33301 47.834 -13 69.501s-20.667 40.5 -36 56.5s-33.333 28.667 -54 38s-43 14 -67 14s-46.5 -4.66699 -67.5 -14s-39 -22 -54 -38s-26.833 -34.833 -35.5 -56.5s-13 -44.834 -13 -69.501
c0 -24 4.33301 -46.833 13 -68.5s20.5 -40.5 35.5 -56.5s33 -28.667 54 -38s43.5 -14 67.5 -14z" />
    <glyph glyph-name="Obreve" unicode="&#x14e;" horiz-adv-x="790" 
d="M395 -10c-52 0 -100.667 9.83301 -146 29.5s-84.833 46.334 -118.5 80.001s-60.167 73.334 -79.5 119.001s-29 94.5 -29 146.5s9.66699 100.667 29 146s45.833 85 79.5 119s73.167 60.833 118.5 80.5s94 29.5 146 29.5s100.667 -9.83301 146 -29.5s85 -46.5 119 -80.5
s60.667 -73.667 80 -119s29 -94 29 -146s-9.66699 -100.833 -29 -146.5s-46 -85.334 -80 -119.001s-73.667 -60.334 -119 -80.001s-94 -29.5 -146 -29.5zM395 124c33.333 0 64.5 6.33301 93.5 19s54.333 29.834 76 51.501s38.667 47.167 51 76.5s18.5 60.666 18.5 93.999
s-6.16699 64.666 -18.5 93.999s-29.333 54.833 -51 76.5s-47 38.834 -76 51.501s-60.167 19 -93.5 19s-64.5 -6.33301 -93.5 -19s-54.167 -29.834 -75.5 -51.501s-38.166 -47.167 -50.499 -76.5s-18.5 -60.666 -18.5 -93.999s6.16699 -64.666 18.5 -93.999
s29.166 -54.833 50.499 -76.5s46.5 -38.834 75.5 -51.501s60.167 -19 93.5 -19zM388 775c-27.333 0 -51.1689 4.33301 -71.502 13s-37.166 20.5 -50.499 35.5s-23.166 33 -29.499 54s-9.5 43.5 -9.5 67.5h85c0 -32 6.5 -55.667 19.5 -71s31.833 -23.666 56.5 -24.999
c24 1.33301 42.667 9.66602 56 24.999s20 39 20 71h86c0 -24 -3.66699 -46.5 -11 -67.5s-18 -39 -32 -54s-31 -26.833 -51 -35.5s-42.667 -13 -68 -13z" />
    <glyph glyph-name="obreve" unicode="&#x14f;" 
d="M323 -12c-42 0 -81.5 7.83301 -118.5 23.5s-69.167 37.334 -96.5 65.001s-48.833 60 -64.5 97s-23.5 76.5 -23.5 118.5c0 42.667 7.83301 82.5 23.5 119.5s37.167 69.333 64.5 97s59.5 49.334 96.5 65.001s76.5 23.5 118.5 23.5s81.333 -7.83301 118 -23.5
s68.834 -37.334 96.501 -65.001s49.334 -60 65.001 -97s23.5 -76.833 23.5 -119.5c0 -42 -7.83301 -81.5 -23.5 -118.5s-37.334 -69.333 -65.001 -97s-59.834 -49.334 -96.501 -65.001s-76 -23.5 -118 -23.5zM323 115c24 0 46.333 4.66699 67 14s38.667 22 54 38
s27.333 34.833 36 56.5s13 44.5 13 68.5c0 24.667 -4.33301 47.834 -13 69.501s-20.667 40.5 -36 56.5s-33.333 28.667 -54 38s-43 14 -67 14s-46.5 -4.66699 -67.5 -14s-39 -22 -54 -38s-26.833 -34.833 -35.5 -56.5s-13 -44.834 -13 -69.501
c0 -24 4.33301 -46.833 13 -68.5s20.5 -40.5 35.5 -56.5s33 -28.667 54 -38s43.5 -14 67.5 -14zM321 642c-27.333 0 -51.1689 4.33301 -71.502 13s-37.166 20.5 -50.499 35.5s-23.166 33 -29.499 54s-9.5 43.5 -9.5 67.5h85c0 -32 6.5 -55.667 19.5 -71
s31.833 -23.666 56.5 -24.999c24 1.33301 42.667 9.66602 56 24.999s20 39 20 71h86c0 -24 -3.66699 -46.5 -11 -67.5s-18 -39 -32 -54s-31 -26.833 -51 -35.5s-42.667 -13 -68 -13z" />
    <glyph glyph-name="Ohungarumlaut" unicode="&#x150;" horiz-adv-x="790" 
d="M370 950h120l-150 -170h-84zM536 950h120l-150 -170h-84zM395 -10c-52 0 -100.667 9.83301 -146 29.5s-84.833 46.334 -118.5 80.001s-60.167 73.334 -79.5 119.001s-29 94.5 -29 146.5s9.66699 100.667 29 146s45.833 85 79.5 119s73.167 60.833 118.5 80.5
s94 29.5 146 29.5s100.667 -9.83301 146 -29.5s85 -46.5 119 -80.5s60.667 -73.667 80 -119s29 -94 29 -146s-9.66699 -100.833 -29 -146.5s-46 -85.334 -80 -119.001s-73.667 -60.334 -119 -80.001s-94 -29.5 -146 -29.5zM395 124c33.333 0 64.5 6.33301 93.5 19
s54.333 29.834 76 51.501s38.667 47.167 51 76.5s18.5 60.666 18.5 93.999s-6.16699 64.666 -18.5 93.999s-29.333 54.833 -51 76.5s-47 38.834 -76 51.501s-60.167 19 -93.5 19s-64.5 -6.33301 -93.5 -19s-54.167 -29.834 -75.5 -51.501s-38.166 -47.167 -50.499 -76.5
s-18.5 -60.666 -18.5 -93.999s6.16699 -64.666 18.5 -93.999s29.166 -54.833 50.499 -76.5s46.5 -38.834 75.5 -51.501s60.167 -19 93.5 -19z" />
    <glyph glyph-name="ohungarumlaut" unicode="&#x151;" 
d="M303 808h120l-150 -170h-84zM469 808h120l-150 -170h-84zM323 -12c-42 0 -81.5 7.83301 -118.5 23.5s-69.167 37.334 -96.5 65.001s-48.833 60 -64.5 97s-23.5 76.5 -23.5 118.5c0 42.667 7.83301 82.5 23.5 119.5s37.167 69.333 64.5 97s59.5 49.334 96.5 65.001
s76.5 23.5 118.5 23.5s81.333 -7.83301 118 -23.5s68.834 -37.334 96.501 -65.001s49.334 -60 65.001 -97s23.5 -76.833 23.5 -119.5c0 -42 -7.83301 -81.5 -23.5 -118.5s-37.334 -69.333 -65.001 -97s-59.834 -49.334 -96.501 -65.001s-76 -23.5 -118 -23.5zM323 115
c24 0 46.333 4.66699 67 14s38.667 22 54 38s27.333 34.833 36 56.5s13 44.5 13 68.5c0 24.667 -4.33301 47.834 -13 69.501s-20.667 40.5 -36 56.5s-33.333 28.667 -54 38s-43 14 -67 14s-46.5 -4.66699 -67.5 -14s-39 -22 -54 -38s-26.833 -34.833 -35.5 -56.5
s-13 -44.834 -13 -69.501c0 -24 4.33301 -46.833 13 -68.5s20.5 -40.5 35.5 -56.5s33 -28.667 54 -38s43.5 -14 67.5 -14z" />
    <glyph glyph-name="OE" unicode="&#x152;" horiz-adv-x="1101" 
d="M634 83c-30.667 -29.333 -66.167 -52.1689 -106.5 -68.502s-84.5 -24.5 -132.5 -24.5c-52 0 -100.667 9.83301 -146 29.5s-84.833 46.334 -118.5 80.001s-60.167 73.334 -79.5 119.001s-29 94.5 -29 146.5s9.66699 100.667 29 146s45.833 85 79.5 119
s73.167 60.833 118.5 80.5s94 29.5 146 29.5c48 0 92.167 -8.33301 132.5 -25s75.833 -39.667 106.5 -69v84h433v-130h-297v-168h297v-130h-297v-172h297v-130h-433v83zM395 123.997c32 0 62.167 6 90.5 18s53.333 28.333 75 49s39 45.167 52 73.5s20.167 58.5 21.5 90.5v20
c-1.33301 32 -8.5 62 -21.5 90s-30.333 52.5 -52 73.5s-46.667 37.5 -75 49.5s-58.5 18 -90.5 18c-33.333 0 -64.5 -6.33301 -93.5 -19s-54.167 -29.834 -75.5 -51.501s-38.166 -47.167 -50.499 -76.5s-18.5 -60.666 -18.5 -93.999s6.16699 -64.666 18.5 -93.999
s29.166 -54.833 50.499 -76.5s46.5 -38.834 75.5 -51.501s60.167 -19 93.5 -19z" />
    <glyph glyph-name="oe" unicode="&#x153;" horiz-adv-x="1121" 
d="M323 -12c-42 0 -81.501 7.83105 -118.501 23.498s-69.167 37.334 -96.5 65.001s-48.833 60 -64.5 97s-23.5 76.5 -23.5 118.5c0 42.667 7.83301 82.5 23.5 119.5s37.167 69.333 64.5 97s59.5 49.334 96.5 65.001s76.5 23.5 118.5 23.5c51.333 0 97.333 -10.667 138 -32
s74 -50.333 100 -87c26 36 59 64.833 99 86.5s86 32.5 138 32.5c43.333 0 83.5 -7.5 120.5 -22.5s69 -36 96 -63s48 -58.833 63 -95.5s22.5 -76.667 22.5 -120v-47h-476c8 -42.667 28 -77 60 -103s72.333 -39 121 -39c38 0 71.5 9.83301 100.5 29.5s51.167 45.167 66.5 76.5
l113 -49c-25.333 -53.333 -62.333 -96 -111 -128s-105.334 -48 -170.001 -48c-55.333 0 -103.666 10.5 -144.999 31.5s-74.666 49.5 -99.999 85.5c-26.667 -36 -60.167 -64.5 -100.5 -85.5s-85.5 -31.5 -135.5 -31.5zM322.999 114.998c24 0 46.333 4.66699 67 14
s38.834 22 54.501 38s27.834 34.833 36.501 56.5s13 44.5 13 68.5c0 24.667 -4.33301 47.834 -13 69.501s-20.834 40.5 -36.501 56.5s-33.834 28.667 -54.501 38s-43 14 -67 14c-24.667 0 -47.334 -4.66699 -68.001 -14s-38.667 -22 -54 -38s-27.333 -34.833 -36 -56.5
s-13 -44.834 -13 -69.501c0 -24 4.33301 -46.833 13 -68.5s20.667 -40.5 36 -56.5s33.333 -28.667 54 -38s43.334 -14 68.001 -14zM799.999 477.998c-40.667 0 -75.5 -10.667 -104.5 -32s-50.167 -49.333 -63.5 -84h331c-11.333 38 -31.333 66.833 -60 86.5
s-63 29.5 -103 29.5z" />
    <glyph glyph-name="Racute" unicode="&#x154;" horiz-adv-x="584" 
d="M42 0l0.000976562 729.998h234c43.333 0 81.833 -6.16699 115.5 -18.5s62.167 -29.666 85.5 -51.999s41.166 -49 53.499 -80s18.5 -65.5 18.5 -103.5c0 -44 -10.5 -85.167 -31.5 -123.5s-51.5 -68.166 -91.5 -89.499l146 -263h-155l-117 223h-122v-223h-136z
M264.001 347.998c28 0 51.5 3.5 70.5 10.5s34.333 16.667 46 29s20 26.5 25 42.5s7.5 33 7.5 51c0 37.333 -11.833 67 -35.5 89s-61.5 33 -113.5 33h-86v-255h86zM311.001 949.998h126l-150 -170h-91z" />
    <glyph glyph-name="racute" unicode="&#x155;" horiz-adv-x="431" 
d="M39 585h133.998v-87c27.333 58 77.333 87 150 87c21.333 0 40.5 -2.33301 57.5 -7s32.167 -10.667 45.5 -18l-51 -128c-10 6.66699 -21.167 12.167 -33.5 16.5s-28.166 6.5 -47.499 6.5c-39.333 0 -69.166 -11.167 -89.499 -33.5s-30.5 -58.833 -30.5 -109.5v-312h-135
v585zM292.998 805h126l-150 -170h-91z" />
    <glyph glyph-name="uni0156" unicode="&#x156;" horiz-adv-x="584" 
d="M42 0l0.000976562 729.998h234c43.333 0 81.833 -6.16699 115.5 -18.5s62.167 -29.666 85.5 -51.999s41.166 -49 53.499 -80s18.5 -65.5 18.5 -103.5c0 -44 -10.5 -85.167 -31.5 -123.5s-51.5 -68.166 -91.5 -89.499l146 -263h-155l-117 223h-122v-223h-136z
M264.001 347.998c28 0 51.5 3.5 70.5 10.5s34.333 16.667 46 29s20 26.5 25 42.5s7.5 33 7.5 51c0 37.333 -11.833 67 -35.5 89s-61.5 33 -113.5 33h-86v-255h86zM207.001 -281.002l34 204h119l-70 -204h-83z" />
    <glyph glyph-name="uni0157" unicode="&#x157;" horiz-adv-x="431" 
d="M39 585h133.998v-87c27.333 58 77.333 87 150 87c21.333 0 40.5 -2.33301 57.5 -7s32.167 -10.667 45.5 -18l-51 -128c-10 6.66699 -21.167 12.167 -33.5 16.5s-28.166 6.5 -47.499 6.5c-39.333 0 -69.166 -11.167 -89.499 -33.5s-30.5 -58.833 -30.5 -109.5v-312h-135
v585zM9.99805 -249l34 204h119l-70 -204h-83z" />
    <glyph glyph-name="Rcaron" unicode="&#x158;" horiz-adv-x="584" 
d="M42 0l0.000976562 729.998h234c43.333 0 81.833 -6.16699 115.5 -18.5s62.167 -29.666 85.5 -51.999s41.166 -49 53.499 -80s18.5 -65.5 18.5 -103.5c0 -44 -10.5 -85.167 -31.5 -123.5s-51.5 -68.166 -91.5 -89.499l146 -263h-155l-117 223h-122v-223h-136z
M264.001 347.998c28 0 51.5 3.5 70.5 10.5s34.333 16.667 46 29s20 26.5 25 42.5s7.5 33 7.5 51c0 37.333 -11.833 67 -35.5 89s-61.5 33 -113.5 33h-86v-255h86zM131.001 949.998h102l59 -89l59 89h102l-119 -170h-84z" />
    <glyph glyph-name="rcaron" unicode="&#x159;" horiz-adv-x="431" 
d="M39 585h133.998v-87c27.333 58 77.333 87 150 87c21.333 0 40.5 -2.33301 57.5 -7s32.167 -10.667 45.5 -18l-51 -128c-10 6.66699 -21.167 12.167 -33.5 16.5s-28.166 6.5 -47.499 6.5c-39.333 0 -69.166 -11.167 -89.499 -33.5s-30.5 -58.833 -30.5 -109.5v-312h-135
v585zM59.998 805h102l59 -89l59 89h102l-119 -170h-84z" />
    <glyph glyph-name="Sacute" unicode="&#x15a;" horiz-adv-x="563" 
d="M337 950h126l-150 -170h-91zM288 -10c-66 0 -121.671 12.498 -167.004 37.498s-84.666 56.167 -117.999 93.5l124 98c18.667 -32 41.667 -56.5 69 -73.5s57.666 -25.5 90.999 -25.5c36 0 63.5 10 82.5 30s28.5 42.667 28.5 68c0 15.333 -4.33301 28.333 -13 39
s-20 19.834 -34 27.501s-30.167 14.5 -48.5 20.5l-56.5 18c-24.667 8 -49.334 16.667 -74.001 26s-46.834 21.833 -66.501 37.5s-35.667 35 -48 58s-18.5 51.833 -18.5 86.5c0 29.333 6 56.666 18 81.999s28.833 47.5 50.5 66.5s47.334 33.833 77.001 44.5
s61.834 16 96.501 16c29.333 0 55.833 -2.66699 79.5 -8s45.334 -12.666 65.001 -21.999s37.667 -20.5 54 -33.5s31.833 -27.167 46.5 -42.5l-112 -85c-31.333 46.667 -75.333 70 -132 70c-33.333 0 -58.666 -8 -75.999 -24s-26 -35.667 -26 -59c0 -14.667 4 -27 12 -37
s18.833 -18.833 32.5 -26.5s29.5 -14.5 47.5 -20.5l57 -19c24.667 -8 49.5 -17.167 74.5 -27.5s47.667 -23.666 68 -39.999s36.833 -36.333 49.5 -60s19 -53.167 19 -88.5c0 -28.667 -5.66699 -56.667 -17 -84s-27.666 -51.5 -48.999 -72.5s-47.666 -38 -78.999 -51
s-67 -19.5 -107 -19.5z" />
    <glyph glyph-name="sacute" unicode="&#x15b;" horiz-adv-x="518" 
d="M320 811h126l-150 -170h-91zM259 -12c-64.667 0 -118.335 12.165 -161.002 36.498s-75.667 59.5 -99 105.5l125 60c14 -27.333 33 -48.333 57 -63s52 -22 84 -22c33.333 0 58.333 7 75 21s25 30.667 25 50c0 10.667 -3.83301 19.334 -11.5 26.001s-17.667 12.5 -30 17.5
s-26.833 9.16699 -43.5 12.5s-34 7 -52 11c-25.333 5.33301 -50.166 11.666 -74.499 18.999s-46.166 17.5 -65.499 30.5s-35 29.667 -47 50s-18 45.833 -18 76.5c0 23.333 5.5 45.833 16.5 67.5s26.5 40.834 46.5 57.501s44.167 29.834 72.5 39.501s59.833 14.5 94.5 14.5
c58.667 0 107.5 -10.833 146.5 -32.5s69.833 -51.167 92.5 -88.5l-115 -58c-12 20.667 -28.667 37 -50 49s-46 18 -74 18c-32 0 -55.667 -6.33301 -71 -19s-23 -27.334 -23 -44.001c0 -19.333 11.333 -33.166 34 -41.499s56 -17.166 100 -26.499
c24 -4.66699 48.167 -10.834 72.5 -18.501s46.5 -18 66.5 -31s36.167 -29.667 48.5 -50s18.5 -45.833 18.5 -76.5c0 -20.667 -4.66699 -42.167 -14 -64.5s-23.833 -43 -43.5 -62s-44.5 -34.5 -74.5 -46.5s-66 -18 -108 -18z" />
    <glyph glyph-name="Scircumflex" unicode="&#x15c;" horiz-adv-x="563" 
d="M288 -10c-66 0 -121.671 12.498 -167.004 37.498s-84.666 56.167 -117.999 93.5l124 98c18.667 -32 41.667 -56.5 69 -73.5s57.666 -25.5 90.999 -25.5c36 0 63.5 10 82.5 30s28.5 42.667 28.5 68c0 15.333 -4.33301 28.333 -13 39s-20 19.834 -34 27.501
s-30.167 14.5 -48.5 20.5l-56.5 18c-24.667 8 -49.334 16.667 -74.001 26s-46.834 21.833 -66.501 37.5s-35.667 35 -48 58s-18.5 51.833 -18.5 86.5c0 29.333 6 56.666 18 81.999s28.833 47.5 50.5 66.5s47.334 33.833 77.001 44.5s61.834 16 96.501 16
c29.333 0 55.833 -2.66699 79.5 -8s45.334 -12.666 65.001 -21.999s37.667 -20.5 54 -33.5s31.833 -27.167 46.5 -42.5l-112 -85c-31.333 46.667 -75.333 70 -132 70c-33.333 0 -58.666 -8 -75.999 -24s-26 -35.667 -26 -59c0 -14.667 4 -27 12 -37
s18.833 -18.833 32.5 -26.5s29.5 -14.5 47.5 -20.5l57 -19c24.667 -8 49.5 -17.167 74.5 -27.5s47.667 -23.666 68 -39.999s36.833 -36.333 49.5 -60s19 -53.167 19 -88.5c0 -28.667 -5.66699 -56.667 -17 -84s-27.666 -51.5 -48.999 -72.5s-47.666 -38 -78.999 -51
s-67 -19.5 -107 -19.5zM234.996 949.998h84l119 -170h-102l-59 89l-59 -89h-102z" />
    <glyph glyph-name="scircumflex" unicode="&#x15d;" horiz-adv-x="518" 
d="M259 -12c-64.667 0 -118.335 12.165 -161.002 36.498s-75.667 59.5 -99 105.5l125 60c14 -27.333 33 -48.333 57 -63s52 -22 84 -22c33.333 0 58.333 7 75 21s25 30.667 25 50c0 10.667 -3.83301 19.334 -11.5 26.001s-17.667 12.5 -30 17.5s-26.833 9.16699 -43.5 12.5
s-34 7 -52 11c-25.333 5.33301 -50.166 11.666 -74.499 18.999s-46.166 17.5 -65.499 30.5s-35 29.667 -47 50s-18 45.833 -18 76.5c0 23.333 5.5 45.833 16.5 67.5s26.5 40.834 46.5 57.501s44.167 29.834 72.5 39.501s59.833 14.5 94.5 14.5
c58.667 0 107.5 -10.833 146.5 -32.5s69.833 -51.167 92.5 -88.5l-115 -58c-12 20.667 -28.667 37 -50 49s-46 18 -74 18c-32 0 -55.667 -6.33301 -71 -19s-23 -27.334 -23 -44.001c0 -19.333 11.333 -33.166 34 -41.499s56 -17.166 100 -26.499
c24 -4.66699 48.167 -10.834 72.5 -18.501s46.5 -18 66.5 -31s36.167 -29.667 48.5 -50s18.5 -45.833 18.5 -76.5c0 -20.667 -4.66699 -42.167 -14 -64.5s-23.833 -43 -43.5 -62s-44.5 -34.5 -74.5 -46.5s-66 -18 -108 -18zM216.999 804.998h84l119 -170h-102l-59 89
l-59 -89h-102z" />
    <glyph glyph-name="Scedilla" unicode="&#x15e;" horiz-adv-x="563" 
d="M273 -240c-26.667 0 -52.501 5.49707 -77.501 16.4971s-47.167 25.167 -66.5 42.5l78 47c11.333 -9.33301 22.5 -17.333 33.5 -24s25.167 -10 42.5 -10c14.667 0 27.5 3 38.5 9s16.5 13.333 16.5 22c0 18 -19.333 27 -58 27h-50v104
c-50.667 6.66699 -94.167 21.5 -130.5 44.5s-68.5 50.5 -96.5 82.5l124 98c18.667 -32 41.667 -56.5 69 -73.5s57.666 -25.5 90.999 -25.5c36 0 63.5 10 82.5 30s28.5 42.667 28.5 68c0 15.333 -4.33301 28.333 -13 39s-20 19.834 -34 27.501s-30.167 14.5 -48.5 20.5
l-56.5 18c-24.667 8 -49.334 16.667 -74.001 26s-46.834 21.833 -66.501 37.5s-35.667 35 -48 58s-18.5 51.833 -18.5 86.5c0 29.333 6 56.666 18 81.999s28.833 47.5 50.5 66.5s47.334 33.833 77.001 44.5s61.834 16 96.501 16c29.333 0 55.833 -2.66699 79.5 -8
s45.334 -12.666 65.001 -21.999s37.667 -20.5 54 -33.5s31.833 -27.167 46.5 -42.5l-112 -85c-31.333 46.667 -75.333 70 -132 70c-33.333 0 -58.666 -8 -75.999 -24s-26 -35.667 -26 -59c0 -14.667 4 -27 12 -37s18.833 -18.833 32.5 -26.5s29.5 -14.5 47.5 -20.5l57 -19
c24.667 -8 49.5 -17.167 74.5 -27.5s47.667 -23.666 68 -39.999s36.833 -36.333 49.5 -60s19 -53.167 19 -88.5c0 -27.333 -5 -54 -15 -80s-24.667 -49.333 -44 -70s-43 -37.834 -71 -51.501s-60 -21.834 -96 -24.501v-44c37.333 1.33301 65.833 -5.5 85.5 -20.5
s29.5 -34.833 29.5 -59.5c0 -15.333 -4 -29.666 -12 -42.999s-19 -24.666 -33 -33.999s-30.5 -16.666 -49.5 -21.999s-39.5 -8 -61.5 -8z" />
    <glyph glyph-name="scedilla" unicode="&#x15f;" horiz-adv-x="518" 
d="M246 -240c-26.667 0 -52.5029 5.49512 -77.5029 16.4951s-47.167 25.167 -66.5 42.5l78 47c11.333 -9.33301 22.5 -17.333 33.5 -24s25.167 -10 42.5 -10c14.667 0 27.5 3 38.5 9s16.5 13.333 16.5 22c0 18 -19.333 27 -58 27h-50v102
c-49.333 6 -90.666 20.667 -123.999 44s-60 54.666 -80 93.999l125 60c14 -27.333 33 -48.333 57 -63s52 -22 84 -22c33.333 0 58.333 7 75 21s25 30.667 25 50c0 10.667 -3.83301 19.334 -11.5 26.001s-17.667 12.5 -30 17.5s-26.833 9.16699 -43.5 12.5s-34 7 -52 11
c-25.333 5.33301 -50.166 11.666 -74.499 18.999s-46.166 17.5 -65.499 30.5s-35 29.667 -47 50s-18 45.833 -18 76.5c0 23.333 5.5 45.833 16.5 67.5s26.5 40.834 46.5 57.501s44.167 29.834 72.5 39.501s59.833 14.5 94.5 14.5c58.667 0 107.5 -10.833 146.5 -32.5
s69.833 -51.167 92.5 -88.5l-115 -58c-12 20.667 -28.667 37 -50 49s-46 18 -74 18c-32 0 -55.667 -6.33301 -71 -19s-23 -27.334 -23 -44.001c0 -19.333 11.333 -33.166 34 -41.499s56 -17.166 100 -26.499c24 -4.66699 48.167 -10.834 72.5 -18.501s46.5 -18 66.5 -31
s36.167 -29.667 48.5 -50s18.5 -45.833 18.5 -76.5c0 -19.333 -4.16699 -39.666 -12.5 -60.999s-21.166 -41 -38.499 -59s-39.333 -33.5 -66 -46.5s-58.334 -20.833 -95.001 -23.5v-42c37.333 1.33301 65.833 -5.5 85.5 -20.5s29.5 -34.833 29.5 -59.5
c0 -15.333 -4 -29.666 -12 -42.999s-19 -24.666 -33 -33.999s-30.5 -16.666 -49.5 -21.999s-39.5 -8 -61.5 -8z" />
    <glyph glyph-name="Scaron" unicode="&#x160;" horiz-adv-x="563" 
d="M288 -10c-66 0 -121.671 12.498 -167.004 37.498s-84.666 56.167 -117.999 93.5l124 98c18.667 -32 41.667 -56.5 69 -73.5s57.666 -25.5 90.999 -25.5c36 0 63.5 10 82.5 30s28.5 42.667 28.5 68c0 15.333 -4.33301 28.333 -13 39s-20 19.834 -34 27.501
s-30.167 14.5 -48.5 20.5l-56.5 18c-24.667 8 -49.334 16.667 -74.001 26s-46.834 21.833 -66.501 37.5s-35.667 35 -48 58s-18.5 51.833 -18.5 86.5c0 29.333 6 56.666 18 81.999s28.833 47.5 50.5 66.5s47.334 33.833 77.001 44.5s61.834 16 96.501 16
c29.333 0 55.833 -2.66699 79.5 -8s45.334 -12.666 65.001 -21.999s37.667 -20.5 54 -33.5s31.833 -27.167 46.5 -42.5l-112 -85c-31.333 46.667 -75.333 70 -132 70c-33.333 0 -58.666 -8 -75.999 -24s-26 -35.667 -26 -59c0 -14.667 4 -27 12 -37
s18.833 -18.833 32.5 -26.5s29.5 -14.5 47.5 -20.5l57 -19c24.667 -8 49.5 -17.167 74.5 -27.5s47.667 -23.666 68 -39.999s36.833 -36.333 49.5 -60s19 -53.167 19 -88.5c0 -28.667 -5.66699 -56.667 -17 -84s-27.666 -51.5 -48.999 -72.5s-47.666 -38 -78.999 -51
s-67 -19.5 -107 -19.5zM121.996 949.998h102l59 -89l59 89h102l-119 -170h-84z" />
    <glyph glyph-name="scaron" unicode="&#x161;" horiz-adv-x="518" 
d="M259 -12c-64.667 0 -118.335 12.165 -161.002 36.498s-75.667 59.5 -99 105.5l125 60c14 -27.333 33 -48.333 57 -63s52 -22 84 -22c33.333 0 58.333 7 75 21s25 30.667 25 50c0 10.667 -3.83301 19.334 -11.5 26.001s-17.667 12.5 -30 17.5s-26.833 9.16699 -43.5 12.5
s-34 7 -52 11c-25.333 5.33301 -50.166 11.666 -74.499 18.999s-46.166 17.5 -65.499 30.5s-35 29.667 -47 50s-18 45.833 -18 76.5c0 23.333 5.5 45.833 16.5 67.5s26.5 40.834 46.5 57.501s44.167 29.834 72.5 39.501s59.833 14.5 94.5 14.5
c58.667 0 107.5 -10.833 146.5 -32.5s69.833 -51.167 92.5 -88.5l-115 -58c-12 20.667 -28.667 37 -50 49s-46 18 -74 18c-32 0 -55.667 -6.33301 -71 -19s-23 -27.334 -23 -44.001c0 -19.333 11.333 -33.166 34 -41.499s56 -17.166 100 -26.499
c24 -4.66699 48.167 -10.834 72.5 -18.501s46.5 -18 66.5 -31s36.167 -29.667 48.5 -50s18.5 -45.833 18.5 -76.5c0 -20.667 -4.66699 -42.167 -14 -64.5s-23.833 -43 -43.5 -62s-44.5 -34.5 -74.5 -46.5s-66 -18 -108 -18zM96.999 810.998h102l59 -89l59 89h102l-119 -170
h-84z" />
    <glyph glyph-name="uni0162" unicode="&#x162;" horiz-adv-x="598" 
d="M206 -250l34 204h119l-70 -204h-83zM233 600h-195v130h527v-130h-196v-600h-136v600z" />
    <glyph glyph-name="uni0163" unicode="&#x163;" horiz-adv-x="399" 
d="M18 585h99.999v89l136 93v-182h119v-121h-119v-219c0 -25.333 1.33301 -45.833 4 -61.5s8.16699 -27.667 16.5 -36s20.333 -13.833 36 -16.5s36.5 -4 62.5 -4v-127h-19c-45.333 0 -83.166 4 -113.499 12s-54.5 21.5 -72.5 40.5s-30.833 44 -38.5 75
s-11.5 69.833 -11.5 116.5v220h-100v121zM144.999 -243l34 204h119l-70 -204h-83z" />
    <glyph glyph-name="Tcaron" unicode="&#x164;" horiz-adv-x="598" 
d="M233 600h-195v130h527v-130h-196v-600h-136v600zM135 950h102l59 -89l59 89h102l-119 -170h-84z" />
    <glyph glyph-name="tcaron" unicode="&#x165;" horiz-adv-x="399" 
d="M18 585h99.999v89l136 93v-182h119v-121h-119v-219c0 -25.333 1.33301 -45.833 4 -61.5s8.16699 -27.667 16.5 -36s20.333 -13.833 36 -16.5s36.5 -4 62.5 -4v-127h-19c-45.333 0 -83.166 4 -113.499 12s-54.5 21.5 -72.5 40.5s-30.833 44 -38.5 75
s-11.5 69.833 -11.5 116.5v220h-100v121zM321.999 805h109l-51 -171h-83z" />
    <glyph glyph-name="Tbar" unicode="&#x166;" horiz-adv-x="598" 
d="M108 433h125v167h-195v130h527v-130h-196v-167h120v-130h-120v-303h-136v303h-125v130z" />
    <glyph glyph-name="tbar" unicode="&#x167;" horiz-adv-x="399" 
d="M18 585h99.999v89l136 93v-182h119v-121h-119v-103h119v-111h-119v-5c0 -25.333 1.33301 -45.833 4 -61.5s8.16699 -27.667 16.5 -36s20.333 -13.833 36 -16.5s36.5 -4 62.5 -4v-127h-19c-45.333 0 -83.166 4 -113.499 12s-54.5 21.5 -72.5 40.5s-30.833 44 -38.5 75
s-11.5 69.833 -11.5 116.5v6h-100v111h100v103h-100v121z" />
    <glyph glyph-name="Utilde" unicode="&#x168;" horiz-adv-x="608" 
d="M304 -10c-38 0 -73 5.66699 -105 17s-59.833 28 -83.5 50s-42 49.333 -55 82s-19.5 70.334 -19.5 113.001v478h136v-486c0 -18 3.16699 -34.833 9.5 -50.5s15.166 -29.167 26.499 -40.5s24.666 -20.333 39.999 -27s32 -10 50 -10s34.667 3.33301 50 10
s28.833 15.667 40.5 27s20.834 24.833 27.501 40.5s10 32.5 10 50.5v486h136v-478c0 -42.667 -6.66699 -80.334 -20 -113.001s-31.666 -60 -54.999 -82s-51 -38.667 -83 -50s-67 -17 -105 -17zM126 780c0 40.667 9.16699 73.332 27.5 97.999s43.833 37 76.5 37
c16.667 0 31 -2.5 43 -7.5s23.333 -10.5 34 -16.5c9.33301 -6.66699 18.166 -12.5 26.499 -17.5s16.833 -7.5 25.5 -7.5c18.667 0 28 15 28 45h78c0 -41.333 -8.66699 -74.166 -26 -98.499s-43.666 -36.5 -78.999 -36.5c-19.333 0 -35.833 3.5 -49.5 10.5
s-26.167 13.833 -37.5 20.5c-7.33301 4.66699 -14.5 8.66699 -21.5 12s-14.167 5 -21.5 5c-17.333 0 -26 -14.667 -26 -44h-78z" />
    <glyph glyph-name="utilde" unicode="&#x169;" horiz-adv-x="608" 
d="M569 0h-134.001v67c-18.667 -24.667 -42 -44 -70 -58s-60.667 -21 -98 -21c-69.333 0 -124.166 22 -164.499 66s-60.5 105.333 -60.5 184v347h137v-333c0 -45.333 10.167 -81.166 30.5 -107.499s51.833 -39.5 94.5 -39.5c37.333 0 68.333 13.667 93 41
s37 66.666 37 117.999v321h135v-585zM140.999 634c0 40.667 9.16699 73.332 27.5 97.999s43.833 37 76.5 37c16.667 0 31 -2.5 43 -7.5s23.333 -10.5 34 -16.5c9.33301 -6.66699 18.166 -12.5 26.499 -17.5s16.833 -7.5 25.5 -7.5c18.667 0 28 15 28 45h78
c0 -41.333 -8.66699 -74.166 -26 -98.499s-43.666 -36.5 -78.999 -36.5c-19.333 0 -35.833 3.5 -49.5 10.5s-26.167 13.833 -37.5 20.5c-7.33301 4.66699 -14.5 8.66699 -21.5 12s-14.167 5 -21.5 5c-17.333 0 -26 -14.667 -26 -44h-78z" />
    <glyph glyph-name="Umacron" unicode="&#x16a;" horiz-adv-x="608" 
d="M304 -10c-38 0 -73 5.66699 -105 17s-59.833 28 -83.5 50s-42 49.333 -55 82s-19.5 70.334 -19.5 113.001v478h136v-486c0 -18 3.16699 -34.833 9.5 -50.5s15.166 -29.167 26.499 -40.5s24.666 -20.333 39.999 -27s32 -10 50 -10s34.667 3.33301 50 10
s28.833 15.667 40.5 27s20.834 24.833 27.501 40.5s10 32.5 10 50.5v486h136v-478c0 -42.667 -6.66699 -80.334 -20 -113.001s-31.666 -60 -54.999 -82s-51 -38.667 -83 -50s-67 -17 -105 -17zM172 866h264v-86h-264v86z" />
    <glyph glyph-name="umacron" unicode="&#x16b;" horiz-adv-x="608" 
d="M569 0h-134.001v67c-18.667 -24.667 -42 -44 -70 -58s-60.667 -21 -98 -21c-69.333 0 -124.166 22 -164.499 66s-60.5 105.333 -60.5 184v347h137v-333c0 -45.333 10.167 -81.166 30.5 -107.499s51.833 -39.5 94.5 -39.5c37.333 0 68.333 13.667 93 41
s37 66.666 37 117.999v321h135v-585zM173.999 725h264v-86h-264v86z" />
    <glyph glyph-name="Ubreve" unicode="&#x16c;" horiz-adv-x="608" 
d="M304 -10c-38 0 -73 5.66699 -105 17s-59.833 28 -83.5 50s-42 49.333 -55 82s-19.5 70.334 -19.5 113.001v478h136v-486c0 -18 3.16699 -34.833 9.5 -50.5s15.166 -29.167 26.499 -40.5s24.666 -20.333 39.999 -27s32 -10 50 -10s34.667 3.33301 50 10
s28.833 15.667 40.5 27s20.834 24.833 27.501 40.5s10 32.5 10 50.5v486h136v-478c0 -42.667 -6.66699 -80.334 -20 -113.001s-31.666 -60 -54.999 -82s-51 -38.667 -83 -50s-67 -17 -105 -17zM308 775c-27.333 0 -51.1689 4.33301 -71.502 13s-37.166 20.5 -50.499 35.5
s-23.166 33 -29.499 54s-9.5 43.5 -9.5 67.5h85c0 -32 6.5 -55.667 19.5 -71s31.833 -23.666 56.5 -24.999c24 1.33301 42.667 9.66602 56 24.999s20 39 20 71h86c0 -24 -3.66699 -46.5 -11 -67.5s-18 -39 -32 -54s-31 -26.833 -51 -35.5s-42.667 -13 -68 -13z" />
    <glyph glyph-name="ubreve" unicode="&#x16d;" horiz-adv-x="608" 
d="M569 0h-134.001v67c-18.667 -24.667 -42 -44 -70 -58s-60.667 -21 -98 -21c-69.333 0 -124.166 22 -164.499 66s-60.5 105.333 -60.5 184v347h137v-333c0 -45.333 10.167 -81.166 30.5 -107.499s51.833 -39.5 94.5 -39.5c37.333 0 68.333 13.667 93 41
s37 66.666 37 117.999v321h135v-585zM308.999 623c-27.333 0 -51.1689 4.33301 -71.502 13s-37.166 20.5 -50.499 35.5s-23.166 33 -29.499 54s-9.5 43.5 -9.5 67.5h85c0 -32 6.5 -55.667 19.5 -71s31.833 -23.666 56.5 -24.999c24 1.33301 42.667 9.66602 56 24.999
s20 39 20 71h86c0 -24 -3.66699 -46.5 -11 -67.5s-18 -39 -32 -54s-31 -26.833 -51 -35.5s-42.667 -13 -68 -13z" />
    <glyph glyph-name="Uring" unicode="&#x16e;" horiz-adv-x="608" 
d="M302 729c-16 0 -31 3 -45 9s-26.333 14.333 -37 25s-19 23 -25 37s-9 29 -9 45c0 16.667 3 32.167 9 46.5s14.333 26.833 25 37.5s23 19 37 25s29 9 45 9s31.167 -3 45.5 -9s26.833 -14.333 37.5 -25s19 -23.167 25 -37.5s9 -29.833 9 -46.5c0 -16 -3 -31 -9 -45
s-14.333 -26.333 -25 -37s-23.167 -19 -37.5 -25s-29.5 -9 -45.5 -9zM302 806c11.333 0 21 3.83301 29 11.5s12 16.834 12 27.501c0 11.333 -4 21 -12 29s-17.667 12 -29 12s-20.833 -4 -28.5 -12s-11.5 -17.667 -11.5 -29c0 -10.667 3.83301 -19.834 11.5 -27.501
s17.167 -11.5 28.5 -11.5zM304 -10c-38 0 -73 5.66699 -105 17s-59.833 28 -83.5 50s-42 49.333 -55 82s-19.5 70.334 -19.5 113.001v478h136v-486c0 -18 3.16699 -34.833 9.5 -50.5s15.166 -29.167 26.499 -40.5s24.666 -20.333 39.999 -27s32 -10 50 -10
s34.667 3.33301 50 10s28.833 15.667 40.5 27s20.834 24.833 27.501 40.5s10 32.5 10 50.5v486h136v-478c0 -42.667 -6.66699 -80.334 -20 -113.001s-31.666 -60 -54.999 -82s-51 -38.667 -83 -50s-67 -17 -105 -17z" />
    <glyph glyph-name="uring" unicode="&#x16f;" horiz-adv-x="608" 
d="M569 0h-134.001v67c-18.667 -24.667 -42 -44 -70 -58s-60.667 -21 -98 -21c-69.333 0 -124.166 22 -164.499 66s-60.5 105.333 -60.5 184v347h137v-333c0 -45.333 10.167 -81.166 30.5 -107.499s51.833 -39.5 94.5 -39.5c37.333 0 68.333 13.667 93 41
s37 66.666 37 117.999v321h135v-585zM304.999 599c-16 0 -31 3 -45 9s-26.333 14.333 -37 25s-19 23 -25 37s-9 29 -9 45c0 16.667 3 32.167 9 46.5s14.333 26.833 25 37.5s23 19 37 25s29 9 45 9s31.167 -3 45.5 -9s26.833 -14.333 37.5 -25s19 -23.167 25 -37.5
s9 -29.833 9 -46.5c0 -16 -3 -31 -9 -45s-14.333 -26.333 -25 -37s-23.167 -19 -37.5 -25s-29.5 -9 -45.5 -9zM304.999 676c11.333 0 21 3.83301 29 11.5s12 16.834 12 27.501c0 11.333 -4 21 -12 29s-17.667 12 -29 12s-20.833 -4 -28.5 -12s-11.5 -17.667 -11.5 -29
c0 -10.667 3.83301 -19.834 11.5 -27.501s17.167 -11.5 28.5 -11.5z" />
    <glyph glyph-name="Uhungarumlaut" unicode="&#x170;" horiz-adv-x="608" 
d="M304 -10c-38 0 -73 5.66699 -105 17s-59.833 28 -83.5 50s-42 49.333 -55 82s-19.5 70.334 -19.5 113.001v478h136v-486c0 -18 3.16699 -34.833 9.5 -50.5s15.166 -29.167 26.499 -40.5s24.666 -20.333 39.999 -27s32 -10 50 -10s34.667 3.33301 50 10
s28.833 15.667 40.5 27s20.834 24.833 27.501 40.5s10 32.5 10 50.5v486h136v-478c0 -42.667 -6.66699 -80.334 -20 -113.001s-31.666 -60 -54.999 -82s-51 -38.667 -83 -50s-67 -17 -105 -17zM275 950h120l-150 -170h-84zM441 950h120l-150 -170h-84z" />
    <glyph glyph-name="uhungarumlaut" unicode="&#x171;" horiz-adv-x="608" 
d="M569 0h-134.001v67c-18.667 -24.667 -42 -44 -70 -58s-60.667 -21 -98 -21c-69.333 0 -124.166 22 -164.499 66s-60.5 105.333 -60.5 184v347h137v-333c0 -45.333 10.167 -81.166 30.5 -107.499s51.833 -39.5 94.5 -39.5c37.333 0 68.333 13.667 93 41
s37 66.666 37 117.999v321h135v-585zM441.999 805h120l-150 -170h-84zM275.999 805h120l-150 -170h-84z" />
    <glyph glyph-name="Uogonek" unicode="&#x172;" horiz-adv-x="608" 
d="M316 -222c-43.333 0 -78.167 10.5 -104.5 31.5s-39.5 46.833 -39.5 77.5c0 18.667 4.5 36.834 13.5 54.501s26.167 36.167 51.5 55.5c-58.667 11.333 -106 38.5 -142 81.5s-54 100.833 -54 173.5v478h136v-486c0 -18 3.16699 -34.833 9.5 -50.5
s15.166 -29.167 26.499 -40.5s24.666 -20.333 39.999 -27s32 -10 50 -10s34.667 3.33301 50 10s28.833 15.667 40.5 27s20.834 24.833 27.501 40.5s10 32.5 10 50.5v486h136v-478c0 -66.667 -15 -120.5 -45 -161.5s-69.667 -69.5 -119 -85.5l-66.5 -44.5
c-17 -11.667 -30.167 -21.5 -39.5 -29.5s-15.666 -14.833 -18.999 -20.5s-5 -11.834 -5 -18.501c0 -11.333 4.33301 -19.333 13 -24s18.667 -7 30 -7c13.333 0 24.333 3 33 9s17.667 12.667 27 20l79 -54c-17.333 -16 -38.833 -29.667 -64.5 -41s-50.5 -17 -74.5 -17z" />
    <glyph glyph-name="uogonek" unicode="&#x173;" horiz-adv-x="608" 
d="M569 0c-38 -23.333 -65.002 -44.667 -81.002 -64s-24 -35 -24 -47c0 -11.333 3.5 -19.666 10.5 -24.999s16.167 -8 27.5 -8c10 0 19.167 3 27.5 9s15.833 13 22.5 21l79 -55c-17.333 -18 -36.666 -32.5 -57.999 -43.5s-46.666 -16.5 -75.999 -16.5
c-38.667 0 -70.167 10.167 -94.5 30.5s-36.833 46.166 -37.5 77.499c-0.666992 26 5.16602 48.833 17.499 68.5s29.833 38.5 52.5 56.5v63c-18.667 -24.667 -42 -44 -70 -58s-60.667 -21 -98 -21c-69.333 0 -124.166 22 -164.499 66s-60.5 105.333 -60.5 184v347h137v-333
c0 -45.333 10.167 -81.166 30.5 -107.499s51.833 -39.5 94.5 -39.5c37.333 0 68.333 13.667 93 41s37 66.666 37 117.999v321h135v-585z" />
    <glyph glyph-name="Wcircumflex" unicode="&#x174;" horiz-adv-x="1023" 
d="M14 730h142l138 -511l153 511h134l152 -509l137 509h137l-206 -730h-135l-153 515l-153 -515h-138zM469 950h84l119 -170h-102l-59 89l-59 -89h-102z" />
    <glyph glyph-name="wcircumflex" unicode="&#x175;" horiz-adv-x="995" 
d="M18 585h138l129 -403l147 403h134l144 -404l134 404h137l-205 -585h-130l-148 405l-152 -405h-133zM455 804h84l119 -170h-102l-59 89l-59 -89h-102z" />
    <glyph glyph-name="Ycircumflex" unicode="&#x176;" horiz-adv-x="629" 
d="M245 346l-232 384h150l151 -253l152 253h150l-235 -387v-343h-136v346zM272 950h84l119 -170h-102l-59 89l-59 -89h-102z" />
    <glyph glyph-name="ycircumflex" unicode="&#x177;" horiz-adv-x="618" 
d="M246 29l-240 556h144l163 -394l154 394h142l-349 -855h-137zM267 805h84l119 -170h-102l-59 89l-59 -89h-102z" />
    <glyph glyph-name="Ydieresis" unicode="&#x178;" horiz-adv-x="629" 
d="M245 346l-232 384h150l151 -253l152 253h150l-235 -387v-343h-136v346zM146 849c0 21.333 6.50098 38.666 19.501 51.999s30.5 20 52.5 20c22.667 0 40.334 -6.66699 53.001 -20s19 -30.666 19 -51.999s-6.33301 -38.5 -19 -51.5s-30.334 -19.5 -53.001 -19.5
s-40.334 6.5 -53.001 19.5s-19 30.167 -19 51.5zM337.001 849c0 21.333 6.49902 38.666 19.499 51.999s30.5 20 52.5 20s39.5 -6.66699 52.5 -20s19.5 -30.666 19.5 -51.999s-6.5 -38.5 -19.5 -51.5s-30.5 -19.5 -52.5 -19.5c-23.333 0 -41.166 6.5 -53.499 19.5
s-18.5 30.167 -18.5 51.5z" />
    <glyph glyph-name="Zacute" unicode="&#x179;" horiz-adv-x="556" 
d="M36 125l323 475h-312v130h472v-124l-323 -476h323v-130h-483v125zM337 950h126l-150 -170h-91z" />
    <glyph glyph-name="zacute" unicode="&#x17a;" horiz-adv-x="577" 
d="M28 123l340 342h-333v120h509v-123l-340 -342h346v-120h-522v123zM356 805h126l-150 -170h-91z" />
    <glyph glyph-name="Zdotaccent" unicode="&#x17b;" horiz-adv-x="556" 
d="M36 125l323 475h-312v130h472v-124l-323 -476h323v-130h-483v125zM203 849c0 23.333 7.16699 42.333 21.5 57s33.5 22 57.5 22c24.667 0 44 -7.33301 58 -22s21 -33.667 21 -57s-7 -42.166 -21 -56.499s-33.333 -21.5 -58 -21.5c-25.333 0 -44.833 7.16699 -58.5 21.5
s-20.5 33.166 -20.5 56.499z" />
    <glyph glyph-name="zdotaccent" unicode="&#x17c;" horiz-adv-x="577" 
d="M28 123l340 342h-333v120h509v-123l-340 -342h346v-120h-522v123zM218 704c0 23.333 7.16699 42.333 21.5 57s33.5 22 57.5 22c24.667 0 44 -7.33301 58 -22s21 -33.667 21 -57s-7 -42.166 -21 -56.499s-33.333 -21.5 -58 -21.5c-25.333 0 -44.833 7.16699 -58.5 21.5
s-20.5 33.166 -20.5 56.499z" />
    <glyph glyph-name="Zcaron" unicode="&#x17d;" horiz-adv-x="556" 
d="M36 125l323 475h-312v130h472v-124l-323 -476h323v-130h-483v125zM122 950h102l59 -89l59 89h102l-119 -170h-84z" />
    <glyph glyph-name="zcaron" unicode="&#x17e;" horiz-adv-x="577" 
d="M28 123l340 342h-333v120h509v-123l-340 -342h346v-120h-522v123zM136 805h102l59 -89l59 89h102l-119 -170h-84z" />
    <glyph glyph-name="florin" unicode="&#x192;" horiz-adv-x="588" 
d="M48 425l191 -0.000976562l25 89c11.333 41.333 25.333 75.833 42 103.5s36 49.834 58 66.501s47 28.5 75 35.5s59.333 10.5 94 10.5h10v-125c-22.667 0 -41.834 -1.33301 -57.501 -4s-29 -7.5 -40 -14.5s-19.833 -16.5 -26.5 -28.5s-12.667 -27 -18 -45l-25 -88h165v-120
h-199l-25 -89c-11.333 -40 -24.333 -73.667 -39 -101s-32 -49.5 -52 -66.5s-43 -29.333 -69 -37s-55.667 -11.5 -89 -11.5h-22v125c40.667 0 70.834 6.66699 90.501 20s34.167 37.333 43.5 72l25 88h-157v120z" />
    <glyph glyph-name="Ohorn" unicode="&#x1a0;" horiz-adv-x="790" 
d="M395 124c33.333 0 64.5 6.33301 93.5 19s54.333 29.834 76 51.501s38.667 47.167 51 76.5s18.5 60.666 18.5 93.999s-6.16699 64.666 -18.5 93.999s-29.333 54.833 -51 76.5s-47 38.834 -76 51.501s-60.167 19 -93.5 19s-64.5 -6.33301 -93.5 -19
s-54.167 -29.834 -75.5 -51.501s-38.166 -47.167 -50.499 -76.5s-18.5 -60.666 -18.5 -93.999s6.16699 -64.666 18.5 -93.999s29.166 -54.833 50.499 -76.5s46.5 -38.834 75.5 -51.501s60.167 -19 93.5 -19zM628 659c11.333 -9.33301 22 -19 32 -29
c34 -34 60.667 -73.667 80 -119s29 -94 29 -146s-9.66699 -100.833 -29 -146.5s-46 -85.334 -80 -119.001s-73.667 -60.334 -119 -80.001s-94 -29.5 -146 -29.5s-100.667 9.83301 -146 29.5s-84.833 46.334 -118.5 80.001s-60.167 73.334 -79.5 119.001s-29 94.5 -29 146.5
s9.66699 100.667 29 146s45.833 85 79.5 119s73.167 60.833 118.5 80.5s94 29.5 146 29.5c43.333 0 84.666 -7 123.999 -21c30 -2 53.667 5.66699 71 23c10 12 13.667 39.667 11 83h95c0 -74 -16.333 -125 -49 -153c-5.33301 -4.66699 -11.666 -9 -18.999 -13z" />
    <glyph glyph-name="ohorn" unicode="&#x1a1;" 
d="M323 115c24 0 46.333 4.66699 67 14s38.667 22 54 38s27.333 34.833 36 56.5s13 44.5 13 68.5c0 24.667 -4.33301 47.834 -13 69.501s-20.667 40.5 -36 56.5s-33.333 28.667 -54 38s-43 14 -67 14s-46.5 -4.66699 -67.5 -14s-39 -22 -54 -38s-26.833 -34.833 -35.5 -56.5
s-13 -44.834 -13 -69.501c0 -24 4.33301 -46.833 13 -68.5s20.5 -40.5 35.5 -56.5s33 -28.667 54 -38s43.5 -14 67.5 -14zM537 509l1.00098 -0.000976562c27.333 -28 48.833 -60.5 64.5 -97.5s23.5 -76.833 23.5 -119.5c0 -42 -7.83301 -81.5 -23.5 -118.5
s-37.334 -69.333 -65.001 -97s-59.834 -49.334 -96.501 -65.001s-76 -23.5 -118 -23.5s-81.5 7.83301 -118.5 23.5s-69.167 37.334 -96.5 65.001s-48.833 60 -64.5 97s-23.5 76.5 -23.5 118.5c0 42.667 7.83301 82.5 23.5 119.5s37.167 69.333 64.5 97
s59.5 49.334 96.5 65.001s76.5 23.5 118.5 23.5c40 0 77.667 -7 113 -21c30.667 -2.66699 54.334 4.33301 71.001 21c10 12 13.667 39.667 11 83h95c0 -74 -16.333 -125 -49 -153c-8 -6.66699 -17 -12.667 -27 -18z" />
    <glyph glyph-name="Uhorn" unicode="&#x1af;" horiz-adv-x="608" 
d="M567 643v-390.999c0 -42.667 -6.66699 -80.334 -20 -113.001s-31.666 -60 -54.999 -82s-51 -38.667 -83 -50s-67 -17 -105 -17s-73 5.66699 -105 17s-59.833 28 -83.5 50s-42 49.333 -55 82s-19.5 70.334 -19.5 113.001v478h136v-486c0 -18 3.16699 -34.833 9.5 -50.5
s15.166 -29.167 26.499 -40.5s24.666 -20.333 39.999 -27s32 -10 50 -10s34.667 3.33301 50 10s28.833 15.667 40.5 27s20.834 24.833 27.501 40.5s10 32.5 10 50.5v486h118c8.66699 2.66699 15 6.66699 19 12c10 12 13.667 39.667 11 83h95c0 -74 -16.333 -125 -49 -153
c-14.667 -12.667 -34 -22.334 -58 -29.001z" />
    <glyph glyph-name="uhorn" unicode="&#x1b0;" horiz-adv-x="605" 
d="M566 506l-0.000976562 -506h-134v67c-18.667 -24.667 -42 -44 -70 -58s-60.667 -21 -98 -21c-69.333 0 -124.166 22 -164.499 66s-60.5 105.333 -60.5 184v347h137v-333c0 -45.333 10.167 -81.166 30.5 -107.499s51.833 -39.5 94.5 -39.5c37.333 0 68.333 13.667 93 41
s37 66.666 37 117.999v321h94c8.66699 2.66699 15 6.66699 19 12c10 12 13.667 39.667 11 83h95c0 -74 -16.333 -125 -49 -153c-9.33301 -8 -21 -15 -35 -21z" />
    <glyph glyph-name="Aringacute" unicode="&#x1fa;" horiz-adv-x="687" 
d="M261 691c-9.33301 10 -16.834 21.833 -22.501 35.5s-8.5 28.167 -8.5 43.5c0 16.667 3 32.167 9 46.5s14.333 26.833 25 37.5s23 19 37 25s29 9 45 9s31.167 -3 45.5 -9s26.833 -14.333 37.5 -25s19 -23.167 25 -37.5s9 -29.833 9 -46.5s-3.16699 -32.167 -9.5 -46.5
s-15.166 -26.833 -26.499 -37.5l245 -686h-142l-45 130h-283l-45 -130h-142zM247.999 260h192l-96 276zM413.999 1100h126l-150 -170h-91zM345.999 731c11.333 0 21 3.83301 29 11.5s12 16.834 12 27.501c0 11.333 -4 21 -12 29s-17.667 12 -29 12s-20.833 -4 -28.5 -12
s-11.5 -17.667 -11.5 -29c0 -10.667 3.83301 -19.834 11.5 -27.501s17.167 -11.5 28.5 -11.5z" />
    <glyph glyph-name="aringacute" unicode="&#x1fb;" horiz-adv-x="671" 
d="M308 -12c-35.333 0 -70.168 6.83496 -104.501 20.502s-65.166 33.5 -92.499 59.5s-49.333 57.833 -66 95.5s-25 80.5 -25 128.5c0 37.333 5 71.666 15 102.999s23.667 59.166 41 83.499s37.666 45 60.999 62s48.333 30.167 75 39.5c-9.33301 17.333 -14 36 -14 56
c0 16.667 3 32.167 9 46.5s14.333 26.833 25 37.5s23 19 37 25s29 9 45 9s31.167 -3 45.5 -9s26.833 -14.333 37.5 -25s19 -23.167 25 -37.5s9 -29.833 9 -46.5c0 -21.333 -5.66699 -41.333 -17 -60c34 -14 62 -34.333 84 -61v70h135v-585h-135v76
c-21.333 -27.333 -48.666 -48.833 -81.999 -64.5s-69.333 -23.5 -108 -23.5zM329.998 112.002c25.333 0 48.666 4.66504 69.999 13.998s39.666 22.333 54.999 39s27.5 36 36.5 58s13.5 45.667 13.5 71c0 24.667 -4.5 48 -13.5 70s-21.167 41.167 -36.5 57.5
s-33.666 29.166 -54.999 38.499s-44.666 14 -69.999 14c-24.667 0 -47.834 -4.66699 -69.501 -14s-40.5 -22 -56.5 -38s-28.5 -35 -37.5 -57s-13.5 -45.667 -13.5 -71s4.5 -49.166 13.5 -71.499s21.5 -41.666 37.5 -57.999s34.833 -29.166 56.5 -38.499
s44.834 -14 69.501 -14zM381.998 958h126l-150 -170h-91zM313.998 597c11.333 0 21 3.83301 29 11.5s12 16.834 12 27.501c0 11.333 -4 21 -12 29s-17.667 12 -29 12s-20.833 -4 -28.5 -12s-11.5 -17.667 -11.5 -29c0 -10 3.5 -18.833 10.5 -26.5s15.5 -11.834 25.5 -12.501
h4z" />
    <glyph glyph-name="AEacute" unicode="&#x1fc;" horiz-adv-x="938" 
d="M346 730h558v-130h-386l42 -168h344v-130h-311l43 -172h268v-130h-378l-32 129h-281l-58 -129h-142zM269 255h194l-68 279zM605 950h126l-150 -170h-91z" />
    <glyph glyph-name="aeacute" unicode="&#x1fd;" horiz-adv-x="1035" 
d="M719 -12c-56 0 -105.161 11 -147.494 33s-76.5 52 -102.5 90c-10 -16.667 -22.833 -32.5 -38.5 -47.5s-33.834 -28.167 -54.501 -39.5s-43.334 -20.166 -68.001 -26.499s-50.667 -9.5 -78 -9.5c-36.667 0 -68.334 4.16699 -95.001 12.5s-48.667 20 -66 35
s-30.166 32.5 -38.499 52.5s-12.5 42 -12.5 66c0 27.333 4.83301 51 14.5 71s23.167 37.333 40.5 52s37.833 26.834 61.5 36.501s49.167 17.834 76.5 24.501c24.667 6.66699 48.667 12.667 72 18s44.166 11.166 62.499 17.499s33.166 13.666 44.499 21.999
s17 18.833 17 31.5c0 17.333 -9 32.166 -27 44.499s-45 18.5 -81 18.5c-48.667 0 -84.334 -10.833 -107.001 -32.5s-34 -47.5 -34 -77.5v-3h-124v2c0 68.667 22.833 122.167 68.5 160.5s109.167 57.5 190.5 57.5c48 0 90 -7.16699 126 -21.5s64 -35.5 84 -63.5
c26.667 26.667 57.834 47.5 93.501 62.5s74.5 22.5 116.5 22.5c43.333 0 83.333 -7.5 120 -22.5s68.5 -36 95.5 -63s48.167 -58.833 63.5 -95.5s23 -76.667 23 -120v-47h-477c8 -42.667 27.833 -77 59.5 -103s72.167 -39 121.5 -39c38 0 71.667 9.83301 101 29.5
s51 45.167 65 76.5l114 -49c-24.667 -53.333 -61.334 -96 -110.001 -128s-105.334 -48 -170.001 -48zM237.006 100c24 0 46.332 4.8291 66.999 14.4961s38.667 21.334 54 35.001s27.666 28.334 36.999 44.001s15 29.5 17 41.5c0 0.666992 0.166992 3.83398 0.5 9.50098
s0.333008 12 0 19s-0.666016 13.5 -0.999023 19.5s-0.833008 9.66699 -1.5 11c-3.33301 -9.33301 -17 -18.166 -41 -26.499s-55 -16.833 -93 -25.5c-41.333 -9.33301 -72.166 -19.833 -92.499 -31.5s-30.5 -29.167 -30.5 -52.5c0 -17.333 6.5 -31.333 19.5 -42
s34.5 -16 64.5 -16zM713.005 477.996c-40 0 -74.332 -10.667 -102.999 -32s-49.667 -49.333 -63 -84h330c-11.333 38 -31.333 66.833 -60 86.5s-63.334 29.5 -104.001 29.5zM584.006 807.996h126l-150 -170h-91z" />
    <glyph glyph-name="Oslashacute" unicode="&#x1fe;" horiz-adv-x="790" 
d="M116 114c-30 34 -53.166 72.1699 -69.499 114.503s-24.5 87.833 -24.5 136.5c0 52 9.66699 100.667 29 146s45.833 85 79.5 119s73.167 60.833 118.5 80.5s94 29.5 146 29.5c34 0 66.5 -4.5 97.5 -13.5s60.5 -21.167 88.5 -36.5l33 40h157l-95 -117
c29.333 -33.333 52.166 -71 68.499 -113s24.5 -87 24.5 -135c0 -52 -9.66699 -100.833 -29 -146.5s-46 -85.334 -80 -119.001s-73.667 -60.334 -119 -80.001s-94 -29.5 -146 -29.5c-34 0 -66.333 4.16699 -97 12.5s-59.667 20.166 -87 35.499l-30 -38h-157zM157.001 365.003
c0 -27.333 3.99902 -53.167 11.999 -77.5s19.333 -46.5 34 -66.5l292 362c-15.333 7.33301 -31.333 13 -48 17s-34 6 -52 6c-33.333 0 -64.5 -6.33301 -93.5 -19s-54.167 -29.834 -75.5 -51.501s-38.166 -47.167 -50.499 -76.5s-18.5 -60.666 -18.5 -93.999zM395 124.002
c33.333 0 64.5 6.33301 93.5 19s54.333 29.834 76 51.501s38.667 47.167 51 76.5s18.5 60.666 18.5 93.999c0 26 -4 51 -12 75s-19 45.667 -33 65l-291 -361c30 -13.333 62.333 -20 97 -20zM448 950.002h126l-150 -170h-91z" />
    <glyph glyph-name="oslashacute" unicode="&#x1ff;" 
d="M323 -12c-26.667 0 -52.165 3.16699 -76.498 9.5s-47.166 15.166 -68.499 26.499l-19 -24h-139l73 92c-23.333 26.667 -41.333 57 -54 91s-19 70.333 -19 109c0 42.667 7.83301 82.5 23.5 119.5s37.167 69.333 64.5 97s59.5 49.334 96.5 65.001s76.5 23.5 118.5 23.5
c26 0 51 -3.16699 75 -9.5s46.667 -15.166 68 -26.499l19 24h139l-73 -92c23.333 -26.667 41.666 -57.167 54.999 -91.5s20 -70.833 20 -109.5c0 -42 -7.83301 -81.5 -23.5 -118.5s-37.334 -69.333 -65.001 -97s-59.834 -49.334 -96.501 -65.001s-76 -23.5 -118 -23.5z
M323.002 115c24 0 46.332 4.66797 66.999 14.001s38.834 22 54.501 38s27.834 34.833 36.501 56.5s13 44.5 13 68.5c0 17.333 -2.33301 34.166 -7 50.499s-11.334 31.5 -20.001 45.5l-207 -261c19.333 -8 40.333 -12 63 -12zM152.001 292.001
c0 -34.667 8.33398 -65.999 25.001 -93.999l207 260c-18.667 8 -39 12 -61 12c-24.667 0 -47.334 -4.66699 -68.001 -14s-38.667 -22 -54 -38s-27.333 -34.833 -36 -56.5s-13 -44.834 -13 -69.501zM393.002 810.002h126l-150 -170h-91z" />
    <glyph glyph-name="uni0218" unicode="&#x218;" horiz-adv-x="563" 
d="M187 -249l34 204h119l-70 -204h-83zM288 -10c-66 0 -121.671 12.498 -167.004 37.498s-84.666 56.167 -117.999 93.5l124 98c18.667 -32 41.667 -56.5 69 -73.5s57.666 -25.5 90.999 -25.5c36 0 63.5 10 82.5 30s28.5 42.667 28.5 68c0 15.333 -4.33301 28.333 -13 39
s-20 19.834 -34 27.501s-30.167 14.5 -48.5 20.5l-56.5 18c-24.667 8 -49.334 16.667 -74.001 26s-46.834 21.833 -66.501 37.5s-35.667 35 -48 58s-18.5 51.833 -18.5 86.5c0 29.333 6 56.666 18 81.999s28.833 47.5 50.5 66.5s47.334 33.833 77.001 44.5
s61.834 16 96.501 16c29.333 0 55.833 -2.66699 79.5 -8s45.334 -12.666 65.001 -21.999s37.667 -20.5 54 -33.5s31.833 -27.167 46.5 -42.5l-112 -85c-31.333 46.667 -75.333 70 -132 70c-33.333 0 -58.666 -8 -75.999 -24s-26 -35.667 -26 -59c0 -14.667 4 -27 12 -37
s18.833 -18.833 32.5 -26.5s29.5 -14.5 47.5 -20.5l57 -19c24.667 -8 49.5 -17.167 74.5 -27.5s47.667 -23.666 68 -39.999s36.833 -36.333 49.5 -60s19 -53.167 19 -88.5c0 -28.667 -5.66699 -56.667 -17 -84s-27.666 -51.5 -48.999 -72.5s-47.666 -38 -78.999 -51
s-67 -19.5 -107 -19.5z" />
    <glyph glyph-name="uni0219" unicode="&#x219;" horiz-adv-x="518" 
d="M165 -254l34 204h119l-70 -204h-83zM259 -12c-64.667 0 -118.335 12.165 -161.002 36.498s-75.667 59.5 -99 105.5l125 60c14 -27.333 33 -48.333 57 -63s52 -22 84 -22c33.333 0 58.333 7 75 21s25 30.667 25 50c0 10.667 -3.83301 19.334 -11.5 26.001
s-17.667 12.5 -30 17.5s-26.833 9.16699 -43.5 12.5s-34 7 -52 11c-25.333 5.33301 -50.166 11.666 -74.499 18.999s-46.166 17.5 -65.499 30.5s-35 29.667 -47 50s-18 45.833 -18 76.5c0 23.333 5.5 45.833 16.5 67.5s26.5 40.834 46.5 57.501s44.167 29.834 72.5 39.501
s59.833 14.5 94.5 14.5c58.667 0 107.5 -10.833 146.5 -32.5s69.833 -51.167 92.5 -88.5l-115 -58c-12 20.667 -28.667 37 -50 49s-46 18 -74 18c-32 0 -55.667 -6.33301 -71 -19s-23 -27.334 -23 -44.001c0 -19.333 11.333 -33.166 34 -41.499s56 -17.166 100 -26.499
c24 -4.66699 48.167 -10.834 72.5 -18.501s46.5 -18 66.5 -31s36.167 -29.667 48.5 -50s18.5 -45.833 18.5 -76.5c0 -20.667 -4.66699 -42.167 -14 -64.5s-23.833 -43 -43.5 -62s-44.5 -34.5 -74.5 -46.5s-66 -18 -108 -18z" />
    <glyph glyph-name="uni0237" unicode="&#x237;" horiz-adv-x="214" 
d="M-82 -142c26 0 46.998 1.33398 62.998 4.00098s28.333 8.16699 37 16.5s14.334 20.166 17.001 35.499s4 36 4 62v609h137v-610c0 -46.667 -4 -85.5 -12 -116.5s-21.333 -56 -40 -75s-43.167 -32.5 -73.5 -40.5s-68.166 -12 -113.499 -12h-19v127z" />
    <glyph glyph-name="circumflex" unicode="&#x2c6;" horiz-adv-x="472" 
d="M194 720h84l119 -170h-102l-59 89l-59 -89h-102z" />
    <glyph glyph-name="caron" unicode="&#x2c7;" horiz-adv-x="472" 
d="M74 720h102l59 -89l59 89h102l-119 -170h-84z" />
    <glyph glyph-name="breve" unicode="&#x2d8;" horiz-adv-x="472" 
d="M235 545c-27.333 0 -51.1689 4.33301 -71.502 13s-37.166 20.5 -50.499 35.5s-23.166 33 -29.499 54s-9.5 43.5 -9.5 67.5h85c0 -32 6.5 -55.667 19.5 -71s31.833 -23.666 56.5 -24.999c24 1.33301 42.667 9.66602 56 24.999s20 39 20 71h86
c0 -24 -3.66699 -46.5 -11 -67.5s-18 -39 -32 -54s-31 -26.833 -51 -35.5s-42.667 -13 -68 -13z" />
    <glyph glyph-name="dotaccent" unicode="&#x2d9;" horiz-adv-x="473" 
d="M147 619c0 23.333 7.16699 42.333 21.5 57s33.5 22 57.5 22c24.667 0 44 -7.33301 58 -22s21 -33.667 21 -57s-7 -42.166 -21 -56.499s-33.333 -21.5 -58 -21.5c-25.333 0 -44.833 7.16699 -58.5 21.5s-20.5 33.166 -20.5 56.499z" />
    <glyph glyph-name="ring" unicode="&#x2da;" horiz-adv-x="472" 
d="M235 546c-16 0 -31 3 -45 9s-26.333 14.333 -37 25s-19 23 -25 37s-9 29 -9 45c0 16.667 3 32.167 9 46.5s14.333 26.833 25 37.5s23 19 37 25s29 9 45 9s31.167 -3 45.5 -9s26.833 -14.333 37.5 -25s19 -23.167 25 -37.5s9 -29.833 9 -46.5c0 -16 -3 -31 -9 -45
s-14.333 -26.333 -25 -37s-23.167 -19 -37.5 -25s-29.5 -9 -45.5 -9zM235 623c11.333 0 21 3.83301 29 11.5s12 16.834 12 27.501c0 11.333 -4 21 -12 29s-17.667 12 -29 12s-20.833 -4 -28.5 -12s-11.5 -17.667 -11.5 -29c0 -10.667 3.83301 -19.834 11.5 -27.501
s17.167 -11.5 28.5 -11.5z" />
    <glyph glyph-name="ogonek" unicode="&#x2db;" horiz-adv-x="472" 
d="M232 -227c-43.333 0 -78.166 10.5 -104.499 31.5s-39.5 46.833 -39.5 77.5c0 13.333 2.33301 26.333 7 39s12.667 25.5 24 38.5s26.666 26.333 45.999 40s43.666 27.834 72.999 42.501l81 -42l-66.5 -44.5c-17 -11.667 -30.167 -21.5 -39.5 -29.5
s-15.666 -14.833 -18.999 -20.5s-5 -11.834 -5 -18.501c0 -11.333 4.33301 -19.333 13 -24s18.667 -7 30 -7c13.333 0 24.333 3 33 9s17.667 12.667 27 20l79 -54c-17.333 -16 -38.833 -29.667 -64.5 -41s-50.5 -17 -74.5 -17z" />
    <glyph glyph-name="tilde" unicode="&#x2dc;" horiz-adv-x="472" 
d="M64 550c0 40.667 9.16699 73.332 27.5 97.999s43.833 37 76.5 37c16.667 0 31 -2.5 43 -7.5s23.333 -10.5 34 -16.5c9.33301 -6.66699 18.166 -12.5 26.499 -17.5s16.833 -7.5 25.5 -7.5c18.667 0 28 15 28 45h78c0 -41.333 -8.66699 -74.166 -26 -98.499
s-43.666 -36.5 -78.999 -36.5c-19.333 0 -35.833 3.5 -49.5 10.5s-26.167 13.833 -37.5 20.5c-7.33301 4.66699 -14.5 8.66699 -21.5 12s-14.167 5 -21.5 5c-17.333 0 -26 -14.667 -26 -44h-78z" />
    <glyph glyph-name="hungarumlaut" unicode="&#x2dd;" horiz-adv-x="472" 
d="M150 720h120l-150 -170h-84zM316 720h120l-150 -170h-84z" />
    <glyph glyph-name="gravecomb" unicode="&#x300;" horiz-adv-x="0" 
d="M-342 720h127l114 -170h-91z" />
    <glyph glyph-name="acutecomb" unicode="&#x301;" horiz-adv-x="0" 
d="M-212 720h126l-150 -170h-91z" />
    <glyph glyph-name="tildecomb" unicode="&#x303;" horiz-adv-x="0" 
d="M-371 550c0 40.667 9.16699 73.332 27.5 97.999s43.833 37 76.5 37c16.667 0 31 -2.5 43 -7.5s23.333 -10.5 34 -16.5c9.33301 -6.66699 18.166 -12.5 26.499 -17.5s16.833 -7.5 25.5 -7.5c18.667 0 28 15 28 45h78c0 -41.333 -8.66699 -74.166 -26 -98.499
s-43.666 -36.5 -78.999 -36.5c-19.333 0 -35.833 3.5 -49.5 10.5s-26.167 13.833 -37.5 20.5c-7.33301 4.66699 -14.5 8.66699 -21.5 12s-14.167 5 -21.5 5c-17.333 0 -26 -14.667 -26 -44h-78z" />
    <glyph glyph-name="hookabovecomb" unicode="&#x309;" horiz-adv-x="539" 
d="M243 867c12.667 0 24.832 -1.99902 36.499 -5.99902s22.167 -9.83301 31.5 -17.5s16.833 -17 22.5 -28s8.5 -23.167 8.5 -36.5c0 -15.333 -2.5 -28 -7.5 -38s-10.833 -18 -17.5 -24s-12.5 -10.833 -17.5 -14.5s-8 -6.33398 -9 -8.00098s-1.5 -10.167 -1.5 -25.5h-76
c0 27.333 3 46.5 9 57.5s12.333 19.333 19 25s11.834 9.83398 15.501 12.501s6 5 7 7s1.5 5.33301 1.5 10c-3.33301 9.33301 -10.666 14 -21.999 14c-6 0 -11.5 -2 -16.5 -6s-13.5 -17 -25.5 -39l-69 33c17.333 33.333 34.166 55.666 50.499 66.999s36.5 17 60.5 17z" />
    <glyph glyph-name="uni031B" unicode="&#x31b;" horiz-adv-x="0" 
d="M1261 491l-26.999 91.999c31.333 -2 52 3 62 15s13.667 39.667 11 83h95c0 -74 -16.333 -125 -49 -153c-20.667 -17.333 -51.334 -29.666 -92.001 -36.999z" />
    <glyph glyph-name="dotbelowcomb" unicode="&#x323;" horiz-adv-x="214" 
d="M22 -170c0 25.333 7.66699 45.833 23 61.5s36 23.5 62 23.5c26.667 0 47.5 -7.83301 62.5 -23.5s22.5 -36.167 22.5 -61.5s-7.5 -45.666 -22.5 -60.999s-35.833 -23 -62.5 -23c-27.333 0 -48.333 7.66699 -63 23s-22 35.666 -22 60.999z" />
    <glyph glyph-name="uni0328" unicode="&#x328;" horiz-adv-x="472" 
d="M248 -229c-38.667 0 -70.1689 10.1641 -94.502 30.4971s-36.833 46.166 -37.5 77.499c-0.666992 34.667 10 64.334 32 89.001s52 49.334 90 74.001l82 -42c-38 -23.333 -65 -44.666 -81 -63.999s-24 -35 -24 -47c0 -11.333 3.5 -19.666 10.5 -24.999s16.167 -8 27.5 -8
c10 0 19.167 3 27.5 9s15.833 13 22.5 21l79 -55c-17.333 -18 -36.666 -32.5 -57.999 -43.5s-46.666 -16.5 -75.999 -16.5z" />
    <glyph glyph-name="pi" unicode="&#x3c0;" horiz-adv-x="779" 
d="M36 730h705.999v-130h-129v-394c0 -14.667 0.666992 -26.5 2 -35.5s4.16602 -16 8.49902 -21s10.833 -8.33301 19.5 -10s20 -2.5 34 -2.5h65v-137h-103c-34 -0 -61.667 4.33301 -83 13s-37.666 21.5 -48.999 38.5s-19.166 38 -23.499 63s-6.5 53.833 -6.5 86.5l1 399
h-184v-600h-136v600h-122v130z" />
    </font>
</defs>
</svg>
